<svg width="65" height="65" viewBox="0 0 65 65" fill="none" xmlns="http://www.w3.org/2000/svg">
<path d="M6.50595 52.0216H6.50397H6.5V52.0176C6.50099 52.0166 6.50248 52.0156 6.50397 52.0156H6.50595V52.0176C6.50595 52.0166 6.50496 52.0156 6.50397 52.0156L6.50198 52.0176V52.0196H6.50397H6.50595V52.0216Z" fill="black"/>
<path d="M6.50885 52.0176C6.50736 52.0176 6.50687 52.0186 6.50687 52.0196V52.0216H6.50488V52.0176H6.50687L6.50885 52.0156V52.0176Z" fill="black"/>
<path d="M6.51377 52.0196H6.5098V52.0216H6.51178C6.51178 52.0206 6.51228 52.0196 6.51377 52.0196V52.0216H6.51178H6.50781V52.0196V52.0176C6.5088 52.0166 6.51029 52.0156 6.51178 52.0156V52.0176C6.51277 52.0176 6.51377 52.0186 6.51377 52.0196ZM6.51178 52.0196V52.0176H6.5098V52.0196H6.51178Z" fill="black"/>
<path d="M6.51468 52.0196V52.0216H6.51666V52.0196H6.51468ZM6.51865 52.0196V52.0216H6.51666H6.51468H6.5127V52.0196L6.51468 52.0176H6.51666H6.51468H6.5127H6.51468V52.0156C6.51567 52.0156 6.51666 52.0166 6.51666 52.0176C6.51766 52.0176 6.51865 52.0186 6.51865 52.0196Z" fill="black"/>
<path d="M6.51859 52.0156V52.0176H6.52057H6.51859V52.0196H6.52057V52.0216H6.51859H6.5166V52.0196V52.0156H6.51859Z" fill="black"/>
<path d="M6.52646 52.0196H6.52249V52.0216H6.52448C6.52448 52.0206 6.52497 52.0196 6.52646 52.0196V52.0216H6.52448H6.52051V52.0196V52.0176C6.5215 52.0166 6.52299 52.0156 6.52448 52.0156V52.0176C6.52547 52.0176 6.52646 52.0186 6.52646 52.0196ZM6.52448 52.0196V52.0176H6.52249V52.0196H6.52448Z" fill="black"/>
<path d="M6.52838 52.0176V52.0156H6.53037V52.0216H6.52838H6.5264H6.52441V52.0196V52.0176L6.5264 52.0156V52.0176H6.52838ZM6.52838 52.0216V52.0196V52.0176H6.5264V52.0196V52.0216H6.52838Z" fill="black"/>
<path d="M6.53522 52.0216V52.0196V52.0176H6.53323V52.0196V52.0216H6.53522ZM6.53323 52.0176L6.53522 52.0156V52.0176C6.53621 52.0176 6.5372 52.0186 6.5372 52.0196L6.53522 52.0216H6.53323H6.53125V52.0156H6.53323V52.0176Z" fill="black"/>
<path d="M6.53613 52.0171H6.53812V52.0191L6.5401 52.0171H6.54209L6.5401 52.0211C6.5401 52.0221 6.53911 52.023 6.53812 52.023H6.53613V52.0211H6.53812L6.53613 52.0171Z" fill="black"/>
<path d="M6.54666 52.0156L6.54482 52.0175V52.0193H6.54666C6.54759 52.0193 6.54851 52.0189 6.54851 52.0175H6.54666V52.0156ZM6.54666 52.0156C6.54759 52.0156 6.54851 52.0165 6.54851 52.0175H6.55036C6.55036 52.0189 6.54944 52.0202 6.54851 52.0212H6.54666H6.54297V52.0175C6.54389 52.0165 6.54528 52.0156 6.54666 52.0156Z" fill="black"/>
<path d="M6.54883 52.0156H6.55081V52.0216H6.54883V52.0156Z" fill="black"/>
<path d="M6.55674 52.0196H6.55277V52.0216H6.55475C6.55475 52.0206 6.55525 52.0196 6.55674 52.0196V52.0216H6.55475H6.55078V52.0196V52.0176C6.55177 52.0166 6.55326 52.0156 6.55475 52.0156V52.0176C6.55574 52.0176 6.55674 52.0186 6.55674 52.0196ZM6.55475 52.0196V52.0176H6.55277V52.0196H6.55475Z" fill="black"/>
<path d="M6.55566 52.0156H6.55765V52.0176H6.56162L6.55963 52.0196L6.56162 52.0216H6.55963L6.55765 52.0196V52.0216H6.55566V52.0156Z" fill="black"/>
<path d="M6.56354 52.0176H6.56156C6.56255 52.0191 6.56354 52.0196 6.56354 52.0196V52.0216H6.56156H6.55957V52.0196V52.0216H6.56156L6.56354 52.0196H6.56156H6.55957V52.0176L6.56156 52.0156C6.56255 52.0156 6.56354 52.0166 6.56354 52.0176Z" fill="black"/>
<path d="M6.56546 52.0196V52.0216H6.56745V52.0196H6.56546ZM6.56943 52.0196V52.0216H6.56745H6.56546H6.56348V52.0196L6.56546 52.0176H6.56745H6.56546H6.56348H6.56546V52.0156C6.56645 52.0156 6.56745 52.0166 6.56745 52.0176C6.56844 52.0176 6.56943 52.0186 6.56943 52.0196Z" fill="black"/>
<path d="M6.57431 52.0196V52.0216H6.57233V52.0196V52.0176H6.57034V52.0196V52.0216H6.56836V52.0176H6.57034L6.57233 52.0156V52.0176C6.57332 52.0176 6.57431 52.0186 6.57431 52.0196Z" fill="black"/>
<path d="M6.57721 52.0176V52.0156H6.5792V52.0216H6.57721H6.57523H6.57324V52.0196V52.0176L6.57523 52.0156V52.0176H6.57721ZM6.57721 52.0216V52.0196V52.0176H6.57523V52.0196V52.0216H6.57721Z" fill="black"/>
<path d="M6.58112 52.0176C6.57963 52.0176 6.57913 52.0186 6.57913 52.0196V52.0216H6.57715V52.0176H6.57913L6.58112 52.0156V52.0176Z" fill="black"/>
<path d="M6.58301 52.0156H6.58698C6.58797 52.0156 6.58896 52.0166 6.58896 52.0176L6.58698 52.0196H6.58499V52.0216H6.58301V52.0156ZM6.58499 52.0156V52.0176H6.58698V52.0156H6.58499Z" fill="black"/>
<path d="M6.58988 52.0196V52.0216H6.59186V52.0196H6.58988ZM6.59384 52.0196V52.0216H6.59186H6.58988H6.58789V52.0196L6.58988 52.0176H6.59186H6.58988H6.58789H6.58988V52.0156C6.59087 52.0156 6.59186 52.0166 6.59186 52.0176C6.59285 52.0176 6.59384 52.0186 6.59384 52.0196Z" fill="black"/>
<path d="M6.59873 52.0196V52.0216H6.59674V52.0196V52.0176H6.59476V52.0196V52.0216H6.59277V52.0176H6.59476L6.59674 52.0156V52.0176C6.59774 52.0176 6.59873 52.0186 6.59873 52.0196Z" fill="black"/>
<path d="M6.59964 52.0196V52.0216H6.60163V52.0196H6.59964ZM6.60361 52.0196V52.0216H6.60163H6.59964H6.59766V52.0196L6.59964 52.0176H6.60163H6.59964H6.59766H6.59964V52.0156C6.60063 52.0156 6.60163 52.0166 6.60163 52.0176C6.60262 52.0176 6.60361 52.0186 6.60361 52.0196Z" fill="black"/>
<path d="M6.60553 52.0176H6.60355C6.60454 52.0191 6.60553 52.0196 6.60553 52.0196V52.0216H6.60355H6.60156V52.0196V52.0216H6.60355L6.60553 52.0196H6.60355H6.60156V52.0176L6.60355 52.0156C6.60454 52.0156 6.60553 52.0166 6.60553 52.0176Z" fill="black"/>
<path d="M6.60944 52.0176H6.60745V52.0196V52.0216H6.60944V52.0196V52.0176ZM6.60944 52.0156V52.0176C6.61043 52.0176 6.61142 52.0186 6.61142 52.0196L6.60944 52.0216H6.60547V52.0196V52.0176C6.60646 52.0166 6.60795 52.0156 6.60944 52.0156Z" fill="black"/>
<path d="M6.61035 52.0171H6.61234V52.0191L6.61432 52.0171H6.61631L6.61432 52.0211H6.61234L6.61035 52.0171Z" fill="black"/>
<path d="M6.61823 52.0176H6.61624C6.61723 52.0191 6.61823 52.0196 6.61823 52.0196V52.0216H6.61624H6.61426V52.0196V52.0216H6.61624L6.61823 52.0196H6.61624H6.61426V52.0176L6.61624 52.0156C6.61723 52.0156 6.61823 52.0166 6.61823 52.0176Z" fill="black"/>
<path d="M6.61816 52.0156H6.62015V52.0176H6.62412L6.62213 52.0196L6.62412 52.0216H6.62213L6.62015 52.0196V52.0216H6.61816V52.0156Z" fill="black"/>
<path d="M6.62305 52.0171H6.62503V52.0191L6.62702 52.0171H6.629L6.62702 52.0211C6.62702 52.0221 6.62602 52.023 6.62503 52.023H6.62305V52.0211H6.62503L6.62305 52.0171Z" fill="black"/>
<path d="M6.62695 52.0176H6.62894V52.0216H6.62695V52.0176ZM6.62695 52.0156H6.62894H6.62695Z" fill="black"/>
<path d="M6.50397 52.022H6.50198V52.024H6.50397H6.50198V52.0279H6.5V52.022H6.50198H6.50397Z" fill="black"/>
<path d="M6.5069 52.024C6.50541 52.024 6.50491 52.0249 6.50491 52.0259V52.0279H6.50293V52.024H6.50491L6.5069 52.022V52.024Z" fill="black"/>
<path d="M6.50983 52.024H6.50784V52.0259V52.0279H6.50983V52.0259V52.024ZM6.50983 52.022V52.024C6.51082 52.024 6.51181 52.0249 6.51181 52.0259L6.50983 52.0279H6.50586V52.0259V52.024C6.50685 52.023 6.50834 52.022 6.50983 52.022Z" fill="black"/>
<path d="M6.51629 52.0238V52.022C6.51721 52.022 6.51813 52.0229 6.51813 52.0238V52.0257V52.0275V52.0257C6.51813 52.0247 6.51721 52.0238 6.51629 52.0238V52.0257V52.0275H6.51444V52.0257V52.0238H6.51259V52.0257V52.0275H6.51074V52.0238H6.51259L6.51444 52.022V52.0238H6.51629Z" fill="black"/>
<path d="M6.52152 52.022V52.024H6.5235H6.52152V52.0259H6.5235V52.0279H6.52152H6.51953V52.0259V52.022H6.52152Z" fill="black"/>
<path d="M6.52842 52.0259V52.0279H6.52643V52.0259V52.024H6.52445V52.0259V52.0279H6.52246V52.022H6.52445V52.024L6.52643 52.022V52.024C6.52742 52.024 6.52842 52.0249 6.52842 52.0259Z" fill="black"/>
<path d="M6.5333 52.0259H6.52933V52.0279H6.53131C6.53131 52.0269 6.53181 52.0259 6.5333 52.0259V52.0279H6.53131H6.52734V52.0259V52.024C6.52834 52.023 6.52982 52.022 6.53131 52.022V52.024C6.53231 52.024 6.5333 52.0249 6.5333 52.0259ZM6.53131 52.0259V52.024H6.52933V52.0259H6.53131Z" fill="black"/>
<path d="M6.53418 52.022H6.53616L6.54013 52.0259V52.022V52.0279H6.53815L6.53616 52.024V52.0279H6.53418V52.022Z" fill="black"/>
<path d="M6.54401 52.024H6.54202V52.0259V52.0279H6.54401V52.0259V52.024ZM6.54401 52.022V52.024C6.545 52.024 6.54599 52.0249 6.54599 52.0259L6.54401 52.0279H6.54004V52.0259V52.024C6.54103 52.023 6.54252 52.022 6.54401 52.022Z" fill="black"/>
<path d="M6.54492 52.0254V52.0234H6.54691V52.0254H6.54889V52.0234H6.55088V52.0274H6.54889H6.54691H6.54492V52.0254Z" fill="black"/>
<path d="M6.55576 52.0259V52.0279H6.55377V52.0259V52.024H6.55179V52.0259V52.0279H6.5498V52.024H6.55179L6.55377 52.022V52.024C6.55477 52.024 6.55576 52.0249 6.55576 52.0259Z" fill="black"/>
<path d="M6.55664 52.022H6.56061C6.5616 52.022 6.56259 52.023 6.56259 52.024L6.56061 52.0259H6.55863V52.0279H6.55664V52.022ZM6.55863 52.022V52.024H6.56061V52.022H6.55863Z" fill="black"/>
<path d="M6.56452 52.024C6.56303 52.024 6.56253 52.0249 6.56253 52.0259V52.0279H6.56055V52.024H6.56253L6.56452 52.022V52.024Z" fill="black"/>
<path d="M6.56842 52.024H6.56644V52.0259V52.0279H6.56842V52.0259V52.024ZM6.56842 52.022V52.024C6.56942 52.024 6.57041 52.0249 6.57041 52.0259L6.56842 52.0279H6.56445V52.0259V52.024C6.56545 52.023 6.56693 52.022 6.56842 52.022Z" fill="black"/>
<path d="M6.56934 52.0238H6.57118V52.0275C6.57118 52.0284 6.57026 52.0294 6.56934 52.0294V52.0238ZM6.56934 52.022H6.57118H6.56934Z" fill="black"/>
<path d="M6.57724 52.0259H6.57327V52.0279H6.57526C6.57526 52.0269 6.57575 52.0259 6.57724 52.0259V52.0279H6.57526H6.57129V52.0259V52.024C6.57228 52.023 6.57377 52.022 6.57526 52.022V52.024C6.57625 52.024 6.57724 52.0249 6.57724 52.0259ZM6.57526 52.0259V52.024H6.57327V52.0259H6.57526Z" fill="black"/>
<path d="M6.57916 52.024H6.57718V52.0259V52.0279H6.57916V52.0259V52.0279H6.5752V52.0259V52.024C6.57619 52.023 6.57768 52.022 6.57916 52.022V52.024Z" fill="black"/>
<path d="M6.58109 52.022V52.024H6.58307H6.58109V52.0259H6.58307V52.0279H6.58109H6.5791V52.0259V52.022H6.58109Z" fill="black"/>
</svg>
