<svg width="44" height="49" viewBox="0 0 44 49" fill="none" xmlns="http://www.w3.org/2000/svg">
<path d="M11.2838 0C9.97976 0 8.90234 1.07741 8.90234 2.38142V10.0927C8.90234 11.3967 9.97976 12.4741 11.2838 12.4741C12.5878 12.4741 13.6652 11.3967 13.6652 10.0927V2.38183C13.6652 1.07741 12.6448 0.000101195 11.2838 0.000101195V0Z" fill="#2C6B77"/>
<path d="M32.7174 0C31.4133 0 30.3359 1.07741 30.3359 2.38142V10.0927C30.3359 11.3967 31.4133 12.4741 32.7174 12.4741C34.0214 12.4741 35.0988 11.3967 35.0988 10.0927V2.38183C35.0988 1.07741 34.0214 0.000101195 32.7174 0.000101195V0Z" fill="#2C6B77"/>
<path d="M36.7423 6.2373H36.2321V10.0927C36.2321 12.0775 34.6445 13.665 32.6599 13.665C30.6752 13.665 29.0876 12.0774 29.0876 10.0927V6.2373H14.8558V10.0927C14.8558 12.0775 13.2682 13.665 11.2836 13.665C9.29883 13.665 7.71132 12.0774 7.71132 10.0927V6.2373H7.25767C3.23173 6.2373 0 9.52593 0 13.495V41.7318C0 45.7578 3.28863 48.9895 7.25767 48.9895H36.7419C40.7679 48.9895 43.9996 45.7009 43.9996 41.7318L44 13.495C44 9.46944 40.7679 6.2373 36.7423 6.2373H36.7423ZM40.4276 41.7318C40.4276 43.773 38.7835 45.4172 36.7423 45.4172L7.25803 45.4176C5.21681 45.4176 3.5727 43.7734 3.5727 41.7322V16.6139H40.4847L40.4276 41.7318Z" fill="#2C6B77"/>
<path d="M24.21 31.8657C24.3235 31.6391 24.3235 31.3555 24.3235 31.1285C24.3235 30.2782 23.8133 29.4844 23.0761 29.0873V23.0205C23.0761 22.4534 22.6224 21.9431 21.9987 21.9431C21.4315 21.9431 20.9212 22.3968 20.9212 23.0205V29.0877C20.1275 29.4848 19.6738 30.2786 19.6738 31.1289C19.6738 32.4329 20.6942 33.4537 21.9987 33.4537C22.2253 33.4537 22.4523 33.3972 22.6789 33.3402L28.2355 38.8968C28.4056 39.1234 28.6891 39.1803 28.9727 39.1803C29.2563 39.1803 29.5399 39.0668 29.7099 38.8968C30.107 38.4997 30.107 37.8194 29.7099 37.4227L24.21 31.8657Z" fill="#2C6B77"/>
<path d="M21.9993 21.6033C22.5665 21.6033 23.0767 21.1496 23.0767 20.5259V18.9383C23.0767 18.3711 22.623 17.8608 21.9993 17.8608C21.4321 17.8608 20.9219 18.3145 20.9219 18.9383V20.5259C20.9788 21.0926 21.4321 21.6033 21.9993 21.6033Z" fill="#2C6B77"/>
<path d="M21.9993 40.7112C21.4321 40.7112 20.9219 41.1648 20.9219 41.7886V43.3762C20.9219 43.9434 21.3755 44.4536 21.9993 44.4536C22.5665 44.4536 23.0767 44 23.0767 43.3762V41.7886C23.0767 41.1649 22.5665 40.7112 21.9993 40.7112Z" fill="#2C6B77"/>
<path d="M34.1904 30.1082H32.6028C32.0356 30.1082 31.5254 30.5618 31.5254 31.1856C31.5254 31.7527 31.979 32.263 32.6028 32.263H34.1904C34.7576 32.263 35.2678 31.8093 35.2678 31.1856C35.2678 30.5618 34.7576 30.1082 34.1904 30.1082Z" fill="#2C6B77"/>
<path d="M11.3974 30.1082H9.80983C9.24267 30.1082 8.73242 30.5618 8.73242 31.1856C8.73242 31.7527 9.18608 32.263 9.80983 32.263H11.3974C11.9646 32.263 12.4749 31.8093 12.4749 31.1856C12.4179 30.5618 11.9643 30.1082 11.3974 30.1082Z" fill="#2C6B77"/>
</svg>
