<svg width="37" height="48" viewBox="0 0 37 48" fill="none" xmlns="http://www.w3.org/2000/svg">
<path d="M36.1106 38.4631L28.5746 31.5849C27.5314 30.6379 25.7922 30.4387 24.5169 31.1364L19.6477 33.8277C16.9809 31.2859 15.0684 29.0929 13.2132 25.7535C11.1841 22.1649 10.4887 19.4736 9.90877 16.2338L15.3579 14.6387C16.8071 14.24 17.7347 12.9442 17.5026 11.6481L15.9956 2.37762C15.7056 0.732857 13.8508 -0.31363 11.9956 0.0847434L4.74959 1.67984C3.06871 2.0289 1.73513 3.17517 1.27128 4.57063C0.807481 6.01585 0.285869 7.90999 0.112015 9.25579C-0.467834 15.3862 1.21352 22.4637 4.92339 29.1424C8.63337 35.8211 13.9664 41.3535 19.8792 44.8424C21.2124 45.64 23.2414 46.4375 24.8645 47.0355C26.4876 47.6335 28.3428 47.4343 29.7338 46.4873L35.6466 42.55C37.2697 41.5532 37.4436 39.6595 36.1104 38.4632L36.1106 38.4631Z" fill="#FBFBFB"/>
</svg>
