<svg width="45" height="45" viewBox="0 0 45 45" fill="none" xmlns="http://www.w3.org/2000/svg">
<rect width="45" height="45" fill="white"/>
<path d="M26.3741 29.5237C26.3741 31.5212 24.7549 33.1405 22.7574 33.1405C20.7599 33.1405 19.1406 31.5212 19.1406 29.5237C19.1406 27.5262 20.7599 25.907 22.7574 25.907C24.7549 25.907 26.3741 27.5262 26.3741 29.5237Z" fill="#2C6B77"/>
<path d="M24.3254 34.0796L24.8863 34.1985C25.2559 34.2791 25.6256 34.0624 25.7407 33.7055L25.915 33.1615C25.9873 32.9362 26.1658 32.7577 26.3911 32.6854L26.9351 32.511C27.2965 32.3963 27.5087 32.0266 27.4281 31.6566L27.3092 31.0958C27.2582 30.8621 27.3261 30.6241 27.4835 30.4456L27.866 30.0205C28.1209 29.7401 28.1209 29.3108 27.866 29.0303L27.4835 28.6052C27.3264 28.4309 27.2582 28.1887 27.3092 27.9551L27.4322 27.3942C27.5129 27.0245 27.2962 26.6548 26.9392 26.5398L26.3952 26.3655C26.1699 26.2931 25.9915 26.1147 25.9191 25.8894L25.7448 25.3454C25.6301 24.984 25.2604 24.7717 24.8904 24.8524L24.3295 24.9712C24.0959 25.0222 23.8579 24.9543 23.6794 24.7969L23.2543 24.4145C22.9738 24.1595 22.5445 24.1595 22.2641 24.4145L21.839 24.7969C21.6647 24.954 21.4224 25.0222 21.1888 24.9712L20.6279 24.8524C20.2583 24.7717 19.8886 24.9884 19.7735 25.3454L19.5992 25.8894C19.5269 26.1147 19.3484 26.2931 19.1231 26.3655L18.5791 26.5398C18.2177 26.6545 18.0055 27.0242 18.0861 27.3942L18.205 27.9551C18.256 28.1887 18.1881 28.4267 18.0307 28.6052L17.6482 29.0303C17.3933 29.3108 17.3933 29.74 17.6482 30.0205L18.0307 30.4456C18.1878 30.6199 18.256 30.8621 18.205 31.0958L18.082 31.6528C18.0013 32.0225 18.218 32.3922 18.575 32.5072L19.119 32.6815C19.3443 32.7538 19.5227 32.9323 19.5951 33.1576L19.7694 33.7016C19.8841 34.063 20.2538 34.2753 20.6238 34.1946L21.1847 34.0757C21.4183 34.0248 21.6564 34.0926 21.8348 34.2501L22.2599 34.6325C22.5404 34.8874 22.9697 34.8874 23.2501 34.6325L23.6752 34.2501C23.8537 34.0923 24.0959 34.0286 24.3254 34.0796ZM22.7571 33.5101C21.6904 33.5101 20.6917 33.0936 19.9393 32.3415C19.1872 31.5894 18.7707 30.5862 18.7707 29.5237C18.7707 28.457 19.1872 27.4583 19.9393 26.7059C20.6914 25.9537 21.6946 25.5373 22.7571 25.5373C23.8238 25.5373 24.8225 25.9538 25.5749 26.7059C26.327 27.458 26.7435 28.4612 26.7435 29.5237C26.7435 30.5904 26.327 31.5891 25.5749 32.3415C24.8225 33.0936 23.8238 33.5101 22.7571 33.5101Z" fill="#2C6B77"/>
<path d="M21.466 34.6663C21.4319 34.6366 21.3895 34.6194 21.3427 34.6194C21.33 34.6194 21.3172 34.6194 21.3045 34.6236L20.7436 34.7424C20.6543 34.7638 20.561 34.7721 20.4714 34.7721C19.9743 34.7721 19.5322 34.4916 19.3156 34.0582L17.501 39.0476L19.3156 38.1294L20.1145 39.9995L21.9081 35.0659C21.8995 35.0617 21.8953 35.0531 21.8867 35.049L21.466 34.6663Z" fill="#2C6B77"/>
<path d="M23.9511 6H13.5469C12.7352 6 12 6.62908 12 7.44075V33.1874C12 33.9991 12.7352 34.6919 13.5469 34.6919H18.579L19.0296 33.4468H14.2439C13.704 33.4468 13.2366 33.0217 13.2366 32.4821V8.14253C13.2366 7.60268 13.7041 7.14795 14.2439 7.14795H23.9506V14.0542C23.9506 14.8618 24.6944 15.5629 25.5019 15.5629H32.3699V32.4862C32.3699 33.0261 31.9575 33.4509 31.4221 33.4509L26.4838 33.4512L26.9344 34.6963H32.1194C32.9311 34.6963 33.5133 34.0035 33.5133 33.1918L33.513 15.5247L23.9511 6Z" fill="#2C6B77"/>
<path d="M25.0436 34.7809C24.9544 34.7809 24.861 34.7681 24.7715 34.7468L24.2106 34.6235C24.1978 34.6193 24.1851 34.6193 24.1723 34.6193C24.1255 34.6193 24.0831 34.6362 24.049 34.6662L23.6239 35.0486C23.6197 35.0527 23.6111 35.0613 23.6025 35.0655L25.4005 40L26.1994 38.13L28.014 39.0481L26.1994 34.0585C25.9827 34.4963 25.5366 34.7809 25.0436 34.7809L25.0436 34.7809Z" fill="#2C6B77"/>
</svg>
