<svg width="60" height="60" viewBox="0 0 60 60" fill="none" xmlns="http://www.w3.org/2000/svg">
<rect width="60" height="60" fill="white"/>
<path d="M34.0402 38.5232C34.0402 41.0301 32.008 43.0623 29.5011 43.0623C26.9941 43.0623 24.9619 41.0301 24.9619 38.5232C24.9619 36.0162 26.9941 33.984 29.5011 33.984C32.008 33.984 34.0402 36.0162 34.0402 38.5232Z" fill="#1b116d"/>
<path d="M31.4686 44.2409L32.1726 44.3901C32.6365 44.4913 33.1005 44.2193 33.2449 43.7714L33.4637 43.0886C33.5544 42.8058 33.7784 42.5819 34.0612 42.4911L34.7439 42.2723C35.1975 42.1283 35.4639 41.6644 35.3627 41.2L35.2135 40.4961C35.1495 40.2029 35.2347 39.9041 35.4322 39.6801L35.9122 39.1466C36.2322 38.7946 36.2322 38.2559 35.9122 37.9039L35.4322 37.3703C35.2351 37.1516 35.1495 36.8476 35.2135 36.5544L35.3679 35.8505C35.4691 35.3865 35.1971 34.9225 34.7491 34.7782L34.0664 34.5594C33.7836 34.4686 33.5596 34.2446 33.4689 33.9619L33.2501 33.2791C33.1061 32.8256 32.6421 32.5592 32.1778 32.6604L31.4738 32.8096C31.1807 32.8736 30.8819 32.7884 30.6579 32.5908L30.1244 32.1108C29.7724 31.7909 29.2336 31.7909 28.8817 32.1108L28.3481 32.5908C28.1293 32.788 27.8254 32.8736 27.5322 32.8096L26.8282 32.6604C26.3643 32.5592 25.9003 32.8312 25.7559 33.2791L25.5372 33.9619C25.4464 34.2446 25.2224 34.4686 24.9396 34.5594L24.2569 34.7782C23.8034 34.9222 23.537 35.3861 23.6382 35.8505L23.7874 36.5544C23.8514 36.8476 23.7661 37.1464 23.5686 37.3703L23.0886 37.9039C22.7686 38.2559 22.7686 38.7946 23.0886 39.1466L23.5686 39.6801C23.7658 39.8989 23.8514 40.2029 23.7874 40.4961L23.6329 41.1952C23.5317 41.6591 23.8037 42.1231 24.2517 42.2675L24.9344 42.4862C25.2172 42.577 25.4412 42.801 25.532 43.0838L25.7507 43.7665C25.8947 44.2201 26.3587 44.4865 26.823 44.3853L27.527 44.2361C27.8202 44.1721 28.1189 44.2573 28.3429 44.4548L28.8765 44.9348C29.2284 45.2548 29.7672 45.2548 30.1192 44.9348L30.6527 44.4548C30.8767 44.2569 31.1807 44.1769 31.4686 44.2409ZM29.5004 43.5262C28.1617 43.5262 26.9082 43.0034 25.964 42.0595C25.02 41.1156 24.4973 39.8565 24.4973 38.5231C24.4973 37.1844 25.0201 35.9309 25.964 34.9866C26.9079 34.0427 28.167 33.52 29.5004 33.52C30.8391 33.52 32.0926 34.0427 33.0369 34.9866C33.9808 35.9305 34.5035 37.1896 34.5035 38.5231C34.5035 39.8618 33.9808 41.1152 33.0369 42.0595C32.0926 43.0035 30.8391 43.5262 29.5004 43.5262Z" fill="#1b116d"/>
<path d="M27.8806 44.9772C27.8378 44.94 27.7846 44.9184 27.7258 44.9184C27.7098 44.9184 27.6938 44.9184 27.6778 44.9236L26.9739 45.0728C26.8619 45.0996 26.7447 45.11 26.6323 45.11C26.0084 45.11 25.4536 44.7581 25.1817 44.2141L22.9043 50.4759L25.1817 49.3236L26.1844 51.6706L28.4354 45.4787C28.4246 45.4735 28.4194 45.4627 28.4086 45.4575L27.8806 44.9772Z" fill="#1b116d"/>
<path d="M30.999 9H17.9414C16.9228 9 16 9.78952 16 10.8082V43.1211C16 44.1398 16.9227 45.0093 17.9414 45.0093H24.2569L24.8224 43.4467H18.8162C18.1386 43.4467 17.5519 42.9132 17.5519 42.236V11.689C17.5519 11.0114 18.1387 10.4407 18.8162 10.4407H30.9984V19.1083C30.9984 20.1218 31.9319 21.0017 32.9454 21.0017H41.5649V42.2411C41.5649 42.9187 41.0474 43.4518 40.3755 43.4518L34.1777 43.4522L34.7432 45.0149H41.2506C42.2693 45.0149 43 44.1453 43 43.1267L42.9996 20.9538L30.999 9Z" fill="#1b116d"/>
<path d="M32.3701 45.121C32.2581 45.121 32.1409 45.105 32.0286 45.0782L31.3246 44.9235C31.3086 44.9182 31.2926 44.9182 31.2766 44.9182C31.2178 44.9182 31.1646 44.9395 31.1219 44.977L30.5883 45.457C30.5831 45.4622 30.5723 45.473 30.5615 45.4782L32.818 51.6712L33.8207 49.3242L36.0981 50.4765L33.8207 44.2144C33.5487 44.7639 32.9888 45.1211 32.3701 45.1211L32.3701 45.121Z" fill="#1b116d"/>
</svg>
