<svg width="30" height="47" viewBox="0 0 30 47" fill="none" xmlns="http://www.w3.org/2000/svg">
<path d="M19.8693 32.518C19.8693 35.2793 17.631 37.5176 14.8697 37.5176C12.1085 37.5176 9.87012 35.2793 9.87012 32.518C9.87012 29.7568 12.1085 27.5184 14.8697 27.5184C17.631 27.5184 19.8693 29.7568 19.8693 32.518Z" fill="#2C6B77"/>
<path d="M17.0394 38.8159L17.8147 38.9803C18.3257 39.0917 18.8368 38.7922 18.9958 38.2988L19.2368 37.5468C19.3367 37.2353 19.5834 36.9886 19.8949 36.8886L20.6469 36.6476C21.1464 36.489 21.4399 35.978 21.3284 35.4666L21.1641 34.6912C21.0936 34.3683 21.1874 34.0392 21.405 33.7925L21.9337 33.2048C22.2861 32.8172 22.2861 32.2238 21.9337 31.8361L21.405 31.2484C21.1878 31.0074 21.0936 30.6726 21.1641 30.3497L21.3341 29.5744C21.4456 29.0633 21.146 28.5523 20.6526 28.3933L19.9006 28.1523C19.5892 28.0523 19.3425 27.8056 19.2425 27.4942L19.0015 26.7422C18.8429 26.2426 18.3319 25.9492 17.8204 26.0607L17.0451 26.225C16.7222 26.2955 16.3931 26.2016 16.1464 25.984L15.5587 25.4554C15.171 25.1029 14.5776 25.1029 14.19 25.4554L13.6023 25.984C13.3613 26.2012 13.0265 26.2955 12.7036 26.225L11.9282 26.0607C11.4172 25.9492 10.9062 26.2488 10.7472 26.7422L10.5062 27.4942C10.4062 27.8056 10.1595 28.0523 9.84804 28.1523L9.09605 28.3933C8.59649 28.5519 8.30307 29.0629 8.41454 29.5744L8.57887 30.3497C8.64936 30.6726 8.55551 31.0017 8.3379 31.2484L7.80925 31.8361C7.45681 32.2238 7.45681 32.8172 7.80925 33.2048L8.3379 33.7925C8.5551 34.0335 8.64936 34.3683 8.57887 34.6912L8.4088 35.4612C8.29733 35.9723 8.5969 36.4833 9.09031 36.6423L9.84231 36.8833C10.1538 36.9833 10.4005 37.23 10.5005 37.5414L10.7414 38.2934C10.9 38.793 11.411 39.0864 11.9225 38.9749L12.6978 38.8106C13.0208 38.7401 13.3498 38.834 13.5966 39.0516L14.1842 39.5802C14.5719 39.9327 15.1653 39.9327 15.553 39.5802L16.1406 39.0516C16.3874 38.8336 16.7222 38.7454 17.0394 38.8159ZM14.8715 38.0287C13.397 38.0287 12.0164 37.4529 10.9763 36.4133C9.93659 35.3736 9.36086 33.9868 9.36086 32.5181C9.36086 31.0436 9.93664 29.6629 10.9763 28.6229C12.016 27.5832 13.4027 27.0074 14.8715 27.0074C16.346 27.0074 17.7266 27.5832 18.7667 28.6229C19.8064 29.6625 20.3821 31.0493 20.3821 32.5181C20.3821 33.9926 19.8063 35.3732 18.7667 36.4133C17.7266 37.453 16.346 38.0287 14.8715 38.0287Z" fill="#2C6B77"/>
<path d="M13.0846 39.6266C13.0375 39.5857 12.9789 39.5619 12.9141 39.5619C12.8965 39.5619 12.8789 39.5619 12.8613 39.5676L12.0859 39.732C11.9625 39.7615 11.8335 39.7729 11.7097 39.7729C11.0225 39.7729 10.4114 39.3853 10.1119 38.7861L7.60352 45.6831L10.1119 44.4139L11.2163 46.999L13.6957 40.179C13.6838 40.1733 13.678 40.1614 13.6662 40.1557L13.0846 39.6266Z" fill="#2C6B77"/>
<path d="M16.5205 0H2.13839C1.01637 0 0 0.869612 0 1.99162V37.5825C0 38.7045 1.01632 39.6622 2.13839 39.6622H9.09447L9.71737 37.941H3.10183C2.35557 37.941 1.70936 37.3534 1.70936 36.6075V2.96172C1.70936 2.21547 2.35562 1.58687 3.10183 1.58687H16.5199V11.1337C16.5199 12.2501 17.5481 13.2192 18.6643 13.2192H28.1583V36.6132C28.1583 37.3594 27.5883 37.9467 26.8482 37.9467L20.0217 37.9471L20.6446 39.6683H27.812C28.9341 39.6683 29.7389 38.7106 29.7389 37.5885L29.7385 13.1664L16.5205 0Z" fill="#2C6B77"/>
<path d="M18.0311 39.7853C17.9078 39.7853 17.7787 39.7676 17.6549 39.7381L16.8796 39.5677C16.862 39.5619 16.8443 39.5619 16.8267 39.5619C16.762 39.5619 16.7034 39.5853 16.6562 39.6267L16.0686 40.1553C16.0628 40.1611 16.0509 40.1729 16.0391 40.1787L18.5245 46.9999L19.6289 44.4149L22.1373 45.6841L19.6289 38.7866C19.3293 39.3919 18.7126 39.7853 18.0311 39.7853L18.0311 39.7853Z" fill="#2C6B77"/>
</svg>
