<svg width="55" height="55" viewBox="0 0 55 55" fill="none" xmlns="http://www.w3.org/2000/svg">
<path d="M53.4765 15.6157L28.4543 0.271228C28.1677 0.0939876 27.8374 0 27.5001 0C27.1629 0 26.8326 0.0939905 26.546 0.271228L1.52079 15.6157V15.616C1.09571 15.6897 0.710517 15.9107 0.432372 16.2402C0.154227 16.5698 0.00114912 16.9868 0 17.418V19.2514C0.00191824 19.9035 0.351423 20.5051 0.916542 20.8296V42.4222C0.351423 42.7467 0.00191519 43.3483 0 44.0004V53.1666C0 53.6531 0.192973 54.1192 0.537118 54.4629C0.880871 54.807 1.34701 55 1.83346 55H53.1665C53.653 55 54.1191 54.807 54.4629 54.4629C54.807 54.1192 55 53.6531 55 53.1666V44.0004C54.9981 43.3483 54.6486 42.7467 54.0835 42.4222V20.8296C54.6486 20.505 54.9981 19.9035 55 19.2514V17.418C54.9989 16.9864 54.8454 16.569 54.5669 16.2394C54.2879 15.9095 53.902 15.6889 53.4765 15.616L53.4765 15.6157ZM46.75 42.1669V25.6675H52.25V42.1669H46.75ZM37.5834 53.1665H28.4164V21.085H37.5834V53.1665ZM2.74942 25.6675H8.24946V42.1669H2.74942V25.6675ZM10.0829 25.6675H15.583V42.1669H10.0829V25.6675ZM15.583 23.8341L2.74923 23.8345V21.0846H15.583V23.8341ZM1.83288 19.2512V17.4178H53.166V19.2512H1.83288ZM26.5831 15.5848H15.7814L26.5831 3.34286V15.5848ZM28.4162 3.34286L39.2179 15.5848H28.4162V3.34286ZM41.6634 15.5848L31.9282 4.55184L49.9193 15.5848H41.6634ZM13.3382 15.5848H5.07967L23.0776 4.54496L13.3382 15.5848ZM39.4162 25.6671H44.9163V42.1665H39.4162V25.6671ZM52.25 23.8337L39.4162 23.8341V21.0842H52.25V23.8337ZM1.83327 44.0003H15.5834V53.1665H1.83327V44.0003ZM17.4171 43.0838L17.4167 21.0846H26.5837V53.1661H17.4167L17.4171 43.0838ZM39.4172 53.1661V43.9999H53.1673V53.1661H39.4172Z" fill="#2C6B77"/>
</svg>
