<svg width="46" height="46" viewBox="0 0 46 46" fill="none" xmlns="http://www.w3.org/2000/svg">
<path d="M23.0001 0.000153682C35.6797 0.000153682 46 10.3423 46 23.0506V23.0817C46 23.0995 45.9993 23.1172 45.9986 23.1349L46 23.0506C46 23.0904 45.9989 23.1299 45.9967 23.1693C45.9967 23.1776 45.996 23.1859 45.9957 23.1946C45.6253 28.7474 41.6264 33.2663 37.0875 33.2663C35.1274 33.2663 33.263 32.4281 31.8429 30.909C31.5249 30.5693 31.2339 30.2017 30.9711 29.8107C29.0464 32.045 26.1875 33.4628 23.0004 33.4628C17.2154 33.4628 12.511 28.7916 12.511 23.0466C12.511 17.2488 17.2195 12.5341 23.0004 12.5341C25.345 12.5341 27.5122 13.3087 29.2608 14.616C29.3341 13.513 30.2491 12.6386 31.3726 12.6386C32.5443 12.6386 33.4897 13.5904 33.4897 14.7603V23.0463C33.4897 23.3032 33.4799 23.5579 33.4615 23.81C33.4749 25.4832 34.0077 27.0219 34.9314 28.0099C35.3624 28.4726 36.0901 29.0229 37.0832 29.0229C39.3584 29.0229 41.5423 26.175 41.765 22.9191L41.7657 23.0508C41.7657 12.6827 33.3456 4.24384 23.0001 4.24384C12.6548 4.24384 4.23438 12.6781 4.23438 23.0508C4.23438 33.367 12.6545 41.7568 23.0001 41.7568C27.064 41.7568 31.0845 40.4034 34.3249 37.9412C35.2573 37.2383 36.5857 37.413 37.2957 38.3515C38.0014 39.2859 37.8141 40.6172 36.8863 41.3245C32.9138 44.3413 27.9828 46 22.9999 46C10.3194 46 0 35.7014 0 23.0505C0 10.3421 10.3194 0 22.9999 0L23.0001 0.000153682ZM23.0001 16.7816C19.5499 16.7816 16.7448 19.5929 16.7448 23.0507C16.7448 26.4514 19.5499 29.2236 23.0001 29.2236C26.2626 29.2236 28.9486 26.748 29.2306 23.5992C29.2316 23.3799 29.2396 23.16 29.2533 22.9386L29.2551 23.0507C29.2551 19.5929 26.45 16.7817 23.0001 16.7817L23.0001 16.7816Z" fill="#FEFCFC"/>
</svg>
