<svg width="47" height="46" viewBox="0 0 47 46" fill="none" xmlns="http://www.w3.org/2000/svg">
<path d="M31.5935 44.2472H22.6625H11.8287C11.2373 44.2472 10.6656 44.2077 10.1135 43.922C9.06863 43.3798 8.45736 42.3445 8.43773 41.1718C8.42776 40.2648 8.43773 39.3579 8.43773 38.4413V25.7838C8.43773 22.6885 8.50684 19.5735 8.43773 16.4779V16.3201C8.43773 15.364 6.95898 15.364 6.95898 16.3201V24.3639V37.583V41.0136C6.96895 43.5667 8.8713 45.6663 11.4739 45.7058C14.5593 45.755 17.6546 45.7058 20.7402 45.7058H31.3865H31.5836C32.5397 45.7254 32.5497 44.2467 31.5935 44.2467L31.5935 44.2472Z" fill="#2C6B77"/>
<path d="M1.25991 22.3533C4.18783 19.958 7.12535 17.5723 10.0528 15.177C14.6764 11.3913 19.3094 7.60588 23.9426 3.8309C24.9973 2.97343 26.0522 2.10562 27.107 1.24817H26.0622C29.6405 4.08737 33.2189 6.91619 36.7974 9.7554C37.31 10.1597 37.8226 10.5737 38.3452 10.9777C38.6609 11.2242 39.0844 11.2833 39.3901 10.9777C39.6462 10.7215 39.7057 10.1793 39.3901 9.93284C35.8017 7.09363 32.2233 4.25478 28.6451 1.42561C28.1325 1.02128 27.6199 0.607336 27.0973 0.203336C26.7621 -0.0627698 26.3877 -0.0727419 26.0525 0.203336C23.1249 2.58873 20.1971 4.98434 17.2691 7.37968C12.6359 11.1651 8.00286 14.9404 3.37941 18.7258C2.32463 19.5832 1.26976 20.451 0.214986 21.3085C-0.100629 21.5646 -0.0411568 22.0872 0.214986 22.3533C0.511009 22.6593 0.954519 22.6002 1.26017 22.3537L1.25991 22.3533Z" fill="#2C6B77"/>
<path d="M43.8849 35.2767C43.8553 37.9085 42.071 40.2451 39.5081 40.8856C36.9354 41.5361 34.2144 40.2943 32.9723 37.9678C31.6613 35.5133 32.3709 32.3293 34.5988 30.6532C35.0127 30.3376 35.5154 30.1801 35.5453 29.5884C35.5553 29.4406 35.5453 29.2927 35.5453 29.1449V27.0944V21.3968C35.5453 20.2434 35.3088 18.7058 35.9692 17.6902C36.6888 16.5958 38.1871 16.2314 39.3306 16.8819C40.208 17.3749 40.6319 18.262 40.6319 19.2477C40.6419 20.6769 40.6319 22.1165 40.6319 23.5457V28.7997C40.6319 29.1841 40.5432 29.7659 40.7897 30.0911C40.9967 30.3672 41.3811 30.505 41.6572 30.722C41.9333 30.9389 42.1798 31.1854 42.4163 31.4416C42.8798 31.9542 43.2542 32.5555 43.4907 33.1964C43.7565 33.8672 43.8748 34.5573 43.8847 35.2769C43.8947 36.2234 45.3731 36.233 45.3635 35.2769C45.3339 32.6941 43.9735 30.3284 41.7555 28.9975C41.8738 29.2144 42.0021 29.4214 42.1203 29.6383C42.1203 26.1291 42.1795 22.6198 42.1203 19.1099C42.0808 17.0203 40.5037 15.285 38.4137 15.0977C36.531 14.9302 34.7467 16.192 34.234 17.996C34.0271 18.7056 34.0762 19.4648 34.0762 20.1944V23.4967V29.6479C34.1945 29.4309 34.3228 29.2239 34.441 29.007C30.8035 31.1758 29.6896 36.1538 32.2527 39.5944C34.6875 42.8475 39.4094 43.498 42.6033 40.9745C44.3481 39.6044 45.3338 37.4948 45.3534 35.2865C45.373 34.3304 43.8947 34.3207 43.8846 35.2768L43.8849 35.2767Z" fill="#2C6B77"/>
<path d="M39.6061 35.5725C39.6061 36.4056 38.9309 37.0809 38.0978 37.0809C37.2651 37.0809 36.5898 36.4056 36.5898 35.5725C36.5898 34.7395 37.2651 34.0642 38.0978 34.0642C38.9309 34.0642 39.6061 34.7395 39.6061 35.5725Z" fill="#2C6B77"/>
<path d="M38.8776 35.5724C38.8284 36.5681 37.3298 36.5781 37.3298 35.5724C37.3298 34.5668 38.828 34.5768 38.8776 35.5724C38.9171 36.5189 40.3955 36.5285 40.3564 35.5724C40.2972 34.3502 39.3707 33.325 38.1089 33.325C36.8767 33.325 35.8614 34.3502 35.8614 35.5724C35.8514 36.7947 36.8966 37.8199 38.1089 37.8199C39.3707 37.8199 40.3072 36.7847 40.3564 35.5724C40.3955 34.6163 38.9169 34.6259 38.8776 35.5724Z" fill="#2C6B77"/>
<path d="M43.7969 17.3945H46.7544V19.4842H43.7969V17.3945Z" fill="#2C6B77"/>
<path d="M46.7528 19.2376H43.7953C43.8741 19.3163 43.9628 19.405 44.0419 19.4841V17.3945L43.7953 17.641H46.7528L46.5063 17.3945V19.4841C46.5063 19.7997 46.9994 19.7997 46.9994 19.4841V17.3945C46.9994 17.2566 46.891 17.1479 46.7528 17.1479H43.7953C43.6575 17.1479 43.5488 17.2563 43.5488 17.3945V19.4841C43.5488 19.622 43.6571 19.7306 43.7953 19.7306H46.7528C47.0685 19.7306 47.0685 19.2376 46.7528 19.2376V19.2376Z" fill="#2C6B77"/>
<path d="M43.7969 21.0227H46.7544V23.1124H43.7969V21.0227Z" fill="#2C6B77"/>
<path d="M46.7528 22.8655H43.7953C43.8741 22.9443 43.9628 23.033 44.0419 23.1121V21.0224L43.7953 21.2689H46.7528L46.5063 21.0224V23.1121C46.5063 23.4277 46.9994 23.4277 46.9994 23.1121V21.0224C46.9994 20.8845 46.891 20.7759 46.7528 20.7759H43.7953C43.6575 20.7759 43.5488 20.8842 43.5488 21.0224V23.1121C43.5488 23.2499 43.6571 23.3586 43.7953 23.3586H46.7528C47.0685 23.3582 47.0685 22.8655 46.7528 22.8655V22.8655Z" fill="#2C6B77"/>
<path d="M43.7969 24.729H46.7544V26.8187H43.7969V24.729Z" fill="#2C6B77"/>
<path d="M46.7528 26.5718H43.7953C43.8741 26.6506 43.9628 26.7393 44.0419 26.8184V24.7287L43.7953 24.9752H46.7528C46.6741 24.8965 46.5854 24.8078 46.5063 24.7287V26.8184C46.5063 27.134 46.9994 27.134 46.9994 26.8184V24.7287C46.9994 24.5908 46.891 24.4822 46.7528 24.4822H43.7953C43.6575 24.4822 43.5488 24.5905 43.5488 24.7287V26.8184C43.5488 26.9562 43.6571 27.0649 43.7953 27.0649H46.7528C47.0685 27.0649 47.0685 26.5718 46.7528 26.5718V26.5718Z" fill="#2C6B77"/>
</svg>
