<svg width="96" height="54" viewBox="0 0 96 54" fill="none" xmlns="http://www.w3.org/2000/svg">
<path d="M44.2094 27.5079L42.7401 28.746C42.5203 28.9316 42.19 28.9064 42.0018 28.6896C41.8135 28.4729 41.8392 28.1472 42.0589 27.9615L42.2559 27.7954C41.719 27.8373 41.1866 27.8481 40.6489 27.8293L40.386 28.041C40.1619 28.2208 39.8323 28.1876 39.6499 27.9658C39.5957 27.9001 39.5612 27.8257 39.5444 27.7484C37.7382 27.5534 35.8323 27.0441 33.4907 26.2784L26.7119 24.0631L26.7075 24.0609L4.9152 16.7826L4.89469 16.7746C4.05529 16.4532 3.32577 16.0653 2.86134 15.6203C2.63648 15.405 2.46801 15.1724 2.36913 14.9232C2.24828 15.1414 2.17943 15.361 2.1721 15.5748C2.16258 15.8558 2.26292 16.1404 2.49658 16.4091C2.82911 16.792 3.41654 17.143 4.31819 17.4197L38.366 28.8314L50.1695 32.8079H50.1702L50.1724 32.8087L58.0917 35.4771C58.1356 35.4807 58.1796 35.4894 58.2228 35.5045C58.3664 35.5536 58.5092 35.6078 58.652 35.6663L71.484 39.9896L71.4884 39.9918C75.9102 41.5196 76.075 41.3744 78.0973 37.9171C78.1054 37.8767 78.1193 37.8362 78.1383 37.7972C78.1698 37.7329 78.2123 37.678 78.2636 37.6333L79.0114 36.3547C79.018 36.2998 79.0334 36.2456 79.059 36.1936C79.0971 36.1149 79.1521 36.0506 79.218 36.0022L79.9592 34.7344C79.9673 34.6933 79.9805 34.6528 79.9995 34.6138C80.031 34.5474 80.0757 34.491 80.1284 34.4455L84.6652 26.6903C84.6718 26.678 84.6784 26.6664 84.6857 26.6549L85.5895 25.1097C85.5976 25.0939 85.6064 25.0787 85.6166 25.0642L88.515 20.1111L88.8138 19.5983C88.1656 19.8865 87.4793 20.0418 86.7923 20.1104L75.6509 38.6081C75.5037 38.8537 75.1821 38.9353 74.9331 38.7901C74.6841 38.645 74.6013 38.3278 74.7485 38.0823L85.5486 20.1521C85.2337 20.1434 84.9231 20.1224 84.6206 20.0928L73.2998 37.9045C73.1467 38.1457 72.8244 38.2194 72.5798 38.0685C72.3351 37.9175 72.2604 37.5996 72.4135 37.3584L83.4788 19.9484C83.2283 19.9108 82.988 19.8711 82.7617 19.8342L82.6028 19.8082L70.9508 37.2031C70.7911 37.4408 70.4659 37.5065 70.2249 37.349C69.9839 37.1915 69.9173 36.8708 70.077 36.6332L81.455 19.6472C81.154 19.6103 80.8559 19.5764 80.5599 19.5439L68.6012 36.5003C68.4357 36.735 68.109 36.7928 67.871 36.6296C67.6329 36.4663 67.5743 36.1442 67.7398 35.9094L79.3676 19.4218C79.0607 19.3929 78.7568 19.3669 78.4557 19.3423L66.25 35.7961C66.0794 36.0265 65.7512 36.0756 65.5176 35.9073C65.2839 35.739 65.2341 35.4154 65.4048 35.185L77.2229 19.2536C76.9072 19.2341 76.5959 19.2168 76.2868 19.2016L63.8981 35.0927C63.7216 35.3181 63.3927 35.3599 63.1642 35.1859C62.9356 35.0118 62.8932 34.6874 63.0697 34.4621L75.0043 19.1541C74.6776 19.1447 74.3553 19.1389 74.0367 19.1353L61.5497 34.3884C61.3688 34.6108 61.0392 34.6462 60.8136 34.4671C60.588 34.2887 60.5521 33.9636 60.7338 33.7411L72.6912 19.136C72.481 19.1389 72.2729 19.1425 72.0657 19.1468C71.925 19.1505 71.7851 19.1541 71.646 19.1584C69.5958 21.5422 67.5405 23.9383 65.4816 26.3422C63.3898 28.7845 61.2949 31.2332 59.1993 33.6849C59.0126 33.9031 58.6822 33.9298 58.461 33.7456C58.2398 33.5614 58.2127 33.2356 58.3995 33.0175C60.4951 30.5665 62.5907 28.117 64.6818 25.6748C66.5298 23.5171 68.3755 21.3652 70.217 19.2227C69.8655 19.2436 69.5197 19.2675 69.1784 19.2949L56.8482 32.9813C56.6556 33.1944 56.3245 33.2139 56.1077 33.024C55.8916 32.834 55.8719 32.5075 56.0645 32.2937L67.6417 19.4431C67.2461 19.4879 66.8572 19.537 66.4756 19.5897L54.497 32.2757C54.2999 32.4845 53.9681 32.496 53.7564 32.3017C53.5448 32.1074 53.533 31.7802 53.7301 31.5714L64.7923 19.8563C64.6048 19.8895 64.4195 19.9242 64.2357 19.9596C63.9778 20.0094 63.7237 20.0607 63.4732 20.1142C63.4615 20.1293 63.449 20.143 63.4351 20.1568L52.1465 31.5692C51.9451 31.7736 51.6133 31.778 51.406 31.5793C51.1987 31.3807 51.1943 31.0535 51.3957 30.849L61.5578 20.5757C61.0114 20.7231 60.4818 20.8784 59.9676 21.0416L59.9603 21.0488L49.7953 30.8634C49.5894 31.0635 49.2576 31.0606 49.0547 30.8576C48.8519 30.6546 48.8548 30.3274 49.0606 30.1273L57.6106 21.873C56.8474 22.1684 56.1194 22.4761 55.419 22.7882C55.4007 22.8127 55.3795 22.8358 55.356 22.8575L47.4411 30.1582C47.2302 30.3525 46.8998 30.3417 46.7028 30.1337C46.5058 29.9256 46.5167 29.5999 46.7277 29.4055L52.2914 24.2732C52.1347 24.3505 51.9794 24.4278 51.8249 24.5037C50.9694 24.927 50.1446 25.3351 49.3353 25.71L45.0899 29.4524C44.8746 29.6424 44.5442 29.6243 44.3516 29.412C44.159 29.1996 44.1773 28.8738 44.3926 28.6838L46.4252 26.8924C45.6496 27.1532 44.9171 27.3576 44.2081 27.5093L44.2094 27.5079ZM48.7923 24.8208C48.8172 24.8063 48.8436 24.7948 48.8699 24.7847C49.6786 24.4119 50.5026 24.0038 51.3587 23.5805C54.7455 21.9039 58.6254 19.984 64.039 18.943C64.6872 18.8181 65.3552 18.7054 66.0459 18.605C66.1192 18.5775 66.1968 18.5667 66.2744 18.5725C68.0463 18.3247 69.9601 18.1622 72.0426 18.1138C75.02 18.0437 78.3358 18.2062 82.0589 18.6816C82.3387 18.7169 82.6214 18.7639 82.9313 18.8145C84.3354 19.0442 86.3137 19.3678 88.0167 18.7646C87.8695 18.709 87.7259 18.6382 87.586 18.5537C86.8264 18.0957 86.2295 17.2188 85.749 16.3555L85.7395 16.3599C84.7089 14.3481 83.9721 13.4575 83.3253 13.3636C82.7379 13.2783 82.0618 13.9313 81.177 15.0221C79.4602 17.1365 77.4225 16.8439 74.6245 16.443C72.4286 16.128 69.7244 15.7401 66.3389 16.521C59.8537 18.0162 55.4473 20.2766 51.7329 22.182C49.4102 23.3732 47.3536 24.4284 45.2097 25.0895C45.1752 25.1025 45.1408 25.1155 45.1057 25.1278C45.0661 25.1423 45.0266 25.1516 44.987 25.1567C44.3534 25.3431 43.7111 25.4948 43.0512 25.6046C39.7113 26.1601 37.289 25.3611 34.3826 24.4026C34.0611 24.2964 33.7329 24.188 33.2774 24.0421L8.03494 15.9374C7.8445 15.876 7.53101 15.7785 7.22777 15.6838C5.58414 15.171 4.22107 14.7455 3.89368 13.9849C3.85778 13.9025 3.83435 13.8194 3.82263 13.7349C3.69738 13.8303 3.59484 13.9227 3.51354 14.0137C3.36339 14.1813 3.30478 14.3244 3.31723 14.4457C3.33115 14.5801 3.43003 14.7274 3.59117 14.8813C3.94421 15.2193 4.54262 15.5321 5.25165 15.8052L27.0402 23.0815V23.0808L33.819 25.2961C36.4111 26.1434 38.4371 26.6664 40.3583 26.7813C42.2634 26.8947 44.0916 26.6079 46.3074 25.8386C47.1322 25.5518 47.9547 25.2058 48.7919 24.8215L48.7923 24.8208ZM92.3843 15.5632C92.5652 15.6456 92.7315 15.7193 92.8926 15.7901C93.1285 15.8934 93.4339 16.0227 93.8294 16.1881C94.0953 16.3 94.2198 16.6034 94.1063 16.8656C93.9928 17.1279 93.6851 17.2506 93.4193 17.1387C93.1131 17.0101 92.8245 16.8873 92.4707 16.7327C92.2649 16.6424 92.0664 16.5543 91.8599 16.4604L91.4556 17.151C91.5991 17.216 91.7427 17.2803 91.8892 17.3453C92.1814 17.4746 92.489 17.6068 92.8435 17.7556C93.1094 17.8676 93.2339 18.1709 93.1204 18.4332C93.0069 18.6954 92.6993 18.8182 92.4334 18.7062C92.1023 18.5675 91.7888 18.4324 91.4629 18.288C91.2907 18.2114 91.115 18.1327 90.9311 18.0489L90.5209 18.7503C90.5964 18.7835 90.6726 18.8167 90.7509 18.8507C91.0102 18.9634 91.2402 19.0609 91.4783 19.1606C91.7441 19.2725 91.8687 19.5759 91.7551 19.8382C91.6416 20.1004 91.334 20.2232 91.0681 20.1112C90.7744 19.9884 90.5334 19.8866 90.3283 19.797C90.2206 19.75 90.1108 19.7016 89.9943 19.6504L89.5893 20.3431C89.6405 20.3655 89.6925 20.3879 89.7453 20.411C89.9291 20.4904 90.1335 20.5771 90.3767 20.679C90.6425 20.7909 90.767 21.0943 90.6535 21.3566C90.54 21.6188 90.2324 21.7416 89.9665 21.6296C89.746 21.5371 89.5431 21.4512 89.3263 21.358C89.2421 21.3219 89.1549 21.2836 89.0626 21.2431L88.6591 21.933C88.7081 21.9547 88.7557 21.9756 88.8019 21.9951C89.0004 22.0811 89.2143 22.1721 89.4435 22.2682C89.7094 22.3801 89.8339 22.6835 89.7204 22.9457C89.6069 23.208 89.2992 23.3307 89.0333 23.2188C88.8261 23.1321 88.6093 23.0397 88.3837 22.9421C88.2958 22.9039 88.2123 22.8677 88.1332 22.8331L87.7289 23.5236C87.7875 23.5496 87.8439 23.5735 87.8966 23.5966C88.0834 23.6775 88.2863 23.7635 88.5053 23.8552C88.7712 23.9671 88.8957 24.2705 88.7821 24.5328C88.6686 24.795 88.361 24.9178 88.0951 24.8058C87.8995 24.7242 87.6945 24.6361 87.4784 24.5429C87.3802 24.5003 87.2887 24.4605 87.203 24.423L86.8008 25.1106L86.9546 25.1778C87.2103 25.2891 87.4439 25.3888 87.6549 25.4769C87.9208 25.5888 88.0453 25.8922 87.9318 26.1545C87.8182 26.4167 87.5106 26.5395 87.2447 26.4275C86.9766 26.3155 86.74 26.2144 86.532 26.1241C86.4558 26.0909 86.3694 26.0533 86.2742 26.0107L85.8736 26.6962C85.949 26.7287 86.0288 26.7641 86.1131 26.801C86.3767 26.9158 86.6214 27.0206 86.8067 27.0986C87.0726 27.2105 87.1971 27.5139 87.0836 27.7761C86.97 28.0384 86.6624 28.1612 86.3965 28.0492C86.1541 27.9474 85.9116 27.8441 85.6904 27.748C85.5901 27.7039 85.4729 27.6526 85.3469 27.597L84.9419 28.2898C85.021 28.3244 85.1015 28.3605 85.1843 28.3959C85.4663 28.5187 85.73 28.6321 85.9739 28.734C86.2398 28.846 86.3643 29.1493 86.2508 29.4116C86.1372 29.6738 85.8296 29.7966 85.5637 29.6846C85.2685 29.5611 85.0012 29.447 84.7617 29.3422C84.6482 29.2931 84.5324 29.2418 84.4152 29.1891L84.0197 29.8645C84.1332 29.915 84.2497 29.9663 84.3691 30.0183C84.6672 30.1484 84.947 30.2683 85.2092 30.3781C85.4751 30.49 85.5996 30.7934 85.4861 31.0556C85.3726 31.3179 85.0649 31.4406 84.799 31.3287C84.487 31.1979 84.2035 31.0773 83.9472 30.9646C83.7992 30.8996 83.6483 30.8331 83.4938 30.7638L83.0843 31.4638C83.2447 31.536 83.3912 31.6017 83.5223 31.6588C83.7978 31.7794 84.0959 31.9073 84.4159 32.0417C84.6818 32.1536 84.8063 32.457 84.6928 32.7192C84.5793 32.9814 84.2716 33.1042 84.0058 32.9923C83.715 32.8702 83.4117 32.7402 83.0953 32.6015C82.8976 32.5148 82.7188 32.4353 82.5577 32.3631L82.1519 33.0566C82.3116 33.1288 82.469 33.1996 82.6229 33.2675C82.9385 33.4069 83.2748 33.5514 83.6322 33.7009C83.8981 33.8129 84.0226 34.1163 83.9091 34.3785C83.7955 34.6407 83.4879 34.7635 83.222 34.6515C82.8895 34.5121 82.5474 34.3648 82.1966 34.2102C81.9995 34.1235 81.8098 34.0383 81.6267 33.9552L81.2385 34.6183C81.4202 34.7006 81.5982 34.7808 81.7739 34.8588C82.1241 35.0134 82.4939 35.1731 82.8843 35.3363C83.1502 35.4483 83.2747 35.7517 83.1612 36.0139C83.0477 36.2761 82.7401 36.3989 82.4742 36.2869C82.1065 36.1331 81.7307 35.9713 81.3469 35.8015C81.1279 35.7047 80.917 35.6101 80.7126 35.5169L80.309 36.2068C80.5061 36.297 80.6936 36.3816 80.8708 36.4603C81.2349 36.6214 81.618 36.7868 82.0223 36.9558C82.2881 37.0678 82.4127 37.3712 82.2991 37.6334C82.1856 37.8956 81.878 38.0184 81.6121 37.9065C81.2297 37.7461 80.8408 37.5785 80.4438 37.4023C80.2087 37.2982 79.9889 37.1993 79.7824 37.1046L79.3715 37.806C79.5824 37.9028 79.8037 38.0032 80.0366 38.1073C80.4519 38.2922 80.8635 38.4706 81.273 38.6418C81.5389 38.7538 81.6634 39.0572 81.5498 39.3194C81.4363 39.5816 81.1287 39.7044 80.8628 39.5924C80.4277 39.4104 80.0088 39.2291 79.6059 39.0492C79.3635 38.9409 79.1108 38.8253 78.8464 38.7032C78.6874 38.9741 78.538 39.2269 78.3966 39.4617C78.6669 39.5895 78.924 39.708 79.1679 39.8178C79.5554 39.9919 79.9641 40.1696 80.3955 40.3502C80.6614 40.4621 80.7859 40.7655 80.6724 41.0278C80.5588 41.29 80.2512 41.4128 79.9853 41.3008C79.5766 41.1296 79.1591 40.9483 78.7336 40.7562C78.4142 40.6124 78.1168 40.4752 77.84 40.3451C77.6774 40.5871 77.5214 40.8017 77.3675 40.9895C77.6737 41.1361 77.9762 41.2784 78.2765 41.4149C78.7629 41.6367 79.2529 41.8513 79.7451 42.0571C80.011 42.1691 80.1355 42.4725 80.022 42.7347C79.9084 42.9969 79.6008 43.1197 79.3349 43.0077C78.8251 42.7947 78.3263 42.5765 77.8378 42.3533C77.3917 42.1503 76.9617 41.9473 76.5457 41.7443C76.1795 41.9675 75.7789 42.0672 75.2874 42.0593L75.3723 42.1033C76.523 42.6964 77.7081 43.2548 78.938 43.7691C79.2039 43.8811 79.3284 44.1844 79.2149 44.4467C79.1013 44.7089 78.7937 44.8317 78.5278 44.7197C77.2863 44.1996 76.0756 43.6297 74.8883 43.0171C73.701 42.4046 72.5517 41.7581 71.4318 41.0856C71.4127 41.0741 71.3944 41.0611 71.3768 41.0473C71.3021 41.0213 71.2267 40.9953 71.1498 40.9693V40.9701L68.1796 39.9696C69.4365 40.8075 70.7125 41.618 72.0192 42.3845C73.9596 43.5229 75.968 44.5638 78.0818 45.4486C78.3477 45.5606 78.4722 45.864 78.3586 46.1262C78.2451 46.3884 77.9375 46.5112 77.6716 46.3993C75.5087 45.4934 73.4607 44.4323 71.4861 43.2745C69.515 42.118 67.6164 40.8647 65.7509 39.5723L64.6544 38.8124C64.631 38.7965 64.6097 38.7785 64.59 38.7597L62.4863 38.0511C62.8247 38.3104 63.1587 38.5733 63.489 38.8326C64.1798 39.3751 64.8507 39.9032 65.4886 40.3445C67.3344 41.6231 69.2666 42.8872 71.2677 44.0544C73.265 45.2189 75.3298 46.2864 77.4444 47.1713C77.7103 47.2832 77.8348 47.5866 77.7213 47.8489C77.6077 48.1111 77.3001 48.2339 77.0342 48.1219C74.872 47.2161 72.7661 46.129 70.735 44.9442C68.7077 43.7617 66.752 42.4825 64.8857 41.1894C64.2236 40.7307 63.5402 40.1933 62.837 39.6407C61.3757 38.4921 59.8258 37.2742 58.2972 36.6386L56.2434 35.9466C57.9984 37.0959 59.724 38.3767 61.3662 39.5951C62.4876 40.4273 63.5686 41.2298 64.6241 41.9608C66.4699 43.2394 68.4242 44.5209 70.4465 45.704C72.4652 46.8851 74.552 47.9686 76.6657 48.8542C76.9316 48.9661 77.0561 49.2695 76.9426 49.5317C76.8291 49.794 76.5215 49.9167 76.2556 49.8048C74.0927 48.899 71.9656 47.7952 69.9133 46.594C67.8638 45.3949 65.8869 44.099 64.0206 42.8068C63.004 42.1032 61.892 41.2769 60.7385 40.4209C57.2799 37.8529 53.4395 35.0025 49.8373 33.7884L46.2784 32.5892C47.6363 33.3087 48.9826 34.0628 50.3141 34.8423C55.0422 37.6089 59.5774 40.6833 63.7591 43.5791C65.632 44.8765 67.6506 46.1261 69.7359 47.2733C71.7612 48.3872 73.8553 49.4079 75.9471 50.284C76.213 50.396 76.3375 50.6994 76.224 50.9616C76.1105 51.2238 75.8028 51.3466 75.5369 51.2347C73.4164 50.3469 71.2887 49.3096 69.2277 48.1755C67.1013 47.006 65.0513 45.7368 63.1563 44.4244C58.9923 41.5407 54.4775 38.4801 49.7809 35.7316C45.0962 32.9903 40.2283 30.5575 35.3465 28.9198C35.315 28.909 35.285 28.8959 35.2572 28.8808L4.00508 18.4059C2.90493 18.0678 2.15782 17.6048 1.70304 17.0804C1.35658 16.6816 1.1764 16.2497 1.13613 15.8083C1.05995 16.0619 1.03358 16.3255 1.05849 16.5906C1.08705 16.8983 1.1852 17.214 1.35586 17.5261C1.82024 18.377 2.81051 19.1795 4.37718 19.725L5.8714 20.2451C12.2686 22.3045 17.8991 24.1898 22.9684 25.9776C28.0554 27.7712 32.6025 29.4752 36.8177 31.1649C44.2888 34.1597 50.7475 38.3927 57.498 42.8164C62.1015 45.8329 66.8412 48.939 72.1222 51.7931L72.1346 51.7989C75.3787 53.6655 76.7432 52.9214 77.6089 51.4572L77.6097 51.4579C77.9664 50.8547 78.2572 50.1346 78.5494 49.4108C78.671 49.1089 78.7933 48.8069 78.8819 48.5982H78.8827C80.9951 43.221 83.5799 37.5302 86.2401 32.2383C89.0424 26.6639 91.9327 21.5216 94.4451 17.6432C95.1732 16.52 94.9278 15.971 94.3279 15.5924C93.9588 15.3598 93.4571 15.1568 92.9363 14.9466C92.8865 14.9264 92.8359 14.9062 92.7832 14.8852L92.3869 15.5621L92.3843 15.5632ZM91.4284 10.3775C93.0193 10.6715 93.7481 11.1237 93.9034 11.9118C93.9817 12.3105 93.8829 12.7504 93.6558 13.2719C93.5899 13.4424 93.5035 13.6216 93.3951 13.8086C93.365 13.865 93.3343 13.9228 93.302 13.9813L93.3306 13.9928C93.8924 14.2197 94.4344 14.4385 94.8863 14.7231C96.0026 15.4267 96.5014 16.3795 95.3236 18.1976C92.8361 22.0377 89.9657 27.1454 87.1758 32.6951C84.5235 37.9711 81.949 43.6366 79.8506 48.9819L79.8462 48.9942C79.7092 49.3164 79.6133 49.554 79.518 49.791C79.209 50.5574 78.9006 51.3194 78.5116 51.9767V51.9789C77.3485 53.9452 75.5936 54.9896 71.6016 52.6926V52.6919C66.2913 49.8213 61.5354 46.7043 56.9159 43.6777C50.2117 39.2843 43.7968 35.0803 36.4212 32.123C32.2294 30.4428 27.6955 28.7445 22.6129 26.9517C17.5156 25.1545 11.8919 23.2706 5.53495 21.2241L5.52249 21.2198L4.02535 20.6989C2.19202 20.0611 1.00983 19.0773 0.429683 18.0146C0.193103 17.5805 0.0553961 17.1312 0.0136379 16.6826C-0.0288441 16.2283 0.0282884 15.7811 0.179907 15.3564C0.47362 14.5365 1.11745 13.8062 2.08574 13.2926C2.83139 12.8968 3.714 12.4641 4.65668 12.0531C5.42649 11.7172 6.23732 11.3936 7.04816 11.1133L30.5393 1.1233C31.4321 0.744785 30.9553 0.948493 31.1054 0.884198C32.3601 0.348942 32.9695 0.0888862 33.6471 0.0188193C34.2909 -0.0476378 34.8967 0.0664925 36.0737 0.28897C36.3974 0.35037 36.7578 0.418274 36.9819 0.458725L91.3951 10.3694L91.4295 10.3759L91.4284 10.3775ZM92.4912 13.2892C92.5498 13.1787 92.6026 13.0747 92.6487 12.9765C92.7029 12.8493 92.7388 12.7323 92.7586 12.6247C92.7981 12.4131 92.771 12.2447 92.6963 12.1118C92.6136 11.9652 92.4686 11.8417 92.2862 11.7377C91.9895 11.5694 91.6035 11.4581 91.2043 11.3852L36.7912 1.47447C36.3341 1.3914 36.0917 1.34517 35.8749 1.30472C34.796 1.10101 34.2415 0.996272 33.7523 1.04685C33.2308 1.1003 32.6704 1.33939 31.5183 1.83132C31.018 2.04441 31.4392 1.86816 30.9521 2.07403L7.54915 12.0352H7.54695C5.45792 12.91 4.76076 13.3528 4.85733 13.5774C4.99576 13.8989 6.15084 14.2593 7.5432 14.6942C7.76806 14.7643 7.99806 14.8365 8.35844 14.9521L33.6009 23.0568C33.9041 23.1543 34.3128 23.2894 34.7142 23.4209C37.4837 24.3339 39.7923 25.0953 42.8781 24.5824C43.5703 24.4676 44.2478 24.3007 44.9203 24.0919C49.2622 22.4746 52.8242 20.1661 56.3268 17.8956C61.1375 14.7772 65.8386 11.7296 72.3339 10.5551C74.9459 10.0827 77.6361 10.0668 79.9456 10.5414C82.1423 10.9929 84.0085 11.8915 85.1694 13.269C85.2646 13.3824 85.3518 13.4936 85.4309 13.602C85.5115 13.714 85.5891 13.8303 85.6631 13.9516C85.8103 14.1929 85.9663 14.5035 86.1436 14.8553C86.6409 15.842 87.3126 17.177 88.1308 17.6703C88.8405 18.0987 89.7847 17.7975 91.073 15.7207C91.0759 15.7156 91.0796 15.7106 91.0825 15.7055L92.4822 13.3038L92.491 13.2886L92.4912 13.2892ZM82.4741 12.4781C81.6743 12.0685 80.7456 11.7608 79.7333 11.5527C77.5543 11.1049 75.0061 11.1222 72.5238 11.5708C66.6752 12.6283 62.2761 15.2886 57.8931 18.1166C60.2407 17.1552 62.9228 16.245 66.1016 15.5118C69.6782 14.6869 72.4901 15.0907 74.7724 15.4179C77.2292 15.7704 79.0186 16.0269 80.3611 14.3734C81.1185 13.4409 81.7879 12.7669 82.4743 12.4772L82.4741 12.4781Z" fill="#1b116d"/>
</svg>
