<svg width="67" height="56" viewBox="0 0 67 56" fill="none" xmlns="http://www.w3.org/2000/svg">
<path d="M36.4953 0.0464051C36.4416 0.0162715 36.3819 0 36.3223 0C36.2626 0 36.203 0.0162715 36.1493 0.0464051L0.172971 20.8225C0.0656947 20.884 0 20.9985 0 21.1221V21.7163C0 21.8398 0.0656932 21.9538 0.172971 22.0158L3.5239 23.9463V39.9411C3.5239 40.0646 3.58959 40.1779 3.69687 40.2406L29.9038 55.3913C29.9575 55.4214 30.0171 55.4377 30.0768 55.4377C30.1365 55.4377 30.1961 55.4214 30.2498 55.3913L62.9105 36.5221C63.0166 36.4601 63.0823 36.3462 63.0823 36.2226L63.0817 20.2278L66.0312 18.5282C66.1372 18.4667 66.2029 18.3522 66.2029 18.2287V17.9798L66.3464 17.8966C66.4536 17.8351 66.5199 17.7212 66.5199 17.5971C66.5199 17.4735 66.4542 17.3602 66.347 17.2975L36.4953 0.0464051ZM65.6861 18.1302L62.651 19.8792H62.6504L30.2504 38.5972V38.5357L65.6867 18.0789L65.6861 18.1302ZM62.5643 36.1246L30.2507 54.7932L30.2513 38.9958L62.5649 20.3288L62.5643 36.1246ZM36.416 0.728349L36.519 0.683147L65.77 17.5728L30.0776 38.1761L0.829637 21.2818L0.991159 21.1878L29.9892 37.9278C30.0169 37.9441 30.0464 37.9513 30.0753 37.9513C30.1049 37.9513 30.1338 37.9435 30.1615 37.9278L65.1659 17.721C65.1852 17.7096 65.19 17.6891 65.2032 17.6728C65.2111 17.6644 65.2237 17.6674 65.2297 17.6571C65.2334 17.6505 65.2297 17.6415 65.2322 17.6348C65.2418 17.6143 65.2406 17.5945 65.2406 17.5716C65.2406 17.5493 65.2412 17.5294 65.2322 17.5083C65.2297 17.5004 65.2328 17.492 65.2297 17.486C65.2213 17.4715 65.2044 17.4685 65.1936 17.4582C65.1821 17.448 65.1797 17.4305 65.1659 17.4227L36.333 0.776802L36.416 0.728349ZM30.0776 37.5795L1.3357 20.9861L35.9944 0.981377L64.7363 17.5733L30.0776 37.5795ZM0.52107 21.5723L29.9048 38.5345V38.596L3.95701 23.5959L0.519989 21.6155L0.52107 21.5723ZM36.3694 0.370406L36.3452 0.381857L36.3013 0.35775L36.3236 0.344491L36.3694 0.370406Z" fill="#1b116d"/>
</svg>
