<svg width="35" height="55" viewBox="0 0 35 55" fill="none" xmlns="http://www.w3.org/2000/svg">
<path d="M23.252 38.053C23.252 41.2843 20.6327 43.9036 17.4014 43.9036C14.1702 43.9036 11.5508 41.2843 11.5508 38.053C11.5508 34.8218 14.1702 32.2024 17.4014 32.2024C20.6327 32.2024 23.252 34.8218 23.252 38.053Z" fill="#2C6B77"/>
<path d="M19.9367 45.4228L20.844 45.6151C21.4421 45.7456 22.0401 45.395 22.2262 44.8176L22.5082 43.9376C22.6252 43.5732 22.9139 43.2845 23.2783 43.1675L24.1583 42.8855C24.7429 42.6999 25.0863 42.1019 24.9558 41.5033L24.7635 40.596C24.681 40.2181 24.7909 39.833 25.0455 39.5443L25.6642 38.8566C26.0766 38.403 26.0766 37.7086 25.6642 37.2549L25.0455 36.5672C24.7914 36.2852 24.681 35.8934 24.7635 35.5155L24.9625 34.6082C25.093 34.0102 24.7424 33.4122 24.165 33.2261L23.285 32.9441C22.9206 32.8271 22.6319 32.5384 22.5149 32.1739L22.2329 31.2939C22.0473 30.7093 21.4493 30.366 20.8508 30.4964L19.9434 30.6887C19.5655 30.7712 19.1805 30.6614 18.8918 30.4067L18.2041 29.7881C17.7504 29.3757 17.056 29.3757 16.6023 29.7881L15.9146 30.4067C15.6326 30.6609 15.2408 30.7712 14.8629 30.6887L13.9556 30.4964C13.3576 30.366 12.7596 30.7165 12.5735 31.2939L12.2915 32.1739C12.1745 32.5384 11.8858 32.8271 11.5213 32.9441L10.6413 33.2261C10.0567 33.4117 9.71337 34.0097 9.84381 34.6082L10.0361 35.5155C10.1186 35.8934 10.0088 36.2785 9.75413 36.5672L9.13549 37.2549C8.72307 37.7086 8.72307 38.403 9.13549 38.8566L9.75413 39.5443C10.0083 39.8263 10.1186 40.2181 10.0361 40.596L9.8371 41.4971C9.70666 42.0951 10.0572 42.6931 10.6346 42.8792L11.5146 43.1612C11.8791 43.2782 12.1678 43.5669 12.2848 43.9314L12.5668 44.8114C12.7524 45.396 13.3504 45.7393 13.9489 45.6089L14.8562 45.4166C15.2341 45.3341 15.6192 45.4439 15.9079 45.6986L16.5956 46.3172C17.0493 46.7297 17.7437 46.7297 18.1973 46.3172L18.885 45.6986C19.1737 45.4435 19.5655 45.3403 19.9367 45.4228ZM17.3998 44.5016C15.6743 44.5016 14.0587 43.8278 12.8416 42.6112C11.6249 41.3946 10.9512 39.7717 10.9512 38.053C10.9512 36.3275 11.625 34.7118 12.8416 33.4947C14.0582 32.2781 15.6811 31.6043 17.3998 31.6043C19.1253 31.6043 20.741 32.2781 21.9581 33.4947C23.1747 34.7114 23.8485 36.3342 23.8485 38.053C23.8485 39.7785 23.1747 41.3941 21.9581 42.6112C20.741 43.8279 19.1253 44.5016 17.3998 44.5016Z" fill="#2C6B77"/>
<path d="M15.3125 46.372C15.2573 46.324 15.1888 46.2962 15.113 46.2962C15.0924 46.2962 15.0718 46.2962 15.0511 46.3029L14.1438 46.4953C13.9995 46.5298 13.8484 46.5432 13.7036 46.5432C12.8993 46.5432 12.1843 46.0895 11.8338 45.3884L8.89844 53.4594L11.8338 51.9742L13.1262 54.9993L16.0276 47.0184C16.0137 47.0117 16.0069 46.9978 15.993 46.9911L15.3125 46.372Z" fill="#2C6B77"/>
<path d="M19.3326 0H2.50238C1.18937 0 0 1.01764 0 2.33063V43.9796C0 45.2926 1.18931 46.4134 2.50238 46.4134H10.6425L11.3714 44.3992H3.62982C2.75653 44.3992 2.00032 43.7115 2.00032 42.8387V3.46586C2.00032 2.59258 2.75659 1.85699 3.62982 1.85699H19.3318V13.0289C19.3318 14.3352 20.535 15.4694 21.8413 15.4694H32.9513V42.8454C32.9513 43.7187 32.2842 44.4059 31.4182 44.4059L23.4297 44.4063L24.1586 46.4205H32.5461C33.8591 46.4205 34.801 45.2997 34.801 43.9867L34.8005 15.4076L19.3326 0Z" fill="#2C6B77"/>
<path d="M21.1007 46.5573C20.9563 46.5573 20.8053 46.5367 20.6604 46.5021L19.7531 46.3026C19.7325 46.2959 19.7119 46.2959 19.6913 46.2959C19.6155 46.2959 19.5469 46.3233 19.4918 46.3717L18.8041 46.9903C18.7973 46.9971 18.7834 47.011 18.7695 47.0177L21.678 55L22.9704 51.9749L25.9058 53.4602L22.9704 45.3887C22.6198 46.097 21.8981 46.5574 21.1006 46.5574L21.1007 46.5573Z" fill="#2C6B77"/>
</svg>
