<svg width="63" height="55" viewBox="0 0 63 55" fill="none" xmlns="http://www.w3.org/2000/svg">
<path d="M57.3557 35.4574C57.1744 35.2604 56.97 35.0712 56.7729 34.905V31.7188C56.7729 31.5218 56.6388 31.3326 56.4422 31.277C56.2609 31.2297 56.0329 31.293 55.9225 31.4586L55.6231 31.8767C55.7489 29.0216 55.4737 26.206 54.8118 23.4616C53.1814 16.8134 49.6225 12.089 46.8819 9.26594C46.8819 9.26594 46.8819 9.24999 46.866 9.24999C45.9288 7.98032 42.4242 3.65863 36.8174 1.4186C31.7379 -0.608077 25.5093 -0.458375 19.6978 1.8367C19.6819 1.85265 19.6583 1.85265 19.6506 1.86035C18.5404 2.27844 17.4533 2.7829 16.43 3.38258C16.4064 3.39853 16.3828 3.40623 16.3592 3.42218C16.3196 3.43814 16.2883 3.46179 16.2487 3.48545C13.6971 4.90473 11.4763 6.69537 9.61031 8.79303C3.68822 15.4731 3.13725 23.5646 3.19983 27.0107C2.42035 27.5075 0.412101 28.864 0.104979 29.8025C-0.16253 30.6541 0.0654294 32.6812 0.971251 33.7458C1.47551 34.3531 2.14459 34.5973 2.86911 34.4873C4.32583 34.2667 5.97985 35.0396 7.72007 35.8593C8.23972 36.1036 8.76761 36.356 9.29492 36.5772C11.8152 37.6417 14.6496 40.1733 17.0913 42.5157C18.1388 43.5252 18.9891 44.3058 19.556 44.8262C19.8394 45.0704 20.052 45.2679 20.1701 45.3939C28.864 53.6901 40.3848 54.8575 40.5114 54.8658C41.4721 54.9681 42.4015 55 43.2991 55C48.969 55 53.3157 53.3436 56.3085 52.1921C61.4742 50.2442 62.2542 48.5961 62.5141 48.052C63.9708 44.929 62.1048 40.2839 57.5527 35.6386L57.3557 35.4574ZM26.5562 42.9181C23.3273 41.5698 19.7365 39.3693 13.2238 35.3941C11.1765 34.1322 7.49056 31.8844 2.40349 31.7271C1.94701 31.7034 1.48229 31.7111 1.0335 31.743C0.884091 31.0724 0.884091 30.4101 0.986263 30.1103C1.13568 29.6371 2.50627 28.5568 3.73448 27.7601C4.91549 28.0913 11.5544 29.9605 14.4521 31.8375C18.1138 34.2112 26.2173 38.9038 30.5958 39.6293L34.8716 40.3472L39.4627 45.2999C34.7935 45.3626 30.4308 44.5342 26.5561 42.9179L26.5562 42.9181ZM47.4248 24.337L38.014 17.9728C34.6753 10.5282 29.9737 6.32467 26.6817 4.86582C24.0196 3.68308 21.327 3.3436 21.2166 3.33599C20.4289 3.24907 19.6098 3.20176 18.7991 3.22542C19.1847 3.05213 19.5632 2.89424 19.9488 2.74461C21.9571 2.85519 23.9099 3.26502 25.7605 3.92735C27.9183 4.71622 31.0763 6.27751 33.864 9.31352C35.1241 10.6855 36.1794 12.2159 37.0373 13.8954C37.0769 13.9823 37.1395 14.045 37.2186 14.0923L46.8024 19.5264C46.9128 19.5897 47.0622 19.5974 47.188 19.55C47.322 19.5027 47.4242 19.4004 47.4555 19.2821L48.7629 15.6151L49.5896 19.2348L47.4248 24.337ZM50.5114 15.4725C51.716 17.4756 52.8031 19.8492 53.5826 22.5547C52.9212 20.4648 51.7479 17.8699 50.5114 15.4725ZM55.8507 35.6773C55.8507 37.073 55.4415 38.4218 54.7169 39.51L55.024 34.4231L55.8507 33.2244V35.6773Z" fill="#219472"/>
</svg>
