<svg width="41" height="36" viewBox="0 0 41 36" fill="none" xmlns="http://www.w3.org/2000/svg">
<path d="M37.3267 23.2085C37.2087 23.0796 37.0757 22.9557 36.9474 22.8469V20.7614C36.9474 20.6325 36.8602 20.5086 36.7322 20.4722C36.6142 20.4413 36.4659 20.4827 36.394 20.5911L36.1992 20.8647C36.2811 18.996 36.1019 17.153 35.6712 15.3567C34.6101 11.0051 32.294 7.91281 30.5104 6.06498C30.5104 6.06498 30.5104 6.05454 30.5001 6.05454C29.8902 5.22349 27.6094 2.39474 23.9605 0.928538C20.6548 -0.398014 16.6013 -0.300027 12.8192 1.2022C12.8089 1.21264 12.7935 1.21264 12.7885 1.21768C12.066 1.49135 11.3585 1.82153 10.6926 2.21405C10.6772 2.22449 10.6618 2.22953 10.6464 2.23997C10.6207 2.25042 10.6003 2.2659 10.5746 2.28138C8.914 3.21037 7.46867 4.38243 6.25433 5.75544C2.40027 10.1279 2.0417 15.4241 2.08243 17.6798C1.57515 18.0049 0.268193 18.8928 0.0683194 19.5071C-0.105774 20.0645 0.042581 21.3913 0.632084 22.0881C0.960256 22.4857 1.39568 22.6455 1.8672 22.5735C2.81523 22.4291 3.89165 22.935 5.02418 23.4715C5.36236 23.6314 5.70591 23.7967 6.04908 23.9414C7.68925 24.6382 9.53387 26.2952 11.1229 27.8285C11.8046 28.4892 12.358 29.0002 12.7269 29.3408C12.9114 29.5006 13.0497 29.6299 13.1266 29.7123C18.7845 35.1426 26.2822 35.9067 26.3645 35.9121C26.9898 35.9791 27.5946 36 28.1788 36C31.8687 36 34.6975 34.9158 36.6452 34.1621C40.007 32.8871 40.5146 31.8083 40.6838 31.4522C41.6318 29.4081 40.4174 26.3676 37.455 23.3271L37.3267 23.2085ZM17.2826 28.0918C15.1813 27.2093 12.8444 25.769 8.60596 23.1671C7.27357 22.3411 4.87481 20.8698 1.56418 20.7668C1.2671 20.7513 0.964666 20.7564 0.672598 20.7773C0.575361 20.3383 0.575361 19.9048 0.641854 19.7085C0.739091 19.3989 1.63106 18.6917 2.43037 18.1702C3.19897 18.387 7.51955 19.6105 9.40536 20.8391C11.7884 22.3928 17.062 25.4643 19.9115 25.9392L22.6942 26.4091L25.682 29.6509C22.6434 29.6919 19.8042 29.1496 17.2825 28.0917L17.2826 28.0918ZM30.8638 15.9297L24.7393 11.764C22.5665 6.89115 19.5067 4.13979 17.3643 3.1849C15.6318 2.41074 13.8795 2.18854 13.8076 2.18356C13.295 2.12667 12.7619 2.0957 12.2343 2.11118C12.4853 1.99776 12.7316 1.89441 12.9826 1.79647C14.2895 1.86885 15.5604 2.1371 16.7648 2.57063C18.169 3.08698 20.2242 4.10892 22.0385 6.09612C22.8585 6.99415 23.5453 7.99584 24.1036 9.09517C24.1294 9.15207 24.1701 9.19312 24.2216 9.22408L30.4587 12.7809C30.5306 12.8223 30.6278 12.8274 30.7097 12.7964C30.7969 12.7654 30.8634 12.6985 30.8838 12.621L31.7346 10.2208L32.2726 12.5901L30.8638 15.9297ZM32.8725 10.1275C33.6564 11.4385 34.3639 12.9922 34.8712 14.7631C34.4408 13.3951 33.6772 11.6966 32.8725 10.1275ZM36.3473 23.3524C36.3473 24.266 36.081 25.1488 35.6094 25.8611L35.8093 22.5315L36.3473 21.7469V23.3524Z" fill="#2C6B77"/>
</svg>
