<svg width="49" height="44" viewBox="0 0 49 44" fill="none" xmlns="http://www.w3.org/2000/svg">
<path d="M44.2826 27.9022C44.1426 27.7473 43.9848 27.5984 43.8326 27.4676V24.9603C43.8326 24.8053 43.7291 24.6564 43.5773 24.6126C43.4373 24.5754 43.2613 24.6252 43.1761 24.7555L42.9449 25.0845C43.042 22.8378 42.8296 20.6222 42.3185 18.4625C41.0597 13.2309 38.312 9.51313 36.1961 7.29159C36.1961 7.29159 36.1961 7.27904 36.1838 7.27904C35.4602 6.27991 32.7544 2.87907 28.4256 1.11633C24.5039 -0.47851 19.6949 -0.360706 15.2081 1.44534C15.1958 1.45789 15.1776 1.45789 15.1716 1.46395C14.3145 1.79296 13.4752 2.18993 12.6851 2.66183C12.6669 2.67438 12.6486 2.68044 12.6304 2.693C12.5999 2.70555 12.5757 2.72417 12.5452 2.74278C10.5751 3.85965 8.86046 5.26875 7.41983 6.91944C2.84756 12.1762 2.42218 18.5436 2.47049 21.2554C1.86868 21.6463 0.318171 22.7138 0.0810507 23.4523C-0.125485 24.1225 0.050516 25.7176 0.749873 26.5553C1.1392 27.0333 1.65577 27.2255 2.21515 27.1389C3.33984 26.9653 4.61686 27.5735 5.96043 28.2185C6.36164 28.4107 6.7692 28.6094 7.17632 28.7835C9.12214 29.6211 11.3105 31.6133 13.1956 33.4566C14.0044 34.251 14.6609 34.8653 15.0986 35.2748C15.3174 35.467 15.4815 35.6224 15.5727 35.7215C22.285 42.25 31.1799 43.1686 31.2776 43.1752C32.0193 43.2557 32.7369 43.2808 33.4299 43.2808C37.8075 43.2808 41.1634 41.9773 43.4741 41.0712C47.4623 39.5384 48.0646 38.2414 48.2652 37.8133C49.3899 35.3557 47.9492 31.7004 44.4347 28.0449L44.2826 27.9022ZM20.5032 33.7733C18.0103 32.7122 15.238 30.9807 10.2097 27.8525C8.629 26.8594 5.78323 25.0906 1.85566 24.9668C1.50323 24.9482 1.14443 24.9542 0.797937 24.9793C0.68258 24.4516 0.68258 23.9304 0.761463 23.6945C0.876821 23.3222 1.93501 22.472 2.88327 21.8451C3.7951 22.1057 8.92082 23.5767 11.158 25.0537C13.9851 26.9216 20.2416 30.6143 23.622 31.1853L26.9233 31.7502L30.4679 35.6476C26.863 35.6969 23.4947 35.045 20.5031 33.7732L20.5032 33.7733ZM36.6152 19.1514L29.3494 14.1432C26.7717 8.28485 23.1417 4.97704 20.6001 3.82903C18.5448 2.8983 16.4659 2.63116 16.3807 2.62517C15.7725 2.55677 15.1401 2.51954 14.5142 2.53816C14.8119 2.40179 15.1042 2.27755 15.4019 2.1598C16.9524 2.24681 18.4601 2.56932 19.8889 3.09053C21.5548 3.71131 23.993 4.93993 26.1453 7.32903C27.1182 8.40868 27.933 9.61296 28.5954 10.9346C28.6259 11.003 28.6743 11.0524 28.7353 11.0896L36.1347 15.3658C36.2199 15.4156 36.3353 15.4216 36.4324 15.3844C36.5359 15.3472 36.6148 15.2666 36.639 15.1736L37.6483 12.2879L38.2866 15.1363L36.6152 19.1514ZM38.9983 12.1757C39.9283 13.7519 40.7677 15.6198 41.3695 17.7488C40.8588 16.1042 39.9529 14.0622 38.9983 12.1757ZM43.1206 28.0754C43.1206 29.1736 42.8047 30.2351 42.2453 31.0914L42.4823 27.0884L43.1206 26.1451V28.0754Z" fill="#219472"/>
</svg>
