<svg width="60" height="60" viewBox="0 0 60 60" fill="none" xmlns="http://www.w3.org/2000/svg">
<rect width="60" height="60" fill="white"/>
<path d="M44.6851 34.2744C44.5786 34.1563 44.4586 34.0427 44.3428 33.943V32.0313C44.3428 31.9131 44.2641 31.7996 44.1486 31.7662C44.0421 31.7378 43.9082 31.7758 43.8434 31.8751L43.6676 32.126C43.7414 30.413 43.5798 28.7236 43.1911 27.0769C42.2335 23.088 40.1434 20.2534 38.5338 18.5596C38.5338 18.5596 38.5338 18.55 38.5244 18.55C37.9741 17.7882 35.9158 15.1952 32.6229 13.8512C29.6397 12.6352 25.9816 12.725 22.5686 14.102C22.5592 14.1116 22.5453 14.1116 22.5408 14.1162C21.8888 14.3671 21.2504 14.6697 20.6494 15.0295C20.6355 15.0391 20.6216 15.0437 20.6078 15.0533C20.5845 15.0629 20.5661 15.0771 20.5429 15.0913C19.0443 15.9428 17.74 17.0172 16.6442 18.2758C13.1661 22.2839 12.8425 27.1388 12.8793 29.2064C12.4215 29.5045 11.242 30.3184 11.0617 30.8815C10.9045 31.3925 11.0384 32.6087 11.5704 33.2475C11.8666 33.6119 12.2595 33.7584 12.685 33.6924C13.5406 33.56 14.512 34.0238 15.534 34.5156C15.8392 34.6621 16.1492 34.8136 16.4589 34.9463C17.9391 35.585 19.6037 37.104 21.0377 38.5094C21.6529 39.1151 22.1523 39.5835 22.4853 39.8957C22.6517 40.0422 22.7766 40.1607 22.8459 40.2363C27.9519 45.2141 34.7181 45.9145 34.7924 45.9195C35.3566 45.9809 35.9025 46 36.4296 46C39.7596 46 42.3124 45.0061 44.0701 44.3153C47.1039 43.1465 47.562 42.1576 47.7146 41.8312C48.5702 39.9574 47.4743 37.1703 44.8008 34.3832L44.6851 34.2744ZM26.5965 38.7509C24.7002 37.9419 22.5913 36.6216 18.7664 34.2365C17.564 33.4793 15.3992 32.1306 12.4116 32.0362C12.1435 32.0221 11.8706 32.0267 11.607 32.0458C11.5192 31.6435 11.5192 31.2461 11.5792 31.0662C11.667 30.7823 12.4719 30.1341 13.1933 29.6561C13.8869 29.8548 17.7859 30.9763 19.4878 32.1025C21.6383 33.5267 26.3975 36.3423 28.9689 36.7776L31.4801 37.2083L34.1765 40.18C31.4343 40.2176 28.8721 39.7205 26.5964 38.7508L26.5965 38.7509ZM38.8527 27.6022L33.3257 23.7837C31.3648 19.3169 28.6036 16.7948 26.6702 15.9195C25.1068 15.2098 23.5254 15.0062 23.4605 15.0016C22.9979 14.9494 22.5169 14.9211 22.0407 14.9353C22.2672 14.8313 22.4895 14.7365 22.716 14.6468C23.8954 14.7131 25.0423 14.959 26.1292 15.3564C27.3964 15.8297 29.2511 16.7665 30.8884 18.5881C31.6284 19.4113 32.2482 20.3295 32.7521 21.3372C32.7753 21.3894 32.8121 21.427 32.8585 21.4554L38.4871 24.7158C38.552 24.7538 38.6397 24.7584 38.7136 24.73C38.7923 24.7016 38.8523 24.6402 38.8707 24.5693L39.6385 22.369L40.1241 24.5409L38.8527 27.6022ZM40.6654 22.2835C41.3729 23.4853 42.0114 24.9095 42.4691 26.5328C42.0807 25.2789 41.3916 23.7219 40.6654 22.2835ZM43.8012 34.4064C43.8012 35.2438 43.5609 36.0531 43.1353 36.706L43.3157 33.6539L43.8012 32.9346V34.4064Z" fill="#00429B"/>
</svg>
