<svg width="60" height="60" viewBox="0 0 60 60" fill="none" xmlns="http://www.w3.org/2000/svg">
<rect width="60" height="60" fill="white"/>
<path d="M44.6851 34.6297C44.5786 34.5152 44.4586 34.4051 44.3428 34.3084V32.4546C44.3428 32.34 44.2641 32.2299 44.1486 32.1975C44.0421 32.17 43.9082 32.2068 43.8434 32.3032L43.6676 32.5464C43.7414 30.8853 43.5798 29.2471 43.1911 27.6504C42.2335 23.7823 40.1434 21.0336 38.5338 19.3911C38.5338 19.3911 38.5338 19.3818 38.5244 19.3818C37.9741 18.6431 35.9158 16.1287 32.6229 14.8254C29.6397 13.6462 25.9816 13.7333 22.5686 15.0686C22.5592 15.0779 22.5453 15.0779 22.5408 15.0824C21.8888 15.3256 21.2504 15.6191 20.6494 15.968C20.6355 15.9773 20.6216 15.9818 20.6078 15.9911C20.5845 16.0004 20.5661 16.0141 20.5429 16.0279C19.0443 16.8537 17.74 17.8955 16.6442 19.1159C13.1661 23.0026 12.8425 27.7103 12.8793 29.7153C12.4215 30.0044 11.242 30.7936 11.0617 31.3397C10.9045 31.8351 11.0384 33.0145 11.5704 33.6339C11.8666 33.9873 12.2595 34.1294 12.685 34.0653C13.5406 33.937 14.512 34.3867 15.534 34.8636C15.8392 35.0057 16.1492 35.1526 16.4589 35.2813C17.9391 35.9006 19.6037 37.3735 21.0377 38.7364C21.6529 39.3237 22.1523 39.7779 22.4853 40.0807C22.6517 40.2228 22.7766 40.3377 22.8459 40.411C27.9519 45.2379 34.7181 45.9171 34.7924 45.9219C35.3566 45.9814 35.9025 46 36.4296 46C39.7596 46 42.3124 45.0363 44.0701 44.3663C47.1039 43.233 47.562 42.2741 47.7146 41.9575C48.5702 40.1405 47.4743 37.4379 44.8008 34.7352L44.6851 34.6297ZM26.5965 38.9705C24.7002 38.186 22.5913 36.9058 18.7664 34.593C17.564 33.8587 15.3992 32.5509 12.4116 32.4594C12.1435 32.4456 11.8706 32.4501 11.607 32.4687C11.5192 32.0785 11.5192 31.6932 11.5792 31.5187C11.667 31.2434 12.4719 30.6148 13.1933 30.1513C13.8869 30.344 17.7859 31.4316 19.4878 32.5236C21.6383 33.9047 26.3975 36.6349 28.9689 37.0571L31.4801 37.4748L34.1765 40.3563C31.4343 40.3928 28.8721 39.9108 26.5964 38.9704L26.5965 38.9705ZM38.8527 28.1597L33.3257 24.4569C31.3648 20.1255 28.6036 17.6798 26.6702 16.831C25.1068 16.1429 23.5254 15.9454 23.4605 15.9409C22.9979 15.8904 22.5169 15.8628 22.0407 15.8766C22.2672 15.7758 22.4895 15.6839 22.716 15.5969C23.8954 15.6612 25.0423 15.8996 26.1292 16.285C27.3964 16.744 29.2511 17.6524 30.8884 19.4188C31.6284 20.217 32.2482 21.1074 32.7521 22.0846C32.7753 22.1352 32.8121 22.1717 32.8585 22.1992L38.4871 25.3608C38.552 25.3976 38.6397 25.4021 38.7136 25.3746C38.7923 25.347 38.8523 25.2875 38.8707 25.2187L39.6385 23.0851L40.1241 25.1912L38.8527 28.1597ZM40.6654 23.0022C41.3729 24.1676 42.0114 25.5486 42.4691 27.1227C42.0807 25.9068 41.3916 24.397 40.6654 23.0022ZM43.8012 34.7577C43.8012 35.5697 43.5609 36.3545 43.1353 36.9876L43.3157 34.028L43.8012 33.3306V34.7577Z" fill="#2C6B77"/>
</svg>
