<svg width="45" height="45" viewBox="0 0 45 45" fill="none" xmlns="http://www.w3.org/2000/svg">
<rect width="45" height="45" fill="white"/>
<path d="M34.4914 26.117C34.4108 26.0275 34.32 25.9414 34.2324 25.8659V24.4176C34.2324 24.3281 34.1728 24.2421 34.0854 24.2168C34.0048 24.1953 33.9035 24.2241 33.8545 24.2994L33.7214 24.4894C33.7773 23.1917 33.655 21.9118 33.3608 20.6643C32.6362 17.6425 31.0544 15.495 29.8364 14.2118C29.8364 14.2118 29.8364 14.2045 29.8293 14.2045C29.4128 13.6274 27.8552 11.663 25.3633 10.6448C23.1057 9.7236 20.3374 9.79165 17.7546 10.8349C17.7475 10.8421 17.737 10.8421 17.7336 10.8456C17.2402 11.0357 16.757 11.265 16.3022 11.5375C16.2917 11.5448 16.2812 11.5483 16.2707 11.5555C16.2532 11.5628 16.2392 11.5735 16.2217 11.5843C15.0876 12.2294 14.1006 13.0434 13.2713 13.9968C10.6392 17.0332 10.3943 20.7112 10.4221 22.2776C10.0757 22.5034 9.18316 23.12 9.04666 23.5466C8.92776 23.9337 9.02908 24.8551 9.43167 25.339C9.65578 25.615 9.95315 25.7261 10.2752 25.6761C10.9226 25.5758 11.6577 25.9271 12.4311 26.2997C12.6621 26.4107 12.8967 26.5255 13.1311 26.626C14.2512 27.1099 15.5109 28.2606 16.5961 29.3253C17.0617 29.7842 17.4396 30.139 17.6915 30.3755C17.8175 30.4865 17.912 30.5763 17.9645 30.6336C21.8285 34.4046 26.9488 34.9352 27.005 34.939C27.432 34.9855 27.8451 35 28.244 35C30.764 35 32.6959 34.2471 34.026 33.7237C36.3219 32.8383 36.6685 32.0891 36.784 31.8418C37.4315 30.4223 36.6022 28.3109 34.579 26.1994L34.4914 26.117ZM20.8028 29.5082C19.3677 28.8953 17.7718 27.8951 14.8772 26.0882C13.9673 25.5146 12.3291 24.4929 10.0682 24.4214C9.86534 24.4106 9.6588 24.4141 9.45934 24.4286C9.39293 24.1238 9.39293 23.8228 9.43834 23.6865C9.50474 23.4714 10.1139 22.9803 10.6598 22.6182C11.1847 22.7688 14.1353 23.6184 15.4232 24.4716C17.0506 25.5505 20.6521 27.6835 22.5981 28.0133L24.4985 28.3397L26.539 30.5909C24.4638 30.6194 22.5248 30.2428 20.8027 29.5082L20.8028 29.5082ZM30.0777 21.0623L25.8951 18.1695C24.4112 14.7855 22.3216 12.8749 20.8585 12.2117C19.6754 11.6741 18.4787 11.5198 18.4296 11.5164C18.0795 11.4769 17.7155 11.4553 17.3552 11.4661C17.5265 11.3873 17.6948 11.3156 17.8661 11.2476C18.7587 11.2978 19.6266 11.4841 20.4491 11.7852C21.4081 12.1437 22.8117 12.8534 24.0507 14.2334C24.6107 14.857 25.0797 15.5527 25.461 16.3161C25.4786 16.3556 25.5064 16.3841 25.5416 16.4056L29.8011 18.8756C29.8501 18.9044 29.9165 18.9079 29.9724 18.8864C30.032 18.8649 30.0774 18.8184 30.0913 18.7646L30.6724 17.0978L31.0398 18.7431L30.0777 21.0623ZM31.4495 17.033C31.9849 17.9434 32.468 19.0224 32.8145 20.2521C32.5205 19.3022 31.9991 18.1227 31.4495 17.033ZM33.8225 26.217C33.8225 26.8514 33.6407 27.4645 33.3186 27.9591L33.4551 25.6469L33.8225 25.102V26.217Z" fill="#2C6B77"/>
</svg>
