<svg width="37" height="32" viewBox="0 0 37 32" fill="none" xmlns="http://www.w3.org/2000/svg">
<path d="M33.6851 20.6297C33.5786 20.5152 33.4586 20.4051 33.3428 20.3084V18.4546C33.3428 18.34 33.2641 18.2299 33.1486 18.1975C33.0421 18.17 32.9082 18.2068 32.8434 18.3032L32.6676 18.5464C32.7414 16.8853 32.5798 15.2471 32.1911 13.6504C31.2335 9.78235 29.1434 7.0336 27.5338 5.39109C27.5338 5.39109 27.5338 5.38181 27.5244 5.38181C26.9741 4.6431 24.9158 2.12866 21.6229 0.825367C18.6397 -0.35379 14.9816 -0.266691 11.5686 1.06862C11.5592 1.0779 11.5453 1.0779 11.5408 1.08239C10.8888 1.32564 10.2504 1.61914 9.64938 1.96804C9.63551 1.97733 9.62163 1.98181 9.60776 1.99109C9.58453 2.00037 9.56614 2.01413 9.54292 2.0279C8.04434 2.85366 6.74002 3.89549 5.64415 5.11594C2.1661 9.00255 1.84251 13.7103 1.87927 15.7153C1.42148 16.0044 0.242028 16.7936 0.0616541 17.3397C-0.0954543 17.8351 0.0384268 19.0145 0.570418 19.6339C0.866572 19.9873 1.25952 20.1294 1.68503 20.0653C2.54057 19.937 3.51198 20.3867 4.53401 20.8636C4.8392 21.0057 5.14923 21.1526 5.45892 21.2813C6.93908 21.9006 8.60373 23.3735 10.0377 24.7364C10.6529 25.3237 11.1523 25.7779 11.4853 26.0807C11.6517 26.2228 11.7766 26.3377 11.8459 26.411C16.9519 31.2379 23.7181 31.9171 23.7924 31.9219C24.3566 31.9814 24.9025 32 25.4296 32C28.7596 32 31.3124 31.0363 33.0701 30.3663C36.1039 29.233 36.562 28.2741 36.7146 27.9575C37.5702 26.1405 36.4743 23.4379 33.8008 20.7352L33.6851 20.6297ZM15.5965 24.9705C13.7002 24.186 11.5913 22.9058 7.76636 20.593C6.56395 19.8587 4.39922 18.5509 1.41157 18.4594C1.14348 18.4456 0.870552 18.4501 0.606979 18.4687C0.519228 18.0785 0.519228 17.6932 0.579234 17.5187C0.666984 17.2434 1.47193 16.6148 2.19326 16.1513C2.88688 16.344 6.78594 17.4316 8.48776 18.5236C10.6383 19.9047 15.3975 22.6349 17.9689 23.0571L20.4801 23.4748L23.1765 26.3563C20.4343 26.3928 17.8721 25.9108 15.5964 24.9704L15.5965 24.9705ZM27.8527 14.1597L22.3257 10.4569C20.3648 6.12547 17.6036 3.67981 15.6702 2.83102C14.1068 2.14288 12.5254 1.94536 12.4605 1.94094C11.9979 1.89037 11.5169 1.86284 11.0407 1.87661C11.2672 1.77578 11.4895 1.68392 11.716 1.59686C12.8954 1.6612 14.0423 1.89965 15.1292 2.28501C16.3964 2.74399 18.2511 3.65237 19.8884 5.41877C20.6284 6.21702 21.2482 7.10742 21.7521 8.0846C21.7753 8.13517 21.8121 8.17166 21.8585 8.19918L27.4871 11.3608C27.552 11.3976 27.6397 11.4021 27.7136 11.3746C27.7923 11.347 27.8523 11.2875 27.8707 11.2187L28.6385 9.08514L29.1241 11.1912L27.8527 14.1597ZM29.6654 9.0022C30.3729 10.1676 31.0114 11.5486 31.4691 13.1227C31.0807 11.9068 30.3916 10.397 29.6654 9.0022ZM32.8012 20.7577C32.8012 21.5697 32.5609 22.3545 32.1353 22.9876L32.3157 20.028L32.8012 19.3306V20.7577Z" fill="#2C6B77"/>
</svg>
