<svg width="28" height="43" viewBox="0 0 28 43" fill="none" xmlns="http://www.w3.org/2000/svg">
<path d="M18.1795 29.7506C18.1795 32.2769 16.1316 34.3248 13.6054 34.3248C11.0791 34.3248 9.03125 32.2769 9.03125 29.7506C9.03125 27.2244 11.0791 25.1765 13.6054 25.1765C16.1316 25.1765 18.1795 27.2244 18.1795 29.7506Z" fill="#2C6B77"/>
<path d="M15.5878 35.5125L16.2972 35.6628C16.7647 35.7648 17.2322 35.4907 17.3777 35.0393L17.5982 34.3513C17.6897 34.0664 17.9154 33.8407 18.2003 33.7492L18.8883 33.5287C19.3454 33.3836 19.6138 32.9161 19.5118 32.4482L19.3615 31.7388C19.297 31.4433 19.3828 31.1423 19.5819 30.9166L20.0656 30.3789C20.388 30.0242 20.388 29.4813 20.0656 29.1266L19.5819 28.589C19.3832 28.3685 19.297 28.0622 19.3615 27.7668L19.5171 27.0574C19.6191 26.5899 19.345 26.1223 18.8936 25.9768L18.2056 25.7564C17.9206 25.6649 17.6949 25.4392 17.6034 25.1542L17.383 24.4662C17.2379 24.0092 16.7703 23.7408 16.3024 23.8427L15.593 23.9931C15.2976 24.0576 14.9965 23.9717 14.7708 23.7726L14.2332 23.289C13.8785 22.9665 13.3356 22.9665 12.9809 23.289L12.4432 23.7726C12.2228 23.9713 11.9165 24.0576 11.621 23.9931L10.9116 23.8427C10.4441 23.7408 9.97657 24.0148 9.83108 24.4662L9.61062 25.1542C9.51914 25.4392 9.29343 25.6649 9.00848 25.7564L8.32048 25.9768C7.86345 26.1219 7.595 26.5895 7.69698 27.0574L7.84732 27.7668C7.91181 28.0622 7.82595 28.3633 7.62686 28.589L7.1432 29.1266C6.82076 29.4813 6.82076 30.0242 7.1432 30.3789L7.62686 30.9166C7.82557 31.137 7.91181 31.4433 7.84732 31.7388L7.69173 32.4433C7.58975 32.9108 7.86382 33.3784 8.31524 33.5238L9.00324 33.7443C9.28819 33.8358 9.51389 34.0615 9.60537 34.3464L9.82583 35.0344C9.97092 35.4915 10.4385 35.7599 10.9064 35.658L11.6158 35.5076C11.9112 35.4431 12.2123 35.529 12.438 35.7281L12.9756 36.2117C13.3303 36.5342 13.8732 36.5342 14.2279 36.2117L14.7656 35.7281C14.9913 35.5286 15.2976 35.448 15.5878 35.5125ZM13.6044 34.7922C12.2554 34.7922 10.9923 34.2655 10.0407 33.3143C9.08949 32.3631 8.56276 31.0943 8.56276 29.7506C8.56276 28.4016 9.08954 27.1384 10.0407 26.1869C10.9919 25.2357 12.2607 24.7089 13.6044 24.7089C14.9534 24.7089 16.2166 25.2357 17.1681 26.1869C18.1193 27.1381 18.6461 28.4068 18.6461 29.7506C18.6461 31.0996 18.1193 32.3627 17.1681 33.3143C16.2166 34.2655 14.9534 34.7922 13.6044 34.7922Z" fill="#2C6B77"/>
<path d="M11.9717 36.2543C11.9285 36.2168 11.8749 36.1951 11.8157 36.1951C11.7996 36.1951 11.7834 36.1951 11.7673 36.2003L11.058 36.3507C10.9451 36.3777 10.827 36.3882 10.7138 36.3882C10.085 36.3882 9.52599 36.0335 9.25196 35.4854L6.95703 41.7954L9.25196 40.6342L10.2624 42.9993L12.5307 36.7597C12.5198 36.7545 12.5146 36.7436 12.5037 36.7383L11.9717 36.2543Z" fill="#2C6B77"/>
<path d="M15.1146 0H1.9564C0.929874 0 0 0.795605 0 1.82212V34.384C0 35.4106 0.929826 36.2868 1.9564 36.2868H8.32049L8.89039 34.7121H2.83785C2.1551 34.7121 1.56388 34.1745 1.56388 33.4921V2.70967C1.56388 2.02692 2.15515 1.45183 2.83785 1.45183H15.114V10.1862C15.114 11.2075 16.0547 12.0942 17.0759 12.0942H25.7619V33.4973C25.7619 34.18 25.2404 34.7173 24.5633 34.7173L18.3177 34.7177L18.8876 36.2924H25.4451C26.4717 36.2924 27.208 35.4161 27.208 34.3896L27.2077 12.0459L15.1146 0Z" fill="#2C6B77"/>
<path d="M16.4964 36.3992C16.3835 36.3992 16.2654 36.3831 16.1522 36.3561L15.4428 36.2002C15.4267 36.1949 15.4106 36.1949 15.3944 36.1949C15.3352 36.1949 15.2816 36.2163 15.2385 36.2541L14.7008 36.7378C14.6956 36.7431 14.6847 36.7539 14.6738 36.7592L16.9477 42.9999L17.9581 40.6348L20.2531 41.796L17.9581 35.4856C17.6841 36.0394 17.1198 36.3993 16.4963 36.3993L16.4964 36.3992Z" fill="#2C6B77"/>
</svg>
