<svg width="103" height="28" viewBox="0 0 103 28" fill="none" xmlns="http://www.w3.org/2000/svg">
<path d="M0.6875 27V0.818181H7.79545V21.2727H18.3807V27H0.6875ZM45.598 13.9091C45.598 16.8239 45.0313 19.2827 43.8977 21.2855C42.7642 23.2798 41.2344 24.7926 39.3082 25.8239C37.3821 26.8466 35.2344 27.358 32.8651 27.358C30.4787 27.358 28.3224 26.8423 26.3963 25.8111C24.4787 24.7713 22.9531 23.2543 21.8196 21.2599C20.6946 19.2571 20.1321 16.8068 20.1321 13.9091C20.1321 10.9943 20.6946 8.53977 21.8196 6.54545C22.9531 4.54261 24.4787 3.02983 26.3963 2.0071C28.3224 0.975851 30.4787 0.460226 32.8651 0.460226C35.2344 0.460226 37.3821 0.975851 39.3082 2.0071C41.2344 3.02983 42.7642 4.54261 43.8977 6.54545C45.0313 8.53977 45.598 10.9943 45.598 13.9091ZM38.2855 13.9091C38.2855 12.3409 38.0767 11.0199 37.6591 9.94602C37.25 8.86364 36.6406 8.04545 35.831 7.49148C35.0298 6.92898 34.0412 6.64773 32.8651 6.64773C31.6889 6.64773 30.696 6.92898 29.8864 7.49148C29.0852 8.04545 28.4759 8.86364 28.0582 9.94602C27.6491 11.0199 27.4446 12.3409 27.4446 13.9091C27.4446 15.4773 27.6491 16.8026 28.0582 17.8849C28.4759 18.9588 29.0852 19.777 29.8864 20.3395C30.696 20.8935 31.6889 21.1705 32.8651 21.1705C34.0412 21.1705 35.0298 20.8935 35.831 20.3395C36.6406 19.777 37.25 18.9588 37.6591 17.8849C38.0767 16.8026 38.2855 15.4773 38.2855 13.9091ZM65.8896 9.46023C65.7788 9.00852 65.604 8.61222 65.3654 8.27131C65.1268 7.92188 64.8285 7.62784 64.4705 7.3892C64.1211 7.14205 63.712 6.95881 63.2433 6.83949C62.783 6.71165 62.2759 6.64773 61.7219 6.64773C60.5288 6.64773 59.5103 6.93324 58.6665 7.50426C57.8313 8.07528 57.1921 8.89773 56.7489 9.97159C56.3143 11.0455 56.0969 12.3409 56.0969 13.858C56.0969 15.392 56.3058 16.7045 56.7234 17.7955C57.141 18.8864 57.7631 19.7216 58.5898 20.3011C59.4165 20.8807 60.4435 21.1705 61.6708 21.1705C62.7532 21.1705 63.6523 21.0128 64.3683 20.6974C65.0927 20.3821 65.6339 19.9347 65.9918 19.3551C66.3498 18.7756 66.5288 18.0937 66.5288 17.3097L67.756 17.4375H61.7731V12.375H73.381V16.0057C73.381 18.392 72.8739 20.4332 71.8597 22.1293C70.854 23.8168 69.4648 25.1122 67.6921 26.0156C65.9279 26.9105 63.9038 27.358 61.6197 27.358C59.0714 27.358 56.8342 26.8168 54.908 25.7344C52.9819 24.652 51.4776 23.1094 50.3952 21.1065C49.3214 19.1037 48.7844 16.7216 48.7844 13.9602C48.7844 11.7955 49.1126 9.87784 49.7688 8.20739C50.4336 6.53693 51.354 5.12642 52.5302 3.97585C53.7063 2.81676 55.0657 1.94318 56.6083 1.35511C58.1509 0.758522 59.8043 0.460226 61.5685 0.460226C63.1197 0.460226 64.56 0.681818 65.8896 1.125C67.2276 1.55966 68.408 2.18182 69.4308 2.99148C70.462 3.79261 71.293 4.7429 71.9237 5.84233C72.5543 6.94176 72.9379 8.14773 73.0742 9.46023H65.8896ZM102.059 13.9091C102.059 16.8239 101.492 19.2827 100.359 21.2855C99.2251 23.2798 97.6953 24.7926 95.7692 25.8239C93.843 26.8466 91.6953 27.358 89.326 27.358C86.9396 27.358 84.7834 26.8423 82.8572 25.8111C80.9396 24.7713 79.4141 23.2543 78.2805 21.2599C77.1555 19.2571 76.593 16.8068 76.593 13.9091C76.593 10.9943 77.1555 8.53977 78.2805 6.54545C79.4141 4.54261 80.9396 3.02983 82.8572 2.0071C84.7834 0.975851 86.9396 0.460226 89.326 0.460226C91.6953 0.460226 93.843 0.975851 95.7692 2.0071C97.6953 3.02983 99.2251 4.54261 100.359 6.54545C101.492 8.53977 102.059 10.9943 102.059 13.9091ZM94.7465 13.9091C94.7465 12.3409 94.5376 11.0199 94.12 9.94602C93.7109 8.86364 93.1016 8.04545 92.2919 7.49148C91.4908 6.92898 90.5021 6.64773 89.326 6.64773C88.1499 6.64773 87.157 6.92898 86.3473 7.49148C85.5462 8.04545 84.9368 8.86364 84.5192 9.94602C84.1101 11.0199 83.9055 12.3409 83.9055 13.9091C83.9055 15.4773 84.1101 16.8026 84.5192 17.8849C84.9368 18.9588 85.5462 19.777 86.3473 20.3395C87.157 20.8935 88.1499 21.1705 89.326 21.1705C90.5021 21.1705 91.4908 20.8935 92.2919 20.3395C93.1016 19.777 93.7109 18.9588 94.12 17.8849C94.5376 16.8026 94.7465 15.4773 94.7465 13.9091Z" fill="white"/>
</svg>
