<svg width="60" height="60" viewBox="0 0 60 60" fill="none" xmlns="http://www.w3.org/2000/svg">
<rect width="60" height="60" fill="white"/>
<path d="M5.00144 17.8004L5.0108 24.7888L12.7841 29.5304C15.7621 31.347 18.6768 33.9234 21.1351 36.7066C23.7187 39.6319 25.7882 42.7732 26.8888 45.4907L27.0952 46L53.3689 34.6956L50.473 31.7258L50.5071 31.7135V31.7131L53.43 30.628L50.8518 28.2173L54.494 27.1303L54.5 23.9514L48.622 22.5636L54.488 21.2988L54.4936 19.8879L45.5447 19.7765C46.3584 19.5374 47.1271 19.2863 47.8854 19.0008C49.7218 18.3096 51.483 17.4226 53.6413 16.027L54.0118 15.7875L52.8827 13L51.5958 13.1767L51.5771 13.179L35.9088 15.8595L34.4061 16.1061C32.6536 16.2787 31.1412 15.8677 29.7179 15.4806L29.5156 15.4257V15.4249C29.8633 15.5183 31.0861 15.849 29.516 15.4238L26.8744 14.7083C19.5829 15.58 12.2918 16.4528 5 17.3253L5.00075 17.8002L5.00144 17.8004ZM30.3966 16.7647L23.6528 17.8721L23.6798 17.9259L23.6337 17.9039C23.6034 17.9659 23.5726 18.0276 23.5404 18.0892C22.7054 19.7045 21.357 21.0833 19.7116 21.8082C18.0861 22.5245 16.1593 22.5984 14.1412 21.6206C14.0816 21.5918 14.0213 21.5616 13.961 21.5305L7.33669 18.1236L26.7933 15.7958L29.2352 16.4572C31.0451 16.9474 29.4802 16.5218 29.2356 16.4553L29.4368 16.5098C29.7518 16.5954 30.0706 16.6821 30.3958 16.7643L30.3966 16.7647ZM24.2387 19.0394L24.9629 20.4821C23.2864 22.5812 21.4589 23.8662 19.4988 24.3478C17.6668 24.7981 15.6959 24.5492 13.6024 23.6117L6.07414 19.6178L6.07302 18.6762L13.4706 22.4806C13.5388 22.5158 13.6073 22.5498 13.6759 22.583C16.0091 23.7137 18.248 23.6229 20.1443 22.7874C21.8606 22.0315 23.2872 20.6621 24.2395 19.0393L24.2387 19.0394ZM25.8916 21.0343L50.7957 16.487C49.6549 17.1106 48.5947 17.5915 47.5079 18.0006C45.8382 18.6291 44.0938 19.0913 41.9003 19.6379L22.7957 24.0055C23.881 23.2671 24.9139 22.2774 25.8913 21.0343H25.8916ZM52.569 15.0772L25.8916 19.9485L25.2603 18.6908L34.5165 17.1708C34.5794 17.1645 34.6431 17.1577 34.7068 17.1499L34.7341 17.1458L36.2904 16.8794L36.4066 16.8603V16.8596L51.7584 14.2332V14.2328L52.2031 14.1715L52.5698 15.0769L52.569 15.0772ZM48.5267 21.4778L47.5231 21.705L43.7644 22.5154L43.8509 22.536L27.3617 26.2677C24.7857 26.4369 22.5378 26.4096 20.5792 26.1496C19.8779 26.0565 19.2133 25.9332 18.5835 25.7782C19.8513 25.7154 21.1498 25.4781 22.5176 25.1654L41.6357 20.7945L51.193 20.9133L48.5282 21.488L48.526 21.4779L48.5267 21.4778ZM18.8436 26.9338C19.3557 27.0433 19.8881 27.1349 20.4414 27.2081C22.4865 27.4797 24.8149 27.5085 27.4707 27.3321L27.5081 27.3295L46.2196 23.0949L52.1182 24.4876L27.4788 31.6855L18.8442 26.9334L18.8436 26.9338ZM6.0755 20.8176L26.8959 32.5544L26.8802 34.0803L6.07702 21.8911L6.0755 20.8176ZM27.9643 32.6567L53.4276 25.2181L53.4253 26.3326L48.7585 27.7253L48.7664 27.7327L27.9479 34.1569L27.9643 32.6567ZM21.8892 32.3096L27.3506 35.4591L49.6652 28.5735L51.4362 30.2295L50.1418 30.71V30.7096L27.6248 38.9202C26.251 36.734 24.358 34.5705 22.1664 32.5611C22.0746 32.4771 21.9824 32.3934 21.8895 32.3097L21.8892 32.3096ZM6.07799 23.2034L13.4452 27.4896C16.2774 29.1374 19.0441 31.1509 21.4403 33.3476C23.6881 35.4083 25.6051 37.6252 26.9376 39.8458L27.165 40.2251L49.3694 32.1284L51.5141 34.3277L27.6679 44.5866C26.4799 41.8773 24.44 38.8309 21.939 35.9991C19.4169 33.1433 16.4169 30.4941 13.3407 28.6176L6.07838 24.1877L6.07726 23.2027L6.07799 23.2034ZM29.5157 15.4259C29.3895 15.3915 29.4172 15.3986 29.5157 15.4251V15.4259ZM29.2355 16.4557C29.1973 16.4452 29.1913 16.4437 29.2355 16.4557V16.4557Z" fill="#2C6B77"/>
</svg>
