<svg width="45" height="45" viewBox="0 0 45 45" fill="none" xmlns="http://www.w3.org/2000/svg">
<rect width="45" height="45" fill="white"/>
<path d="M5.00105 14.4912L5.00786 19.5737L10.6612 23.0221C12.827 24.3433 14.9467 26.217 16.7346 28.2412C18.6136 30.3687 20.1187 32.6532 20.9191 34.6296L21.0692 35L40.1774 26.7786L38.0713 24.6188L38.096 24.6098V24.6095L40.2218 23.8204L38.3467 22.0671L40.9956 21.2766L41 18.9646L36.7251 17.9554L40.9913 17.0355L40.9954 16.0094L34.487 15.9284C35.0788 15.7545 35.6379 15.5719 36.1894 15.3643C37.5249 14.8615 38.8058 14.2164 40.3755 13.2014L40.645 13.0272L39.8238 11L38.8879 11.1285L38.8743 11.1302L27.4791 13.0796L26.3863 13.259C25.1117 13.3845 24.0118 13.0856 22.9767 12.8041L22.8295 12.7641V12.7636C23.0824 12.8315 23.9717 13.072 22.8298 12.7628L20.9087 12.2424C15.6058 12.8764 10.3031 13.5111 5 14.1457L5.00055 14.491L5.00105 14.4912ZM23.4703 13.7379L18.5657 14.5434L18.5853 14.5825L18.5518 14.5665C18.5297 14.6116 18.5074 14.6564 18.4839 14.7013C17.8766 15.876 16.896 16.8788 15.6994 17.4059C14.5172 17.9269 13.1159 17.9807 11.6481 17.2695C11.6048 17.2486 11.5609 17.2266 11.5171 17.204L6.69941 14.7263L20.8497 13.0333L22.6256 13.5143C23.9419 13.8708 22.8038 13.5613 22.6259 13.5129L22.7722 13.5526C23.0013 13.6148 23.2332 13.6779 23.4697 13.7377L23.4703 13.7379ZM18.9918 15.3923L19.5185 16.4415C18.2992 17.9681 16.9701 18.9027 15.5446 19.253C14.2122 19.5804 12.7788 19.3994 11.2563 18.7176L5.78119 15.8129L5.78038 15.1281L11.1604 17.895C11.21 17.9206 11.2599 17.9453 11.3097 17.9695C13.0066 18.7918 14.6349 18.7257 16.0141 18.1181C17.2622 17.5684 18.2998 16.5724 18.9923 15.3922L18.9918 15.3923ZM20.1939 16.8431L38.306 13.536C37.4763 13.9895 36.7053 14.3393 35.9149 14.6368C34.7005 15.0939 33.4319 15.43 31.8366 15.8276L17.9423 19.004C18.7316 18.467 19.4828 17.7472 20.1937 16.8431H20.1939ZM39.5957 12.5107L20.1939 16.0535L19.7348 15.1388L26.4665 14.0333C26.5123 14.0287 26.5586 14.0238 26.6049 14.0181L26.6248 14.0151L27.7567 13.8213L27.8411 13.8075V13.8069L39.0061 11.8969V11.8966L39.3295 11.852L39.5962 12.5105L39.5957 12.5107ZM36.6558 17.1657L35.9259 17.3309L33.1923 17.9203L33.2552 17.9353L21.263 20.6492C19.3896 20.7723 17.7548 20.7525 16.3304 20.5633C15.8203 20.4957 15.337 20.406 14.8789 20.2932C15.8009 20.2476 16.7453 20.075 17.7401 19.8476L31.6441 16.6687L38.5949 16.7551L36.6569 17.1731L36.6552 17.1657L36.6558 17.1657ZM15.0681 21.1337C15.4405 21.2133 15.8277 21.2799 16.2301 21.3332C17.7175 21.5307 19.4109 21.5516 21.3423 21.4234L21.3696 21.4215L34.9779 18.3418L39.2678 19.3546L21.3482 24.5895L15.0685 21.1334L15.0681 21.1337ZM5.78218 16.6855L20.9243 25.2214L20.9129 26.3312L5.78329 17.4663L5.78218 16.6855ZM21.7013 25.2958L40.2201 19.8859L40.2184 20.6965L36.8244 21.7093L36.8301 21.7147L21.6894 26.3868L21.7013 25.2958ZM17.283 25.0433L21.255 27.3339L37.4838 22.3262L38.7718 23.5306L37.8304 23.88V23.8797L21.4544 29.8511C20.4553 28.2611 19.0786 26.6877 17.4846 25.2263C17.4179 25.1651 17.3508 25.1043 17.2833 25.0434L17.283 25.0433ZM5.78399 18.4207L11.1419 21.5379C13.2017 22.7363 15.2139 24.2007 16.9565 25.7983C18.5914 27.297 19.9855 28.9092 20.9546 30.5242L21.12 30.8L37.2686 24.9116L38.8285 26.511L21.4857 33.9721C20.6217 32.0017 19.1382 29.7861 17.3193 27.7266C15.485 25.6497 13.3032 23.723 11.066 22.3583L5.78428 19.1365L5.78346 18.4202L5.78399 18.4207ZM22.8296 12.7643C22.7378 12.7393 22.7579 12.7444 22.8296 12.7637V12.7643ZM22.6258 13.5132C22.598 13.5056 22.5936 13.5045 22.6258 13.5132V13.5132Z" fill="#2C6B77"/>
</svg>
