<svg width="60" height="60" viewBox="0 0 60 60" fill="none" xmlns="http://www.w3.org/2000/svg">
<rect width="60" height="60" fill="white"/>
<path d="M6.00137 18.5095L6.01026 25.0743L13.391 29.5285C16.2186 31.2351 18.986 33.6553 21.3202 36.2699C23.7733 39.0179 25.7382 41.9688 26.7833 44.5216L26.9793 45L51.926 34.3807L49.1764 31.5909L49.2087 31.5794V31.579L51.9841 30.5597L49.536 28.295L52.9943 27.274L53 24.2877L47.4188 22.984L52.9886 21.7958L52.994 20.4704L44.4969 20.3658C45.2696 20.1412 45.9995 19.9053 46.7194 19.6372C48.4631 18.9878 50.1354 18.1545 52.1847 16.8435L52.5365 16.6185L51.4644 14L50.2425 14.166L50.2247 14.1681L35.3478 16.6862L33.921 16.9179C32.257 17.08 30.8209 16.6939 29.4695 16.3303L29.2775 16.2787V16.278C29.6076 16.3657 30.7686 16.6764 29.2778 16.2769L26.7697 15.6047C19.8464 16.4236 12.9235 17.2436 6 18.0631L6.00071 18.5093L6.00137 18.5095ZM30.1139 17.5365L23.7108 18.5769L23.7364 18.6274L23.6926 18.6067C23.6638 18.665 23.6346 18.7229 23.604 18.7808C22.8112 20.2982 21.5309 21.5934 19.9686 22.2743C18.4252 22.9472 16.5957 23.0167 14.6795 22.0981C14.6229 22.0711 14.5657 22.0427 14.5084 22.0135L8.21868 18.8131L26.6926 16.6264L29.0112 17.2476C30.7296 17.7082 29.2438 17.3084 29.0115 17.2459L29.2026 17.2971C29.5017 17.3775 29.8044 17.4589 30.1132 17.5362L30.1139 17.5365ZM24.2671 19.6734L24.9547 21.0286C23.3629 23.0005 21.6277 24.2076 19.7665 24.6601C18.027 25.083 16.1557 24.8493 14.168 23.9686L7.01989 20.2167L7.01882 19.3322L14.0428 22.9061C14.1075 22.9391 14.1726 22.971 14.2377 23.0022C16.4531 24.0643 18.5789 23.9791 20.3795 23.1942C22.009 22.4842 23.3636 21.1977 24.2678 19.6733L24.2671 19.6734ZM25.8364 21.5473L49.4828 17.2756C48.3996 17.8615 47.393 18.3132 46.3611 18.6975C44.7756 19.2879 43.1194 19.7221 41.0367 20.2356L22.8969 24.3385C23.9274 23.6449 24.9081 22.7151 25.8362 21.5473H25.8364ZM51.1665 15.9513L25.8364 20.5274L25.2371 19.3459L34.0257 17.918C34.0855 17.9121 34.146 17.9057 34.2064 17.8984L34.2324 17.8945L35.7101 17.6442L35.8204 17.6263V17.6256L50.3968 15.1584V15.1581L50.8191 15.1005L51.1673 15.951L51.1665 15.9513ZM47.3284 21.964L46.3754 22.1774L42.8066 22.9388L42.8888 22.9581L27.2323 26.4636C24.7864 26.6226 22.6521 26.5969 20.7924 26.3526C20.1265 26.2652 19.4955 26.1494 18.8975 26.0037C20.1012 25.9448 21.3341 25.7219 22.6329 25.4281L40.7854 21.3221L49.86 21.4337L47.3298 21.9736L47.3277 21.9641L47.3284 21.964ZM19.1444 27.0894C19.6307 27.1922 20.1362 27.2782 20.6615 27.347C22.6033 27.6022 24.8142 27.6292 27.3358 27.4635L27.3714 27.4611L45.1378 23.4831L50.7385 24.7913L27.3435 31.5531L19.145 27.089L19.1444 27.0894ZM7.02118 21.3438L26.7901 32.3693L26.7751 33.8027L7.02263 22.3523L7.02118 21.3438ZM27.8045 32.4654L51.9817 25.4776L51.9796 26.5246L47.5485 27.8328L47.5559 27.8399L27.7889 33.8746L27.8045 32.4654ZM22.0362 32.1393L27.2218 35.0979L48.4094 28.6297L50.0909 30.1853L48.8619 30.6367V30.6363L27.4821 38.3493C26.1777 36.2956 24.3803 34.2632 22.2994 32.3756C22.2122 32.2966 22.1247 32.218 22.0365 32.1394L22.0362 32.1393ZM7.02355 23.585L14.0186 27.6114C16.7078 29.1594 19.3348 31.0509 21.6099 33.1144C23.7443 35.0502 25.5644 37.1328 26.8297 39.2188L27.0456 39.575L48.1285 31.9691L50.1649 34.0351L27.523 43.6722C26.395 41.1271 24.4582 38.2654 22.0835 35.6052C19.6888 32.9225 16.8402 30.4338 13.9195 28.6711L7.02392 24.5096L7.02285 23.5844L7.02355 23.585ZM29.2775 16.2789C29.1577 16.2466 29.184 16.2532 29.2775 16.2782V16.2789ZM29.0115 17.2463C28.9752 17.2364 28.9695 17.235 29.0115 17.2463V17.2463Z" fill="#1b116d"/>
</svg>
