<svg width="52" height="52" viewBox="0 0 52 52" fill="none" xmlns="http://www.w3.org/2000/svg">
<path d="M51.4643 0.0667411C51.3591 0.0232143 51.2467 0.000363071 51.1331 0H0.864C0.751559 0 0.640567 0.022126 0.536465 0.0652897L0.5332 0.067466C0.322823 0.155245 0.155244 0.322823 0.0674665 0.5332L0.0652902 0.536465C0.0221265 0.640567 0 0.751559 0 0.864V51.1331C0.00181359 51.6108 0.388839 51.9979 0.866543 51.9997H21.6665C22.1446 51.9979 22.5313 51.6108 22.5334 51.1331V22.5331H51.1334C51.6112 22.531 51.9982 22.1443 52 21.6662V0.866238C51.9985 0.516213 51.7874 0.201362 51.4646 0.0664312L51.4643 0.0667411ZM22.0249 20.7999L13.358 12.1333H40.3738L49.0407 20.7999H22.0249ZM11.2655 41.9583L19.5734 50.2661H2.9575L11.2655 41.9583ZM12.1324 40.374V13.3581L20.799 22.025V49.0409L12.1324 40.374ZM41.9581 11.2661L50.266 2.95822V19.5741L41.9581 11.2661ZM21.6661 1.73334H49.0404L40.3734 10.3999H11.6249L2.95796 1.73334H21.6661ZM1.73336 2.95859L10.3999 11.6255V40.3741L1.73336 49.041V2.95859Z" fill="#2C6B77"/>
</svg>
