<svg width="44" height="23" viewBox="0 0 44 23" fill="none" xmlns="http://www.w3.org/2000/svg">
<path d="M36.2346 13.5265V1.27834C36.2346 0.572441 35.6554 0.000594872 34.9405 0.000594872H29.7641C29.0492 0.000594872 28.47 0.572441 28.47 1.27834V5.86025L22.9148 0.37461C22.4097 -0.12487 21.5897 -0.12487 21.0849 0.37461L0.379403 20.8186C-0.126468 21.318 -0.126468 22.1266 0.379403 22.6254C0.884543 23.1249 1.70455 23.1249 2.20934 22.6254L21.9997 3.08499L28.849 9.84774C29.2191 10.2135 29.7762 10.3226 30.259 10.1248C30.7432 9.92759 31.0584 9.46128 31.0584 8.94466V2.55592H33.6466V14.0557C33.6466 14.3943 33.7827 14.7195 34.0254 14.9594L41.7899 22.6259C42.0427 22.8751 42.3738 22.9999 42.7053 22.9999C43.0367 22.9999 43.3678 22.8751 43.6206 22.6259C44.1265 22.1264 44.1265 21.3178 43.6206 20.8191L36.2346 13.5265Z" fill="#2C6B77"/>
</svg>
