<svg width="45" height="45" viewBox="0 0 45 45" fill="none" xmlns="http://www.w3.org/2000/svg">
<rect width="45" height="45" fill="white"/>
<path d="M33.1759 23.9978V14.9449C33.1759 14.4231 32.7416 14.0004 32.2054 14.0004H28.3231C27.7869 14.0004 27.3525 14.4231 27.3525 14.9449V18.3315L23.1861 14.2769C22.8073 13.9077 22.1923 13.9077 21.8137 14.2769L6.28455 29.3876C5.90515 29.7568 5.90515 30.3545 6.28455 30.7231C6.66341 31.0923 7.27842 31.0923 7.65701 30.7231L22.4998 16.2802L27.6368 21.2788C27.9143 21.5491 28.3322 21.6298 28.6943 21.4835C29.0574 21.3378 29.2938 20.9931 29.2938 20.6113V15.8892H31.235V24.389C31.235 24.6393 31.3371 24.8796 31.519 25.057L37.3425 30.7235C37.532 30.9077 37.7804 30.9999 38.029 30.9999C38.2776 30.9999 38.5259 30.9077 38.7154 30.7235C39.0948 30.3543 39.0948 29.7567 38.7154 29.388L33.1759 23.9978Z" fill="#2C6B77"/>
</svg>
