<svg width="60" height="60" viewBox="0 0 60 60" fill="none" xmlns="http://www.w3.org/2000/svg">
<rect width="60" height="60" fill="white"/>
<path d="M44.7051 32.1146V19.3339C44.7051 18.5973 44.0865 18.0006 43.3228 18.0006H37.7935C37.0298 18.0006 36.4112 18.5973 36.4112 19.3339V24.115L30.4772 18.3909C29.9376 17.8697 29.0617 17.8697 28.5225 18.3909L6.40527 39.7237C5.86491 40.2449 5.86491 41.0886 6.40527 41.6091C6.94485 42.1303 7.82077 42.1303 8.35998 41.6091L29.4997 21.2191L36.816 28.2759C37.2113 28.6576 37.8064 28.7714 38.3221 28.565C38.8393 28.3592 39.1761 27.8726 39.1761 27.3336V20.6671H41.9407V32.6668C41.9407 33.0202 42.0861 33.3595 42.3453 33.6098L50.6393 41.6096C50.9093 41.8697 51.2629 41.9999 51.617 41.9999C51.9711 41.9999 52.3248 41.8697 52.5947 41.6096C53.1351 41.0884 53.1351 40.2447 52.5947 39.7242L44.7051 32.1146Z" fill="#1b116d"/>
</svg>
