<svg width="40" height="21" viewBox="0 0 40 21" fill="none" xmlns="http://www.w3.org/2000/svg">
<path d="M32.9405 12.3502V1.16718C32.9405 0.522664 32.414 0.000543144 31.7641 0.000543144H27.0583C26.4083 0.000543144 25.8818 0.522664 25.8818 1.16718V5.35067L20.8317 0.342036C20.3725 -0.114012 19.627 -0.114012 19.1681 0.342036L0.344912 19.0083C-0.114971 19.4643 -0.114971 20.2026 0.344912 20.658C0.80413 21.114 1.54959 21.114 2.00849 20.658L19.9998 2.81673L26.2264 8.99141C26.5628 9.32539 27.0693 9.42499 27.5082 9.24434C27.9484 9.06433 28.2349 8.63856 28.2349 8.16686V2.33367H30.5878V12.8334C30.5878 13.1427 30.7116 13.4395 30.9322 13.6586L37.9909 20.6584C38.2206 20.886 38.5216 20.9999 38.823 20.9999C39.1243 20.9999 39.4253 20.886 39.6551 20.6584C40.115 20.2024 40.115 19.4641 39.6551 19.0087L32.9405 12.3502Z" fill="#2C6B77"/>
</svg>
