<svg width="41" height="22" viewBox="0 0 41 22" fill="none" xmlns="http://www.w3.org/2000/svg">
<path d="M30.0655 0.001567C30.1771 0.0134193 30.2838 0.066757 30.3605 0.149067L40.479 10.4589C40.6844 10.6245 40.7032 10.9735 40.5162 11.1602C40.3295 11.3469 39.9805 11.3281 39.8149 11.1223L38.1335 9.41123V21.2854C38.1335 21.5323 37.9086 21.7572 37.6614 21.7575H2.98369C2.73643 21.7575 2.51188 21.5327 2.51155 21.2854V9.41123L0.830136 11.1223C0.664531 11.3278 0.315528 11.3465 0.128852 11.1602C-0.0578237 10.9735 -0.0390618 10.6245 0.166715 10.4589L10.3004 0.149067C10.4749 -0.0234574 10.7896 -0.0234574 10.9641 0.149067L15.5366 4.78048L19.9913 0.149067C20.1668 -0.0323411 20.4944 -0.0323411 20.6699 0.149067L25.1245 4.78048L29.6822 0.149067C29.779 0.0456821 29.9245 -0.0102836 30.0658 0.001567H30.0655ZM10.625 1.13749L3.4564 8.45357V20.8141H12.2027V9.63357L10.7718 11.1234C10.598 11.3048 10.2747 11.3121 10.0932 11.1379C9.91184 10.9641 9.90459 10.6407 10.0788 10.4593L14.8725 5.47366L10.625 1.13749ZM30.0208 1.1523L25.773 5.47388L30.5667 10.4592C30.7406 10.6367 30.7369 10.9567 30.5592 11.1302C30.3817 11.304 30.0617 11.3004 29.8882 11.1226L28.4428 9.61797V20.8128H37.1892V8.45229L30.0208 1.1523ZM20.3296 1.1523L13.1462 8.64513V20.8143H17.7039V14.9291C17.7039 14.6819 17.9288 14.4573 18.176 14.457H22.4684C22.7156 14.457 22.9402 14.6819 22.9405 14.9291V20.8143H27.4982V8.63081L20.3296 1.1523ZM21.9962 15.4008H18.6478V20.8142H21.9962V15.4008Z" fill="#2C6B77"/>
<path d="M22.4835 11.9044C22.7307 11.9199 22.9414 12.1589 22.926 12.4059C22.9105 12.6531 22.6715 12.8638 22.4245 12.8484H18.2208C17.9715 12.853 17.7421 12.6258 17.7421 12.3762C17.7421 12.127 17.9715 11.9008 18.2208 11.9041H22.4245H22.4835V11.9044Z" fill="#2C6B77"/>
</svg>
