<svg width="45" height="24" viewBox="0 0 45 24" fill="none" xmlns="http://www.w3.org/2000/svg">
<path d="M37.0581 14.1146V1.33392C37.0581 0.59733 36.4658 0.000620736 35.7346 0.000620736H30.4406C29.7094 0.000620736 29.1171 0.59733 29.1171 1.33392V6.11505L23.4356 0.390898C22.919 -0.130299 22.0804 -0.130299 21.5641 0.390898L0.388026 21.7237C-0.129342 22.2449 -0.129342 23.0886 0.388026 23.6091C0.904646 24.1303 1.74329 24.1303 2.25956 23.6091L22.4997 3.21912L29.5047 10.2759C29.8832 10.6576 30.453 10.7714 30.9467 10.565C31.4419 10.3592 31.7643 9.87264 31.7643 9.33356V2.66705H34.4113V14.6668C34.4113 15.0202 34.5505 15.3595 34.7987 15.6098L42.7397 23.6096C42.9982 23.8697 43.3368 23.9999 43.6758 23.9999C44.0148 23.9999 44.3535 23.8697 44.612 23.6096C45.1293 23.0884 45.1293 22.2447 44.612 21.7242L37.0581 14.1146Z" fill="#2C6B77"/>
</svg>
