<svg width="55" height="57" viewBox="0 0 55 57" fill="none" xmlns="http://www.w3.org/2000/svg">
<path d="M50.2176 28.876C52.8422 25.7128 54.2885 21.6883 54.2885 17.5444C54.2885 7.87184 46.5713 0 37.0953 0C27.6194 0 19.9072 7.87153 19.9072 17.5444C19.9072 27.2173 27.6189 35.0889 37.0953 35.0889C38.6475 35.0889 40.2002 34.8722 41.708 34.4448C41.7583 34.4332 41.8085 34.4221 41.8533 34.4221C41.9425 34.4221 42.0263 34.4448 42.1046 34.4849L51.9773 39.683L50.0951 29.3438C50.0671 29.1784 50.1064 29.0075 50.2178 28.8763L50.2176 28.876ZM40.5962 22.7713L39.6189 20.3603H34.5037L33.5264 22.7713H30.9132L35.8273 11.5253H38.3459L43.271 22.7713H40.5962Z" fill="#219472"/>
<path d="M18.8133 17.5443V17.3848C18.2715 17.3336 17.7301 17.3049 17.1941 17.3049C7.71207 17.3049 0 25.1765 0 34.8494C0 38.9931 1.44629 43.0171 4.07082 46.1809C4.17677 46.3121 4.22157 46.4831 4.19353 46.6485L2.31178 56.9999L12.1845 51.8018C12.3072 51.739 12.447 51.7219 12.581 51.762C14.083 52.1894 15.6411 52.4061 17.1937 52.4061C26.3294 52.4061 33.7676 45.2415 34.343 36.0017C25.5644 34.6391 18.8131 26.8817 18.8131 17.5453L18.8133 17.5443ZM22.2029 41.495C21.6945 41.7343 21.1364 41.8484 20.5275 41.8484C19.7068 41.8484 18.9695 41.6719 18.3108 41.3125C17.6463 40.9535 16.8926 40.3209 16.0439 39.4088C15.0444 39.2836 14.1562 38.9528 13.3745 38.4284C12.5927 37.9039 11.9839 37.2257 11.5485 36.399C11.113 35.5668 10.8952 34.6492 10.8952 33.6402C10.8952 32.5345 11.1578 31.5425 11.677 30.659C12.1962 29.7756 12.9169 29.0802 13.8326 28.5785C14.7538 28.0711 15.7813 27.8262 16.9261 27.8262C18.0708 27.8262 19.0984 28.0771 20.0083 28.5785C20.9186 29.0802 21.6389 29.7756 22.1639 30.659C22.6889 31.5424 22.9511 32.5345 22.9511 33.6402C22.9511 34.9454 22.5935 36.0909 21.8733 37.0774C21.153 38.0634 20.2038 38.7472 19.0142 39.1349C19.2767 39.414 19.528 39.6136 19.7792 39.7393C20.025 39.8645 20.293 39.9218 20.5723 39.9218C21.2535 39.9218 21.851 39.6427 22.3649 39.084L23.4983 40.4692C23.1408 40.9193 22.7107 41.2612 22.2028 41.495L22.2029 41.495Z" fill="#219472"/>
<path d="M19.9193 35.5044C20.2154 34.9573 20.3661 34.3359 20.3661 33.6405C20.3661 32.9451 20.2154 32.3236 19.9193 31.7767C19.6178 31.2296 19.21 30.8022 18.6853 30.5C18.1603 30.1923 17.574 30.0439 16.9208 30.0439C16.2676 30.0439 15.681 30.1978 15.1564 30.5C14.6313 30.8022 14.2184 31.2296 13.9224 31.7767C13.6209 32.3237 13.4756 32.9451 13.4756 33.6405C13.4756 34.3359 13.6263 34.9574 13.9224 35.5044C14.2184 36.0514 14.6317 36.4789 15.1564 36.781C15.6814 37.0888 16.2677 37.2371 16.9208 37.2371C17.5686 37.2371 18.1548 37.0832 18.6853 36.781C19.2045 36.4733 19.6178 36.0515 19.9193 35.5044Z" fill="#219472"/>
<path d="M35.3252 18.3882H38.8212L37.073 14.0791L35.3252 18.3882Z" fill="#219472"/>
</svg>
