<svg width="55" height="55" viewBox="0 0 55 55" fill="none" xmlns="http://www.w3.org/2000/svg">
<path d="M50.8756 27.8628C53.5346 24.8106 54.9998 20.9274 54.9998 16.9288C54.9998 7.59563 47.1815 0 37.5814 0C27.9812 0 20.168 7.59534 20.168 16.9288C20.168 26.2623 27.9807 33.8577 37.5814 33.8577C39.1539 33.8577 40.7269 33.6486 42.2545 33.2362C42.3054 33.2251 42.3563 33.2143 42.4017 33.2143C42.4921 33.2143 42.5769 33.2362 42.6562 33.2749L52.6584 38.2906L50.7515 28.3142C50.7231 28.1546 50.763 27.9897 50.8758 27.8631L50.8756 27.8628ZM41.1281 21.9723L40.138 19.6459H34.9558L33.9657 21.9723H31.3182L36.2967 11.1209H38.8483L43.838 21.9723H41.1281Z" fill="#219472"/>
<path d="M19.0599 16.9287V16.7749C18.511 16.7254 17.9625 16.6978 17.4195 16.6978C7.81315 16.6978 0 24.2931 0 33.6266C0 37.6249 1.46524 41.5077 4.12418 44.5606C4.23152 44.6872 4.2769 44.8521 4.24849 45.0117L2.34208 54.9999L12.3442 49.9842C12.4685 49.9236 12.6102 49.9071 12.7459 49.9458C14.2675 50.3583 15.8461 50.5673 17.4191 50.5673C26.6745 50.5673 34.2102 43.6541 34.7931 34.7385C25.8995 33.4237 19.0597 25.9385 19.0597 16.9297L19.0599 16.9287ZM22.4939 40.039C21.9789 40.27 21.4134 40.3801 20.7966 40.3801C19.9651 40.3801 19.2181 40.2097 18.5508 39.8629C17.8776 39.5165 17.114 38.9061 16.2542 38.0261C15.2416 37.9052 14.3418 37.586 13.5498 37.08C12.7578 36.574 12.141 35.9195 11.6998 35.1219C11.2586 34.3189 11.038 33.4335 11.038 32.4598C11.038 31.3929 11.304 30.4358 11.83 29.5833C12.3561 28.7308 13.0862 28.0598 14.0139 27.5757C14.9472 27.0862 15.9882 26.8499 17.1479 26.8499C18.3077 26.8499 19.3487 27.092 20.2705 27.5757C21.1928 28.0599 21.9225 28.7309 22.4544 29.5833C22.9863 30.4357 23.2519 31.3929 23.2519 32.4598C23.2519 33.7193 22.8896 34.8246 22.1599 35.7764C21.4303 36.7279 20.4686 37.3877 19.2634 37.7618C19.5294 38.0311 19.7839 38.2237 20.0384 38.3449C20.2874 38.4658 20.5589 38.521 20.8419 38.521C21.5321 38.521 22.1374 38.2517 22.658 37.7127L23.8063 39.0493C23.4441 39.4836 23.0084 39.8135 22.4938 40.0391L22.4939 40.039Z" fill="#219472"/>
<path d="M20.1805 34.2586C20.4804 33.7307 20.6332 33.1311 20.6332 32.4601C20.6332 31.7891 20.4804 31.1895 20.1805 30.6617C19.8751 30.1338 19.4619 29.7214 18.9304 29.4298C18.3984 29.1329 17.8045 28.9897 17.1428 28.9897C16.481 28.9897 15.8866 29.1382 15.3551 29.4298C14.8232 29.7214 14.4049 30.1338 14.105 30.6617C13.7995 31.1896 13.6523 31.7891 13.6523 32.4601C13.6523 33.1311 13.8051 33.7308 14.105 34.2586C14.4049 34.7864 14.8236 35.1989 15.3551 35.4905C15.8871 35.7874 16.4811 35.9305 17.1428 35.9305C17.799 35.9305 18.3929 35.782 18.9304 35.4905C19.4564 35.1935 19.8751 34.7865 20.1805 34.2586Z" fill="#219472"/>
<path d="M35.7881 17.7431H39.3299L37.5588 13.5852L35.7881 17.7431Z" fill="#219472"/>
</svg>
