<svg width="45" height="30" viewBox="0 0 45 30" fill="none" xmlns="http://www.w3.org/2000/svg">
<path d="M0.00130844 4.364L0.00982285 10.7171L7.0765 15.0276C9.78377 16.6791 12.4334 19.0212 14.6683 21.5515C17.017 24.2108 18.8983 27.0665 19.8989 29.537L20.0865 30L43.9717 19.7233L41.3391 17.0235L41.3701 17.0123V17.0119L44.0273 16.0255L41.6834 13.8339L44.9946 12.8458L45 9.9558L39.6563 8.69421L44.9891 7.54436L44.9942 6.26172L36.8588 6.1605C37.5985 5.9431 38.2974 5.71483 38.9867 5.45532C40.6562 4.8269 42.2573 4.02051 44.2194 2.75178L44.5562 2.53405L43.5297 0L42.3599 0.160673L42.3428 0.162711L28.0989 2.59954L26.7329 2.82373C25.1397 2.98066 23.7647 2.60701 22.4708 2.2551L22.2869 2.20517V2.20449C22.603 2.28941 23.7146 2.59003 22.2873 2.20347L19.8858 1.55298C13.2572 2.34545 6.62891 3.13892 0 3.93207L0.000679016 4.3638L0.00130844 4.364ZM23.0878 3.42242L16.9571 4.42922L16.9816 4.47813L16.9397 4.45809C16.9122 4.51448 16.8842 4.57053 16.8549 4.62657C16.0958 6.09504 14.87 7.34845 13.3742 8.00742C11.8965 8.65859 10.1449 8.72584 8.31016 7.83691C8.25601 7.81075 8.20118 7.78324 8.14634 7.75504L2.12426 4.65785L19.8121 2.54164L22.032 3.14287C23.6773 3.58854 22.2547 3.20164 22.0323 3.14118L22.2152 3.19077C22.5017 3.26856 22.7915 3.34736 23.0871 3.42209L23.0878 3.42242ZM17.4897 5.49037L18.1481 6.80187C16.624 8.71017 14.9627 9.87837 13.1807 10.3162C11.5153 10.7255 9.72354 10.4993 7.8204 9.64703L0.97649 6.01618L0.975468 5.16018L7.70054 8.61877C7.76253 8.6507 7.82485 8.68161 7.88717 8.71184C10.0083 9.73969 12.0436 9.65716 13.7676 8.89765C15.3278 8.21048 16.6247 6.96552 17.4904 5.49028L17.4897 5.49037ZM18.9923 7.30388L41.6325 3.16998C40.5954 3.7369 39.6316 4.17408 38.6436 4.546C37.1256 5.11735 35.5398 5.5375 33.5458 6.03447L16.1779 10.005C17.1645 9.33377 18.1035 8.43399 18.9921 7.30388H18.9923ZM43.2446 1.88839L18.9923 6.31682L18.4185 5.17349L26.8332 3.79164C26.8904 3.78587 26.9483 3.77975 27.0062 3.77262L27.031 3.76888L28.4458 3.52669L28.5514 3.50936V3.50868L42.5076 1.12107V1.12073L42.9119 1.06502L43.2453 1.88807L43.2446 1.88839ZM39.5698 7.70711L38.6573 7.91363L35.2404 8.65041L35.319 8.66909L20.3288 12.0615C17.987 12.2154 15.9435 12.1906 14.1629 11.9542C13.5254 11.8696 12.9212 11.7575 12.3486 11.6165C13.5012 11.5595 14.6816 11.3438 15.9251 11.0594L33.3052 7.08589L41.9936 7.19391L39.5711 7.71634L39.5691 7.70717L39.5698 7.70711ZM12.5851 12.6671C13.0506 12.7666 13.5346 12.8499 14.0376 12.9164C15.8968 13.1634 18.0136 13.1895 20.4279 13.0292L20.462 13.0268L37.4723 9.1772L42.8347 10.4432L20.4353 16.9868L12.5856 12.6667L12.5851 12.6671ZM0.977726 7.10692L19.9054 17.7767L19.8911 19.1639L0.979115 8.08286L0.977726 7.10692ZM20.8766 17.8697L44.0251 11.1074L44.023 12.1206L39.7805 13.3866L39.7876 13.3934L20.8617 19.2335L20.8766 17.8697ZM15.3538 17.5542L20.3187 20.4174L40.6048 14.1578L42.2147 15.6632L41.038 16.1V16.0997L20.568 23.5638C19.3191 21.5764 17.5982 19.6096 15.6058 17.7828C15.5223 17.7064 15.4386 17.6303 15.3541 17.5542L15.3538 17.5542ZM0.979992 9.27584L7.67743 13.1724C10.2522 14.6704 12.7674 16.5009 14.9457 18.4979C16.9892 20.3712 18.7319 22.3865 19.9433 24.4053L20.15 24.75L40.3358 17.3895L42.2856 19.3888L20.6072 28.7151C19.5272 26.2521 17.6728 23.4826 15.3991 20.9082C13.1063 18.3121 10.379 15.9037 7.58249 14.1978L0.980347 10.1706L0.979328 9.27522L0.979992 9.27584ZM22.287 2.20536C22.1722 2.17411 22.1974 2.18056 22.287 2.20468V2.20536ZM22.0322 3.14155C21.9975 3.13204 21.9921 3.13068 22.0322 3.14155V3.14155Z" fill="#2C6B77"/>
</svg>
