<svg width="62" height="56" viewBox="0 0 62 56" fill="none" xmlns="http://www.w3.org/2000/svg">
<path d="M61.9328 18.2143C61.7649 18.7362 61.261 19.0928 60.7062 19.0928H55.5398V54.728C55.5398 55.0708 55.4106 55.3893 55.1656 55.6313C54.9196 55.8727 54.5968 56 54.2478 56H7.75137C7.40237 56 7.07966 55.8722 6.83466 55.6313C6.58859 55.3888 6.46046 55.0708 6.46046 54.728V37.9537C6.46046 37.2537 7.04159 36.6806 7.75136 36.6806C8.46168 36.6806 9.04334 37.2537 9.04334 37.9537V48.365H28.416C29.129 48.365 29.7079 48.9344 29.7079 49.6381C29.7079 50.3417 29.13 50.9101 28.416 50.9101H9.04334V53.4552L52.957 53.4557V50.9106L41.333 50.9101C40.62 50.9101 40.041 50.3412 40.041 49.6381C40.041 48.9345 40.6189 48.365 41.333 48.365H52.957V19.0925H49.0822C48.3713 19.0925 47.7902 18.5193 47.7902 17.8194C47.7902 17.1195 48.3713 16.5463 49.0822 16.5463H56.7799L39.1241 3.67957L37.5861 3.13282L38.2192 12.8558L41.2289 19.8679C41.4224 20.3148 41.3329 20.8367 41.0096 21.2054C40.6869 21.5604 40.1696 21.7141 39.7048 21.5873L33.4143 19.8948L31.257 20.9513L34.4473 28.8671C34.6408 29.3383 34.525 29.8851 34.1632 30.2416L31.0635 33.2706L36.1006 47.9569C36.3075 48.5543 36.0486 49.1914 35.4803 49.4846C34.9378 49.7767 34.2275 49.6256 33.8534 49.1407L20.9389 32.595C20.5385 32.0863 20.5899 31.3726 21.0429 30.9151L24.2584 27.7455L22.0111 23.2532L18.4339 10.7811C18.2918 10.2592 18.4853 9.69976 18.9367 9.39388C19.3763 9.08802 19.9966 9.08802 20.4356 9.40655L25.8475 13.2507L27.2295 11.9005L23.924 3.28519L5.28422 16.5469H12.9181C13.6284 16.5469 14.209 17.1201 14.209 17.82C14.209 18.52 13.6274 19.0931 12.9181 19.0931H9.04333V27.7718C9.04333 28.4733 8.46167 29.0449 7.75135 29.0449C7.04049 29.0449 6.46045 28.4733 6.46045 27.7718V19.0931H1.2941C0.738709 19.0931 0.234247 18.7366 0.0669945 18.2146C-0.113667 17.68 0.0809329 17.1074 0.531781 16.7889L23.7937 0.244489C24.1036 0.0157563 24.5298 -0.0597853 24.9174 0.0543242C25.305 0.168427 25.6138 0.460023 25.7564 0.829276L29.9405 11.7752C30.1212 12.2464 30.0048 12.781 29.643 13.1238L26.8923 15.8221C26.4532 16.2547 25.7295 16.3054 25.2261 15.9499L21.9329 13.6066L24.4643 22.4517L26.9956 27.4278C27.2406 27.9233 27.1372 28.5092 26.7496 28.9048L23.6757 31.9212L31.1676 41.5302L28.3654 33.3338C28.2099 32.8764 28.3263 32.3666 28.6753 32.0238L31.7364 29.0323L28.4169 20.7978C28.1719 20.1866 28.4555 19.4751 29.0494 19.1946L32.7045 17.3997C32.9758 17.2597 33.3119 17.2217 33.6212 17.3104L37.8188 18.444L35.7521 13.6449L35.6615 13.2376L34.8746 1.35093C34.8483 0.930437 35.0424 0.510485 35.3908 0.257451C35.7398 0.00230716 36.1917 -0.074289 36.605 0.0778479L40.4922 1.51578L61.4678 16.8025C61.9202 17.1205 62.1137 17.6926 61.9325 18.215L61.9328 18.2143ZM7.75228 34.1352C8.4626 34.1352 9.04426 33.5637 9.04426 32.8621C9.04426 32.1633 8.4626 31.5901 7.75228 31.5901C7.04142 31.5901 6.46138 32.1633 6.46138 32.8621C6.46085 33.5631 7.04197 34.1352 7.75228 34.1352Z" fill="#2C6B77"/>
</svg>
