<svg width="106" height="40" viewBox="0 0 106 40" fill="none" xmlns="http://www.w3.org/2000/svg">
<path d="M81.4882 16.4634C83.912 16.4634 85.98 18.2807 86.5854 20.7311H92.8154C92.9072 20.5069 93.0129 20.2699 93.158 20.0466V19.9942C93.1847 19.9942 93.1847 19.9942 93.1847 19.9676C94.0143 17.8343 95.9115 16.4643 98.0319 16.4643C98.4003 16.4643 98.7696 16.5433 99.1123 16.6095L95.3188 3.99161C95.2664 3.89974 95.2664 3.82072 95.2398 3.72793C95.2131 3.67556 95.1874 3.64892 95.1874 3.60941C95.1608 3.55704 95.1351 3.46425 95.1084 3.34573C95.0818 3.31909 95.0818 3.29336 95.0818 3.26672C95.0551 3.24007 95.0551 3.18771 95.0551 3.17485V3.12247L94.5149 1.18668C94.0932 0.475588 93.4344 0.0410156 92.7766 0.0410156C91.8147 0.0410156 90.9328 0.870627 90.5772 2.12197C90.5505 2.20098 90.5248 2.26713 90.4853 2.34614V2.37278C90.3934 2.57031 90.3144 2.83398 90.3144 3.08388C90.3144 3.76835 89.7742 4.30855 89.0898 4.30855H81.7408C81.7141 4.30855 81.6618 4.30855 81.6489 4.28191C81.1877 4.25527 80.8193 3.9925 80.6475 3.57082C80.6208 3.51845 80.6208 3.47894 80.5951 3.39993C80.5685 3.32092 80.5427 3.25477 80.5427 3.15003C80.4509 1.43751 79.3704 0.0418985 78.1586 0.0418985C77.2233 0.0418985 76.3413 0.87151 75.9719 2.12285C75.9719 2.17522 75.9453 2.21473 75.9196 2.26801C75.8277 2.6107 75.7744 3.00576 75.7744 3.40082L77.9739 17.9546C78.9459 16.9771 80.1706 16.4635 81.488 16.4635L81.4882 16.4634Z" fill="#1b116d"/>
<path d="M61.864 20.7296H68.1602C68.2126 20.5845 68.2787 20.4136 68.3577 20.2684C69.1212 17.99 71.0973 16.4749 73.3098 16.4749C74.0209 16.4749 74.7063 16.6458 75.3384 16.9095L73.3759 3.81748C73.3236 3.72561 73.2969 3.61995 73.2969 3.52807V3.50143V3.47478C73.2969 3.44814 73.2703 3.42242 73.2703 3.39577C73.2703 3.3434 73.2436 3.13209 73.2436 3.07971L73.1389 2.34289L73.1123 2.07921C72.7962 0.946403 71.8876 0.0249023 70.9128 0.0249023C69.9509 0.0249023 69.056 0.907809 68.7133 2.15821C68.7133 2.21058 68.6867 2.21058 68.6609 2.25008C68.6609 2.27673 68.6609 2.30245 68.6343 2.3291C68.5819 2.47426 68.5424 2.59278 68.5158 2.67178C68.5424 2.81694 68.5158 3.01446 68.4634 3.212C68.3844 3.83123 67.8708 4.29245 67.2387 4.29245H59.8898C59.2053 4.29245 58.6651 3.75223 58.6651 3.06778C58.6651 2.92262 58.6384 2.77837 58.6127 2.62036C58.3886 1.1715 57.3614 0.0259036 56.2819 0.0259036C55.2281 0.0259036 54.2928 1.02733 53.9767 2.50182C53.9501 2.58084 53.9501 2.64699 53.9244 2.69935C53.9244 2.75172 53.9244 2.79122 53.8977 2.81787C53.8977 2.93639 53.8711 3.16055 53.8711 3.41045V17.411C54.7274 16.7918 55.715 16.4758 56.7421 16.4758C59.164 16.4629 61.2321 18.2535 61.864 20.7295L61.864 20.7296Z" fill="#1b116d"/>
<path d="M36.9849 20.2687C37.0768 20.4138 37.1301 20.5847 37.1824 20.7299H43.5043C44.1235 18.254 46.2044 16.4622 48.5749 16.4622C49.6287 16.4622 50.6035 16.8049 51.446 17.3975L51.4469 3.42256C51.4469 3.15888 51.4469 2.90898 51.3945 2.65908C51.0518 1.0127 50.0908 0.0112305 49.0637 0.0112305C47.9575 0.0112305 46.9561 1.14403 46.7063 2.65908C46.6796 2.7776 46.6796 2.92276 46.6796 3.05414C46.6796 3.73861 46.1137 4.27882 45.455 4.27882H38.0794C37.3949 4.27882 36.8547 3.73859 36.8547 3.05414C36.8547 3.0275 36.8024 2.68573 36.8024 2.65908C36.8024 2.63243 36.7234 2.43491 36.6838 2.3164V2.23739C36.6572 2.21074 36.6315 2.18502 36.6048 2.14551C36.2622 0.867544 35.3802 0.012203 34.4182 0.012203C33.4563 0.012203 32.5615 0.920843 32.2188 2.21168L32.1664 2.47535C32.1664 2.52772 32.1664 2.59387 32.1397 2.64624V2.69861L32.0607 3.21219C32.0607 3.2912 32.0341 3.38307 32.0341 3.47587C32.0074 3.47587 32.0341 3.50251 32.0074 3.52823V3.60725L30.0312 16.9098C30.6505 16.6461 31.3349 16.4752 32.046 16.4752C34.2721 16.4623 36.2483 17.9764 36.9852 20.2687L36.9849 20.2687Z" fill="#1b116d"/>
<path d="M12.1826 19.9936C12.1826 19.9936 12.1826 20.0202 12.2092 20.0202V20.0469C12.3277 20.271 12.4591 20.5081 12.5253 20.7313H18.782C19.4012 18.282 21.4555 16.4637 23.8526 16.4637C25.1701 16.4637 26.4214 17.0039 27.3825 17.9392L29.6086 3.33223C29.6086 2.98955 29.5295 2.62114 29.4634 2.33081C29.4368 2.27844 29.4368 2.21229 29.411 2.15992C29.0683 0.908604 28.1597 0.0266147 27.2116 0.0266147C25.9869 0.0266147 24.9331 1.4231 24.8274 3.13475C24.8274 3.22662 24.775 3.33228 24.7484 3.42416C24.7484 3.47653 24.7484 3.51603 24.7217 3.54268C24.5508 3.96439 24.1815 4.22715 23.7203 4.25377C23.6679 4.28041 23.6413 4.28041 23.6018 4.28041H16.2923C15.6078 4.28041 15.041 3.74019 15.041 3.05574C15.041 2.79206 14.962 2.51552 14.8435 2.26562C14.8168 2.23898 14.8435 2.21325 14.8168 2.18661C14.7902 2.10759 14.7378 2.04145 14.7249 1.96244C14.3032 0.763473 13.4736 0 12.565 0C11.9062 0 11.2613 0.421707 10.8267 1.1328L10.6026 1.98906C10.5759 2.04143 10.5502 2.08094 10.5502 2.13422C10.5502 2.13422 10.5502 2.16087 10.5235 2.16087V2.18751L10.2737 3.09615C10.2737 3.17516 10.247 3.24131 10.247 3.29367L10.1414 3.67404C10.1414 3.70068 10.1414 3.75305 10.1147 3.79256L6.24219 16.5814C6.55825 16.5024 6.90093 16.4895 7.24361 16.4895C9.3117 16.4895 11.3532 17.807 12.1828 19.9935L12.1826 19.9936Z" fill="#1b116d"/>
<path d="M7.11203 39.9996H14.369C14.935 37.3518 17.2796 35.3637 20.0982 35.3637C21.6922 35.3637 23.1412 35.9958 24.1939 37.0367L26.7232 22.2063C26.6966 21.8379 26.6709 21.4952 26.5781 21.2049C26.5514 21.1783 26.5514 21.1525 26.5257 21.1259V21.0735C26.4991 21.0735 26.4991 21.0469 26.4991 21.0212C26.0774 19.7698 25.0236 18.9136 23.8512 18.9136C22.3757 18.9136 21.1243 20.2834 21.0326 22.0217C21.0326 22.1136 21.006 22.2192 20.9536 22.3111C20.9536 22.3378 20.9536 22.3901 20.927 22.4296C20.7561 22.8513 20.3867 23.1407 19.8998 23.1407C19.8732 23.1407 19.8474 23.1674 19.8079 23.1674H11.497C10.8383 23.1674 10.2723 22.6271 10.2723 21.9427C10.2723 21.6928 10.22 21.4558 10.0482 21.1792C10.0215 21.1526 10.0215 21.1002 10.0215 21.0874C9.99487 21.035 9.9425 20.9955 9.92964 20.9422C9.16617 18.9136 6.68933 18.3209 5.34612 19.8617C5.29375 19.9141 5.25425 19.9803 5.20096 20.0593L4.56886 22.1136C4.54222 22.1926 4.54222 22.2845 4.51649 22.3635L0 35.5345C0.461198 35.416 0.935287 35.3636 1.39649 35.3636C4.18851 35.3636 6.54613 37.3527 7.11201 39.9996L7.11203 39.9996Z" fill="#1b116d"/>
<path d="M34.6793 21.073C34.2576 19.7951 33.2038 18.9131 32.0315 18.9131C31.2937 18.9131 30.5826 19.2558 30.069 19.875C29.7264 20.2434 29.5031 20.678 29.358 21.153L29.2394 21.956C29.2394 21.9826 29.2394 22.0083 29.2128 22.0478L29.1604 22.4695L26.8682 35.9299C27.6583 35.5615 28.4879 35.3639 29.3709 35.3639C32.1629 35.3639 34.5205 37.353 35.0874 39.9999H42.3444C42.9103 37.3521 45.255 35.3639 48.0736 35.3639C49.3249 35.3639 50.4973 35.7856 51.4583 36.4701V21.9815C51.4583 21.8896 51.4316 21.8106 51.4583 21.7178C51.4316 21.6912 51.4316 21.6388 51.4059 21.5993L51.3664 21.6002C51.3398 21.5212 51.314 21.4027 51.2874 21.3108C50.919 19.8886 49.8385 18.9266 48.5605 18.9266C47.243 18.9266 46.0846 20.0327 45.7941 21.5479V21.5745C45.7675 21.693 45.7151 21.8382 45.7151 21.9696C45.7151 22.654 45.1749 23.1942 44.4904 23.1942H36.1529C35.4685 23.1942 34.9283 22.654 34.9283 21.9696C34.9283 21.7454 34.8492 21.535 34.7574 21.3108C34.7574 21.3108 34.7574 21.2842 34.7307 21.2842V21.2575C34.7316 21.1914 34.705 21.1262 34.6793 21.0729L34.6793 21.073Z" fill="#1b116d"/>
<path d="M63.0087 39.9995H70.2657C70.8583 37.3517 73.2028 35.3636 76.0217 35.3636C76.8779 35.3636 77.7342 35.5611 78.4976 35.9295L76.1925 22.5214C76.1925 22.4947 76.1925 22.4947 76.1658 22.469L76.1392 22.2448L76.1125 22.1263V22.0997L75.9674 21.1378C75.5062 19.7413 74.4662 18.9117 73.2939 18.9117C72.1216 18.9117 71.0678 19.7946 70.646 21.0716C70.646 21.124 70.6194 21.1901 70.567 21.2425V21.2691V21.2958C70.4485 21.52 70.3961 21.7304 70.3961 21.9545C70.3961 22.2706 70.251 22.5866 70.0277 22.8108C69.8035 23.0607 69.4875 23.1792 69.1715 23.1792H60.8081C60.1236 23.1792 59.5834 22.639 59.5834 21.9545C59.5834 21.836 59.5568 21.6909 59.531 21.5595C59.2416 20.0187 58.0556 18.9116 56.739 18.9116C56.0013 18.9116 55.2901 19.2543 54.7766 19.8735C54.4082 20.2686 54.1573 20.7564 54.0388 21.2957L54.0397 21.3233V21.3499L53.9479 21.7184C53.9479 21.8635 53.9479 21.982 53.8955 22.1134V22.1658V36.4569C54.8703 35.7724 56.0555 35.3764 57.3068 35.3764C60.0979 35.3635 62.4555 37.3526 63.0085 39.9994L63.0087 39.9995Z" fill="#1b116d"/>
<path d="M95.41 20.9531C95.3834 21.0055 95.3577 21.045 95.331 21.0983C95.3044 21.1249 95.3044 21.1773 95.2787 21.1901C95.1335 21.4538 95.0545 21.7037 95.0545 21.9536C95.0545 22.6381 94.5143 23.1783 93.8298 23.1783H85.5189C85.4922 23.1783 85.4665 23.1783 85.4399 23.1516C84.953 23.1516 84.557 22.8622 84.3861 22.4405C84.3594 22.3882 84.3594 22.3487 84.3594 22.2696C84.3328 22.1906 84.2804 22.0988 84.2804 22.0198C84.1885 20.2815 82.9629 18.9116 81.4618 18.9116C80.7241 18.9116 80.013 19.2543 79.4728 19.8735C79.1833 20.2162 78.9592 20.6113 78.814 21.0192C78.6688 21.4409 78.6165 21.8222 78.5898 22.2705L78.6964 22.6389L81.1723 36.9951C82.3051 35.9413 83.7412 35.3488 85.2681 35.3488C88.0601 35.3488 90.4177 37.3378 90.9845 39.9847H98.2415C98.8341 37.3369 101.152 35.3488 103.971 35.3488C104.432 35.3488 104.906 35.4278 105.367 35.5196L100.863 22.3615C100.836 22.3092 100.836 22.2697 100.836 22.2164C100.809 22.164 100.809 22.1374 100.809 22.1245L100.493 21.0973C100.467 21.045 100.441 21.0055 100.441 20.9265L100.191 20.1235C99.6509 19.3857 98.8736 18.9245 98.0311 18.9245C96.9112 18.9116 95.884 19.7284 95.4099 20.9531L95.41 20.9531Z" fill="#1b116d"/>
</svg>
