<svg width="24" height="50" viewBox="0 0 24 50" fill="none" xmlns="http://www.w3.org/2000/svg">
<path d="M11.9322 50C8 50 4.81344 46.7361 4.81344 42.7082C4.81344 40.5556 5.76257 38.4721 7.38983 37.0834V36.9443V4.65276C7.38983 2.08345 9.42385 0 11.9322 0C14.4406 0 16.4746 2.08345 16.4746 4.65276V36.9443V37.0834C18.1018 38.4721 19.051 40.5556 19.051 42.7082C19.0505 46.736 15.8645 50 11.9322 50ZM11.9322 1.38902C10.1696 1.38902 8.74576 2.8476 8.74576 4.6529V36.9445V37.3611C8.74576 37.6386 8.67814 37.8474 8.47478 37.986C6.98326 39.0972 6.16982 40.8333 6.16982 42.7079C6.16982 45.9718 8.74621 48.6109 11.9328 48.6109C15.1192 48.6109 17.6957 45.9719 17.6957 42.7079C17.6957 40.8328 16.8823 39.0967 15.3908 37.986C15.1874 37.8469 15.1198 37.5694 15.1198 37.3611V36.9445L15.1188 4.6529C15.1188 2.8471 13.6949 1.38902 11.9324 1.38902H11.9322ZM16.4064 42.6389C16.4064 40.6945 15.2539 39.0277 13.559 38.4028V9.93066C13.559 9.02774 12.8132 8.26388 11.9317 8.26388C11.0503 8.26388 10.3045 9.02779 10.3045 9.93066V38.4028C8.60956 39.0974 7.45702 40.7638 7.45702 42.6389C7.45702 45.1389 9.49104 47.2224 11.9317 47.2224C14.4406 47.2224 16.4064 45.1389 16.4064 42.6389V42.6389ZM24 4.23624H19.3901V5.2777H24V4.23624ZM23.3218 8.54215H19.3896V9.58362H23.3218V8.54215ZM24 12.7783H19.3901V13.8197H24V12.7783ZM23.3218 17.0144H19.3896V18.0558H23.3218V17.0144ZM24 21.3198H19.3901V22.3612H24V21.3198ZM23.3218 25.5559H19.3896V26.5973H23.3218V25.5559ZM24 29.8613H19.3901V30.9028H24V29.8613ZM0 5.27802H4.60993V4.23656H0V5.27802ZM0.678159 9.58344H4.61036V8.54198H0.678159V9.58344ZM0 13.8195H4.60993V12.7781H0V13.8195ZM0.678159 18.125H4.61036V17.0835H0.678159V18.125ZM0 22.3611H4.60993V21.3196H0V22.3611ZM0.678159 26.667H4.61036V25.6255H0.678159V26.667ZM0 30.9031H4.60993L4.6104 29.8611H0.000472912L0 30.9031Z" fill="#1b116d"/>
</svg>
