<svg width="225" height="55" viewBox="0 0 225 55" fill="none" xmlns="http://www.w3.org/2000/svg">
<path d="M59.1078 19.4907L81.8591 19.4907L81.8591 23.71L72.901 23.71L72.901 47.4948L67.9909 47.4948L67.9909 23.71L59.0703 23.71L59.1078 19.4907ZM80.8845 27.2198L85.0825 27.2198L85.0825 31.1404L85.1574 31.1404C85.3074 30.5803 85.5697 30.0576 85.9446 29.5349C86.3194 29.0121 86.7691 28.5267 87.3314 28.116C87.8561 27.6679 88.4558 27.3319 89.1305 27.0705C89.7677 26.8091 90.4423 26.6598 91.117 26.6598C91.6417 26.6598 92.0166 26.6971 92.204 26.6971C92.3914 26.7344 92.6163 26.7718 92.8037 26.7718L92.8037 31.0658C92.5038 30.9911 92.1665 30.9537 91.8291 30.9164C91.4918 30.879 91.192 30.8417 90.8546 30.8417C90.105 30.8417 89.3929 30.9911 88.7182 31.2898C88.0435 31.5885 87.4813 32.0366 86.9566 32.5966C86.4693 33.1941 86.057 33.9035 85.7571 34.7623C85.4573 35.6211 85.3074 36.6292 85.3074 37.7494L85.3074 47.3828L80.8096 47.3828L80.8845 27.2198ZM113.418 47.4948L108.996 47.4948L108.996 44.6571L108.921 44.6571C108.358 45.7026 107.534 46.4867 106.447 47.1214C105.36 47.7562 104.236 48.0549 103.111 48.0549C100.45 48.0549 98.5009 47.4201 97.3014 46.0759C96.102 44.7691 95.5023 42.7528 95.5023 40.1017L95.5023 27.2198L100 27.2198L100 39.6537C100 41.4459 100.337 42.7154 101.05 43.4249C101.724 44.1717 102.699 44.545 103.936 44.545C104.873 44.545 105.66 44.3957 106.297 44.097C106.934 43.7983 107.459 43.4249 107.834 42.9395C108.246 42.4541 108.508 41.8567 108.696 41.1846C108.883 40.5125 108.958 39.7657 108.958 38.9816L108.958 27.2199L113.456 27.2199L113.456 47.4948L113.418 47.4948ZM121.065 40.9979C121.215 42.3047 121.702 43.2009 122.564 43.7609C123.426 44.2837 124.476 44.545 125.675 44.545C126.087 44.545 126.575 44.5077 127.099 44.433C127.624 44.3584 128.149 44.2463 128.599 44.0597C129.086 43.873 129.461 43.6116 129.76 43.2382C130.06 42.8648 130.21 42.4167 130.173 41.8567C130.135 41.2966 129.948 40.8112 129.536 40.4378C129.123 40.0644 128.636 39.803 128.036 39.5417C127.437 39.3176 126.724 39.1309 125.937 38.9816C125.15 38.8322 124.363 38.6455 123.539 38.4588C122.714 38.2721 121.889 38.0481 121.102 37.7867C120.315 37.5254 119.64 37.1893 119.003 36.7039C118.404 36.2558 117.879 35.6958 117.541 34.9863C117.167 34.2769 116.979 33.4554 116.979 32.4099C116.979 31.2898 117.242 30.3936 117.804 29.6469C118.329 28.9001 119.041 28.3027 119.865 27.8546C120.69 27.4065 121.627 27.0705 122.639 26.8838C123.651 26.6971 124.625 26.6224 125.525 26.6224C126.575 26.6224 127.587 26.7345 128.524 26.9585C129.461 27.1825 130.36 27.5186 131.11 28.0413C131.897 28.5267 132.534 29.1988 133.021 29.9829C133.546 30.767 133.846 31.7378 133.996 32.858L129.311 32.858C129.086 31.7752 128.599 31.0658 127.849 30.6924C127.062 30.319 126.2 30.1323 125.188 30.1323C124.888 30.1323 124.476 30.1696 124.063 30.207C123.613 30.2816 123.239 30.3563 122.826 30.5057C122.452 30.655 122.114 30.8791 121.852 31.1404C121.589 31.4018 121.44 31.7752 121.44 32.2232C121.44 32.7833 121.627 33.1941 122.002 33.5301C122.377 33.8662 122.864 34.1275 123.501 34.3889C124.101 34.6129 124.813 34.7996 125.6 34.949C126.387 35.0983 127.212 35.285 128.036 35.4717C128.861 35.6584 129.648 35.8824 130.435 36.1438C131.222 36.4052 131.934 36.7413 132.534 37.2267C133.134 37.6747 133.659 38.2348 134.033 38.9069C134.408 39.579 134.596 40.4378 134.596 41.4086C134.596 42.6034 134.333 43.6116 133.771 44.4704C133.209 45.2918 132.497 46.0013 131.635 46.524C130.772 47.0468 129.76 47.4201 128.711 47.6815C127.624 47.9056 126.575 48.0549 125.525 48.0549C124.251 48.0549 123.051 47.9055 121.964 47.6068C120.877 47.3081 119.903 46.8601 119.116 46.3C118.329 45.7026 117.691 44.9931 117.242 44.097C116.792 43.2382 116.529 42.1927 116.492 40.9605L121.027 40.9605L121.027 40.9979L121.065 40.9979ZM135.87 27.2199L139.281 27.2199L139.281 21.0963L143.779 21.0963L143.779 27.1825L147.827 27.1825L147.827 30.5057L143.779 30.5057L143.779 41.3339C143.779 41.8193 143.816 42.1927 143.853 42.5661C143.891 42.9021 144.003 43.2009 144.116 43.4249C144.266 43.6489 144.491 43.8356 144.753 43.9476C145.053 44.0597 145.428 44.1343 145.952 44.1343C146.252 44.1343 146.59 44.1343 146.889 44.097C147.189 44.0597 147.527 44.0223 147.827 43.9476L147.827 47.4201C147.339 47.4948 146.852 47.5322 146.365 47.5695C145.877 47.6442 145.428 47.6442 144.903 47.6442C143.704 47.6442 142.767 47.5322 142.054 47.3081C141.342 47.0841 140.78 46.748 140.368 46.3373C139.955 45.8893 139.693 45.3665 139.543 44.7317C139.393 44.097 139.318 43.3129 139.281 42.4914L139.281 30.543L135.87 30.543L135.87 27.1452L135.87 27.2199ZM150.975 27.2199L155.21 27.2199L155.21 29.9829L155.285 29.9829C155.923 28.7881 156.785 27.9666 157.909 27.4439C159.033 26.9211 160.233 26.6598 161.582 26.6598C163.194 26.6598 164.581 26.9212 165.78 27.5186C166.98 28.0787 167.954 28.8254 168.741 29.8336C169.528 30.8044 170.128 31.9619 170.503 33.2687C170.878 34.5756 171.103 35.9945 171.103 37.4507C171.103 38.8322 170.915 40.1391 170.578 41.4086C170.203 42.6781 169.678 43.8356 168.966 44.8064C168.254 45.7772 167.354 46.5613 166.23 47.1588C165.105 47.7562 163.831 48.0549 162.332 48.0549C161.695 48.0549 161.02 47.9802 160.383 47.8682C159.746 47.7562 159.108 47.5695 158.509 47.3081C157.909 47.0468 157.347 46.7107 156.86 46.3C156.335 45.8893 155.923 45.4039 155.585 44.8811L155.51 44.8811L155.51 54.9999L151.012 54.9999L151.012 27.2199L150.975 27.2199ZM166.68 37.376C166.68 36.4799 166.567 35.5837 166.305 34.725C166.08 33.8662 165.705 33.1194 165.218 32.4473C164.731 31.7752 164.131 31.2524 163.456 30.8417C162.744 30.431 161.92 30.2443 161.02 30.2443C159.146 30.2443 157.722 30.8791 156.747 32.1859C155.81 33.4928 155.323 35.2477 155.323 37.4134C155.323 38.4588 155.435 39.3923 155.698 40.2511C155.96 41.1099 156.297 41.8567 156.822 42.4914C157.309 43.1262 157.909 43.6116 158.621 43.985C159.333 44.3584 160.12 44.5451 161.057 44.5451C162.107 44.5451 162.932 44.321 163.644 43.9103C164.356 43.4996 164.918 42.9395 165.405 42.3047C165.855 41.6326 166.192 40.8859 166.38 40.0271C166.567 39.1309 166.68 38.2721 166.68 37.376V37.376ZM174.588 19.4907L179.086 19.4907L179.086 23.71L174.588 23.71L174.588 19.4907ZM174.588 27.2199L179.086 27.2199L179.086 47.4948L174.588 47.4948L174.588 27.2199ZM183.097 19.4907L187.594 19.4907L187.594 47.4948L183.097 47.4948L183.097 19.4907ZM201.313 48.0549C199.701 48.0549 198.239 47.7935 196.965 47.2335C195.69 46.6734 194.641 45.9639 193.741 45.0305C192.879 44.097 192.205 42.9395 191.755 41.6326C191.305 40.3258 191.043 38.8696 191.043 37.3387C191.043 35.8078 191.268 34.3889 191.755 33.0821C192.205 31.7752 192.879 30.655 193.741 29.6842C194.603 28.7508 195.69 28.004 196.965 27.4812C198.239 26.9585 199.701 26.6598 201.313 26.6598C202.924 26.6598 204.386 26.9212 205.66 27.4812C206.935 28.004 207.984 28.7508 208.884 29.6842C209.746 30.6177 210.421 31.7752 210.87 33.0821C211.32 34.3889 211.583 35.8078 211.583 37.3387C211.583 38.9069 211.358 40.3258 210.87 41.6326C210.383 42.9395 209.746 44.0597 208.884 45.0305C208.022 45.9639 206.935 46.7107 205.66 47.2335C204.386 47.7562 202.962 48.0549 201.313 48.0549ZM201.313 44.5077C202.287 44.5077 203.187 44.2837 203.899 43.873C204.648 43.4622 205.211 42.9022 205.698 42.2301C206.185 41.558 206.523 40.7738 206.747 39.9524C206.972 39.0936 207.085 38.2348 207.085 37.3387C207.085 36.4799 206.972 35.6211 206.747 34.7623C206.523 33.9035 206.185 33.1567 205.698 32.4846C205.211 31.8125 204.611 31.2898 203.899 30.8791C203.149 30.4683 202.287 30.2443 201.313 30.2443C200.338 30.2443 199.439 30.4683 198.726 30.8791C197.977 31.2898 197.415 31.8499 196.927 32.4846C196.44 33.1567 196.103 33.9035 195.878 34.7623C195.653 35.6211 195.54 36.4799 195.54 37.3387C195.54 38.2348 195.653 39.0936 195.878 39.9524C196.103 40.8112 196.44 41.558 196.927 42.2301C197.415 42.9022 198.014 43.4622 198.726 43.873C199.476 44.321 200.338 44.5077 201.313 44.5077ZM212.932 27.2199L216.343 27.2199L216.343 21.0963L220.841 21.0963L220.841 27.1825L224.888 27.1825L224.888 30.5057L220.841 30.5057L220.84 41.3339C220.84 41.8193 220.878 42.1927 220.915 42.5661C220.953 42.9022 221.065 43.2009 221.178 43.4249C221.328 43.6489 221.553 43.8356 221.815 43.9476C222.115 44.0597 222.49 44.1343 223.014 44.1343C223.314 44.1343 223.652 44.1343 223.951 44.097C224.251 44.0597 224.589 44.0223 224.888 43.9476L224.888 47.4201C224.401 47.4948 223.914 47.5322 223.427 47.5695C222.939 47.6442 222.49 47.6442 221.965 47.6442C220.766 47.6442 219.828 47.5322 219.116 47.3081C218.404 47.0841 217.842 46.7481 217.43 46.3373C217.017 45.8893 216.755 45.3665 216.605 44.7318C216.455 44.097 216.38 43.3129 216.343 42.4914L216.343 30.543L212.932 30.543L212.932 27.1452L212.932 27.2199Z" fill="#383D44"/>
<path d="M53.8609 19.4909L33.2836 19.4909L26.9492 2.35597e-06L20.5773 19.4909L-1.70068e-06 19.4535L16.6418 31.5139L10.2699 51.0048L26.9117 38.9444L43.5535 51.0048L37.2191 31.5139L53.8609 19.4909Z" fill="#00B076"/>
</svg>
