<svg width="238" height="96" viewBox="0 0 238 96" fill="none" xmlns="http://www.w3.org/2000/svg">
<path d="M62.3325 20.554L86.3248 20.554L86.3248 25.0034L76.8781 25.0034L76.8781 50.0856L71.7001 50.0856L71.7001 25.0034L62.293 25.0034L62.3325 20.554ZM85.2971 28.7047L89.724 28.7047L89.724 32.8391L89.803 32.8391C89.9612 32.2485 90.2378 31.6972 90.6331 31.146C91.0284 30.5947 91.5027 30.0828 92.0956 29.6497C92.6489 29.1772 93.2813 28.8228 93.9928 28.5472C94.6647 28.2715 95.3762 28.114 96.0877 28.114C96.641 28.114 97.0363 28.1534 97.2339 28.1534C97.4316 28.1928 97.6687 28.2322 97.8664 28.2322L97.8664 32.7604C97.5501 32.6816 97.1944 32.6422 96.8387 32.6028C96.4829 32.5635 96.1667 32.5241 95.811 32.5241C95.0205 32.5241 94.2695 32.6816 93.558 32.9966C92.8466 33.3116 92.2537 33.7841 91.7003 34.3747C91.1865 35.0048 90.7517 35.7529 90.4355 36.6585C90.1193 37.5642 89.9612 38.6273 89.9612 39.8086L89.9612 49.9674L85.218 49.9674L85.2971 28.7047ZM119.606 50.0856L114.942 50.0856L114.942 47.093L114.863 47.093C114.27 48.1955 113.4 49.0224 112.254 49.6918C111.108 50.3612 109.922 50.6762 108.736 50.6762C105.93 50.6762 103.874 50.0068 102.609 48.5893C101.345 47.2112 100.712 45.0849 100.712 42.2892L100.712 28.7047L105.455 28.7047L105.455 41.8167C105.455 43.7067 105.811 45.0455 106.562 45.7936C107.274 46.5811 108.301 46.9749 109.606 46.9749C110.594 46.9749 111.424 46.8174 112.096 46.5024C112.768 46.1874 113.321 45.7936 113.716 45.2818C114.151 44.7699 114.428 44.1399 114.625 43.4311C114.823 42.7223 114.902 41.9348 114.902 41.108L114.902 28.7047L119.645 28.7047L119.645 50.0856L119.606 50.0856ZM127.669 43.2342C127.827 44.6124 128.341 45.5574 129.25 46.148C130.159 46.6993 131.266 46.9749 132.531 46.9749C132.965 46.9749 133.479 46.9355 134.033 46.8568C134.586 46.778 135.139 46.6599 135.614 46.463C136.128 46.2661 136.523 45.9905 136.839 45.5968C137.155 45.203 137.313 44.7305 137.274 44.1399C137.234 43.5492 137.037 43.0374 136.602 42.6436C136.167 42.2498 135.653 41.9742 135.021 41.6986C134.388 41.4623 133.637 41.2655 132.807 41.108C131.977 40.9505 131.147 40.7536 130.278 40.5567C129.408 40.3598 128.539 40.1236 127.708 39.8479C126.878 39.5723 126.167 39.2179 125.495 38.706C124.863 38.2335 124.309 37.6429 123.954 36.8948C123.558 36.1467 123.361 35.2804 123.361 34.1779C123.361 32.9966 123.637 32.0516 124.23 31.2641C124.784 30.4766 125.535 29.8466 126.404 29.3741C127.274 28.9016 128.262 28.5472 129.329 28.3503C130.396 28.1534 131.424 28.0747 132.373 28.0747C133.479 28.0747 134.546 28.1928 135.535 28.4291C136.523 28.6653 137.471 29.0197 138.262 29.5709C139.092 30.0828 139.764 30.7916 140.278 31.6185C140.831 32.4453 141.147 33.4691 141.305 34.6504L136.365 34.6504C136.128 33.5085 135.614 32.7604 134.823 32.3666C133.993 31.9729 133.084 31.776 132.017 31.776C131.701 31.776 131.266 31.8153 130.831 31.8547C130.357 31.9335 129.961 32.0122 129.527 32.1697C129.131 32.3272 128.776 32.5635 128.499 32.8391C128.222 33.1147 128.064 33.5085 128.064 33.981C128.064 34.5716 128.262 35.0048 128.657 35.3591C129.052 35.7135 129.566 35.9891 130.238 36.2648C130.871 36.501 131.622 36.6979 132.452 36.8554C133.282 37.0129 134.151 37.2098 135.021 37.4067C135.89 37.6035 136.72 37.8398 137.55 38.1154C138.38 38.391 139.131 38.7454 139.764 39.2573C140.396 39.7298 140.95 40.3205 141.345 41.0292C141.74 41.738 141.938 42.6436 141.938 43.6674C141.938 44.9274 141.661 45.9905 141.068 46.8962C140.475 47.7624 139.724 48.5106 138.815 49.0618C137.906 49.6131 136.839 50.0068 135.732 50.2825C134.586 50.5187 133.479 50.6762 132.373 50.6762C131.029 50.6762 129.764 50.5187 128.618 50.2037C127.471 49.8887 126.444 49.4162 125.614 48.8256C124.784 48.1955 124.112 47.4474 123.637 46.5024C123.163 45.5968 122.886 44.4943 122.847 43.1949L127.629 43.1949L127.629 43.2342L127.669 43.2342ZM143.282 28.7047L146.879 28.7047L146.879 22.2471L151.622 22.2471L151.622 28.6653L155.89 28.6653L155.89 32.1697L151.622 32.1697L151.622 43.5886C151.622 44.1005 151.661 44.4943 151.701 44.888C151.74 45.2424 151.859 45.5574 151.977 45.7936C152.136 46.0299 152.373 46.2268 152.649 46.3449C152.966 46.463 153.361 46.5418 153.914 46.5418C154.23 46.5418 154.586 46.5418 154.902 46.5024C155.219 46.463 155.574 46.4237 155.89 46.3449L155.89 50.0068C155.377 50.0856 154.863 50.1249 154.349 50.1643C153.835 50.2431 153.361 50.2431 152.807 50.2431C151.543 50.2431 150.554 50.125 149.803 49.8887C149.052 49.6524 148.46 49.2981 148.025 48.8649C147.59 48.3924 147.313 47.8412 147.155 47.1718C146.997 46.5024 146.918 45.6755 146.879 44.8093L146.879 32.2091L143.282 32.2091L143.282 28.6259L143.282 28.7047ZM159.211 28.7047L163.677 28.7047L163.677 31.6185L163.756 31.6185C164.428 30.3584 165.337 29.4922 166.523 28.9409C167.709 28.3897 168.974 28.1141 170.397 28.1141C172.096 28.1141 173.559 28.3897 174.823 29.0197C176.088 29.6103 177.116 30.3978 177.946 31.461C178.776 32.4847 179.408 33.7054 179.804 35.0835C180.199 36.4617 180.436 37.9579 180.436 39.4936C180.436 40.9505 180.238 42.3286 179.883 43.6674C179.488 45.0061 178.934 46.2268 178.183 47.2505C177.432 48.2743 176.484 49.1012 175.298 49.7312C174.112 50.3612 172.768 50.6762 171.187 50.6762C170.515 50.6762 169.804 50.5975 169.132 50.4793C168.46 50.3612 167.788 50.1643 167.155 49.8887C166.523 49.6131 165.93 49.2587 165.416 48.8256C164.863 48.3924 164.428 47.8805 164.072 47.3293L163.993 47.3293L163.993 58L159.25 58L159.25 28.7047L159.211 28.7047ZM175.772 39.4148C175.772 38.4698 175.653 37.5248 175.377 36.6192C175.14 35.7135 174.744 34.926 174.231 34.2173C173.717 33.5085 173.084 32.9572 172.373 32.5241C171.622 32.091 170.752 31.8941 169.804 31.8941C167.827 31.8941 166.325 32.5635 165.298 33.9416C164.31 35.3198 163.796 37.1704 163.796 39.4542C163.796 40.5567 163.914 41.5411 164.191 42.4467C164.468 43.3524 164.823 44.1399 165.377 44.8093C165.891 45.4786 166.523 45.9905 167.274 46.3843C168.025 46.778 168.855 46.9749 169.843 46.9749C170.95 46.9749 171.819 46.7387 172.57 46.3055C173.321 45.8724 173.914 45.2818 174.428 44.6124C174.902 43.9036 175.258 43.1161 175.456 42.2105C175.653 41.2655 175.772 40.3598 175.772 39.4148V39.4148ZM184.112 20.554L188.855 20.554L188.855 25.0034L184.112 25.0034L184.112 20.554ZM184.112 28.7047L188.855 28.7047L188.855 50.0856L184.112 50.0856L184.112 28.7047ZM193.084 20.554L197.828 20.554L197.828 50.0856L193.084 50.0856L193.084 20.554ZM212.294 50.6762C210.594 50.6762 209.053 50.4006 207.709 49.8099C206.365 49.2193 205.258 48.4712 204.31 47.4868C203.401 46.5024 202.689 45.2818 202.215 43.9036C201.741 42.5255 201.464 40.9898 201.464 39.3754C201.464 37.761 201.701 36.2648 202.215 34.8866C202.689 33.5085 203.401 32.3272 204.31 31.3035C205.219 30.3191 206.365 29.5316 207.709 28.9803C209.053 28.4291 210.594 28.1141 212.294 28.1141C213.994 28.1141 215.535 28.3897 216.879 28.9803C218.223 29.5316 219.33 30.3191 220.278 31.3035C221.187 32.2879 221.899 33.5085 222.373 34.8866C222.847 36.2648 223.124 37.7611 223.124 39.3754C223.124 41.0292 222.887 42.5255 222.373 43.9036C221.859 45.2818 221.187 46.463 220.278 47.4868C219.369 48.4712 218.223 49.2587 216.879 49.8099C215.535 50.3612 214.033 50.6762 212.294 50.6762ZM212.294 46.9355C213.322 46.9355 214.27 46.6993 215.021 46.2662C215.812 45.833 216.405 45.2424 216.919 44.5336C217.432 43.8249 217.788 42.998 218.025 42.1317C218.262 41.2261 218.381 40.3205 218.381 39.3754C218.381 38.4698 218.262 37.5642 218.025 36.6585C217.788 35.7529 217.432 34.9654 216.919 34.2566C216.405 33.5479 215.772 32.9966 215.021 32.5635C214.231 32.1304 213.322 31.8941 212.294 31.8941C211.266 31.8941 210.318 32.1304 209.567 32.5635C208.776 32.9966 208.183 33.5872 207.67 34.2566C207.156 34.9654 206.8 35.7529 206.563 36.6585C206.326 37.5642 206.207 38.4698 206.207 39.3754C206.207 40.3205 206.326 41.2261 206.563 42.1317C206.8 43.0374 207.156 43.8249 207.67 44.5336C208.183 45.2424 208.816 45.833 209.567 46.2662C210.357 46.7387 211.266 46.9355 212.294 46.9355ZM224.547 28.7047L228.144 28.7047L228.144 22.2471L232.887 22.2471L232.887 28.6653L237.156 28.6653L237.156 32.1697L232.887 32.1697L232.887 43.5886C232.887 44.1005 232.927 44.4943 232.966 44.888C233.006 45.2424 233.124 45.5574 233.243 45.7936C233.401 46.0299 233.638 46.2268 233.915 46.3449C234.231 46.463 234.626 46.5418 235.18 46.5418C235.496 46.5418 235.852 46.5418 236.168 46.5024C236.484 46.463 236.84 46.4237 237.156 46.3449L237.156 50.0068C236.642 50.0856 236.128 50.125 235.614 50.1643C235.101 50.2431 234.626 50.2431 234.073 50.2431C232.808 50.2431 231.82 50.125 231.069 49.8887C230.318 49.6525 229.725 49.2981 229.29 48.8649C228.855 48.3924 228.579 47.8412 228.421 47.1718C228.263 46.5024 228.184 45.6755 228.144 44.8093L228.144 32.2091L224.547 32.2091L224.547 28.6259L224.547 28.7047Z" fill="#383D44"/>
<path d="M56.7988 20.554L35.0991 20.554L28.4192 2.48448e-06L21.6998 20.554L-1.79345e-06 20.5146L17.5495 33.2329L10.8301 53.7869L28.3797 41.0686L45.9292 53.7869L39.2493 33.2329L56.7988 20.554Z" fill="#00B076"/>
<path d="M40.7511 37.8792L39.2491 33.2329L28.4189 41.0686L40.7511 37.8792Z" fill="#005128"/>
<g clip-path="url(#clip0_521_642)">
<path d="M0.15625 69.0071H26.9688V95.9927H0.15625V69.0071ZM29.2031 69.0071H56.0156V95.9927H29.2031V69.0071ZM58.25 69.0071H85.0625V95.9927H58.25V69.0071ZM87.2969 69.0071H114.109V95.9927H87.2969V69.0071ZM116.344 69.0071H143.156V95.9927H116.344V69.0071Z" fill="#00B076"/>
<path d="M13.5621 87.1941L17.6398 86.1541L19.3436 91.4388L13.5621 87.1941ZM22.9465 80.3634H15.7686L13.5621 73.5608L11.3557 80.3634H4.17773L9.98711 84.5799L7.78066 91.3825L13.59 87.166L17.165 84.5799L22.9465 80.3634ZM42.609 87.1941L46.6867 86.1541L48.3904 91.4388L42.609 87.1941ZM51.9934 80.3634H44.8154L42.609 73.5608L40.4025 80.3634H33.2246L39.034 84.5799L36.8275 91.3825L42.6369 87.166L46.2119 84.5799L51.9934 80.3634ZM71.6559 87.1941L75.7336 86.1541L77.4373 91.4388L71.6559 87.1941ZM81.0402 80.3634H73.8623L71.6559 73.5608L69.4494 80.3634H62.2715L68.0809 84.5799L65.8744 91.3825L71.6838 87.166L75.2588 84.5799L81.0402 80.3634ZM100.703 87.1941L104.78 86.1541L106.484 91.4388L100.703 87.1941ZM110.087 80.3634H102.909L100.703 73.5608L98.4963 80.3634H91.3184L97.1277 84.5799L94.9213 91.3825L100.731 87.166L104.306 84.5799L110.087 80.3634ZM129.75 87.1941L133.827 86.1541L135.531 91.4388L129.75 87.1941ZM139.134 80.3634H131.956L129.75 73.5608L127.543 80.3634H120.365L126.175 84.5799L123.968 91.3825L129.778 87.166L133.353 84.5799L139.134 80.3634Z" fill="white"/>
</g>
<defs>
<clipPath id="clip0_521_642">
<rect width="143" height="27" fill="white" transform="translate(0.15625 69)"/>
</clipPath>
</defs>
</svg>
